<?xml version="1.0" standalone="no"?>
<!DOCTYPE svg PUBLIC "-//W3C//DTD SVG 1.1//EN" "http://www.w3.org/Graphics/SVG/1.1/DTD/svg11.dtd" >
<svg xmlns="http://www.w3.org/2000/svg">
<metadata></metadata>
<defs>
<font id="frankentype_personal_use_onRg" horiz-adv-x="481" >
<font-face units-per-em="1000" ascent="750" descent="-250" />
<missing-glyph horiz-adv-x="331" />
<glyph unicode=" "  horiz-adv-x="331" />
<glyph unicode="&#x09;" horiz-adv-x="331" />
<glyph unicode="&#xa0;" horiz-adv-x="331" />
<glyph unicode="!" horiz-adv-x="315" d="M22 -5q-25 -7 -24 35q1 38 14 77q8 24 38 63q43 55 46 2q36 56 42 -6q3 -33 -2 -65q-12 -56 -31 -83q-14 -18 -32.5 -19.5t-24.5 23.5q-14 -24 -26 -27zM100 290q-8 2 -9 21.5t5 51t13.5 63.5t17.5 66.5t15.5 52.5t8.5 29q38 119 70 173q24 41 43 32t12 -59q24 48 44 56 q14 6 14 -24q0 -7 -1 -16q-7 -71 -49 -196q-45 -132 -83 -201q-16 -28 -32 -40.5t-23.5 -1t0.5 55.5q-35 -66 -46 -63z" />
<glyph unicode="&#x22;" horiz-adv-x="307" d="M194 590q-18 -73 -46 -135.5t-47 -65.5t-16 44q-29 -76 -41 -71q-9 3 -3 61q13 123 16 136q17 78 44 136q14 30 29 42t23.5 -1t4.5 -50q39 81 44 10q3 -55 -8 -106zM334 590q-18 -73 -46 -135.5t-47 -65.5t-16 44q-21 -43 -35 -39q-8 2 -9 29q-1 52 16 136q19 89 44 136 q15 31 29.5 27.5t13.5 -45.5q47 99 61 56q13 -37 -4 -115z" />
<glyph unicode="#" horiz-adv-x="638" d="M147 410q-1 0 -6 1q-96 10 -72 22q10 6 21.5 10t26.5 7.5t24 5t27.5 4t23.5 3.5q0 1 7.5 29t11.5 40t14 30.5t21 26.5q16 11 21 -20q3 -23 0 -53q2 7 6 18t10.5 27.5t14 25.5t12.5 6t7.5 -12t3 -19t-1 -24t-2.5 -23t-3.5 -21t-2.5 -14q73 8 111 10q1 2 8 28t10.5 37.5 t13 28.5t20.5 25q16 12 20 -20q4 -24 1 -52q2 7 6 18t11 27.5t14 25.5t13 6q8 -6 9.5 -23.5t-0.5 -34t-5.5 -37.5t-3.5 -24q3 0 19.5 0.5t25 0t22 -2t24 -5t17.5 -9.5q22 -18 -37 -37q-6 -2 -20 -6q42 0 67 -11q17 -8 -2 -19q-11 -6 -24 -11t-30.5 -8.5t-26 -5t-30.5 -4 t-26 -3.5q-20 -93 -41 -173q1 0 13.5 -0.5t20.5 -1t19.5 -2.5t18.5 -6.5t9 -10.5q2 -5 0 -9.5t-7 -8t-10.5 -6t-12.5 -5t-12.5 -4t-11.5 -3t-7 -1.5q48 0 69 -12q12 -6 3 -14q-10 -9 -28 -15.5t-31.5 -9t-37 -5.5t-29.5 -4q-1 -4 -6 -21t-8 -26t-9 -23t-13 -24t-15 -16 q-13 -10 -16 15q-4 33 3 67q-18 -50 -38 -79q-6 -8 -8 -6q-5 8 -5.5 22.5t1 26t4 29t3.5 22.5q-78 -6 -121 -8q-1 -4 -6 -21t-8 -26t-9 -23t-13 -24t-15 -16q-13 -10 -16 15q-4 33 3 67q-21 -59 -39 -82q-5 -7 -7 -4q-5 9 -6 25t1 30t5 32.5t4 24.5h-27.5t-37 1t-30.5 5.5 t-28 12.5q-22 17 60 36q7 2 8 2q-36 0 -70 10q-20 6 -8 13q15 8 36.5 14.5t36 9t42.5 6l36 4.5q15 88 37 181q-2 0 -12 0.5t-17 1t-18 2t-19 3.5t-14.5 6t-8.5 9q-1 4 1.5 8t8.5 7.5t12.5 6t15 4.5t15 3.5t12.5 2.5t7 1zM388 360q-31 -9 -98 -5q-18 -86 -38 -165q52 6 104 9 q14 83 32 161z" />
<glyph unicode="$" horiz-adv-x="433" d="M287 750q20 106 40 106q1 0 2 -1q-1 -1 -1 -2q11 -1 -10 -136q69 -24 100 -84q27 -55 15 -115q0 -2 -4 -17.5t-9.5 -30.5t-8.5 -14q-10 4 -15.5 22.5t-8.5 43.5t-5 30q-1 -27 -20 -63q-16 -32 -24 -8l-1 2q20 100 -37 128q-28 -155 -43 -225q47 -46 74 -96t25 -110 t-49 -109q-54 -55 -135 -52q-1 -4 -5 -17q-20 -66 -30 -81q-12 -19 -17 17q-5 38 -1 53q-2 -7 -5 -18.5t-4 -15.5t-3.5 -11.5t-5 -12.5t-6.5 -12.5t-10 -17.5q-9 -13 -10 1q-1 16 9 92l7 43q-72 32 -91 84q-10 34 -11 74t18.5 74t53.5 35q4 0 4.5 -6t-2 -15t-6 -17.5 t-7 -16.5t-3.5 -10q-10 -44 0 -81q2 30 5.5 48t7.5 22t8.5 2.5t10 -15.5t10 -26.5t11.5 -34.5q3 -11 9 -17q23 114 40 191q-9 9 -24 22.5t-23 21t-16 16t-11 13.5q-29 51 -29 109t24.5 105t71 78.5t104.5 32.5q12 49 26 74q11 23 14 -14q1 -10 1 -38zM215 614 q-37 -16 -46.5 -60t11.5 -85q14 60 35 145zM207 132q58 38 19 107q-16 -74 -25 -111z" />
<glyph unicode="%" horiz-adv-x="619" d="M58 -29q-26 -16 19 56q14 24 25 39q-22 -27 -43 -47t-35.5 -30.5t-26 -17t-17.5 -9t-7 -3.5q-5 9 37.5 71t107.5 145.5t105 133.5t63 78q137 162 223 247l14.5 14.5t17 16.5t16 13.5t18.5 11.5q22 10 -4 -44q-22 -44 -42 -73q7 7 24.5 26t28.5 30t27.5 25t31.5 22 q3 2 5.5 2.5t4 -0.5t2 -3t-0.5 -5q-7 -21 -48 -77q-64 -88 -225 -281q-160 -186 -246 -274q-55 -55 -75 -67zM482 207q22 -14 40 -45.5t-1 -43.5h-2q3 -34 -21 -70q31 31 36 76q1 5 -6.5 45t-2.5 45q10 12 31 -39q15 -36 16 -48q6 -78 -58 -137q-35 -33 -83.5 -44.5 t-93.5 7.5t-63 69q-20 56 10.5 113.5t86.5 79.5q60 23 111 -8zM126 364q-10 -23 -72 67l-13 18v-1q-20 65 13.5 131.5t98.5 88.5q68 24 120.5 -21t47.5 -116q-3 -45 -28 -84t-66 -54q-48 -18 -91 3q-11 5 -33.5 30.5t-6.5 29.5q-15 32 -5 72q-18 -38 -7 -83q1 -5 22.5 -40 t19.5 -41zM495 141q-9 9 -24 19q-13 8 -30 9q13 -6 29 -21.5t4 -21.5q-4 -2 -21.5 4t-21.5 6q-21 -4 -47 -36.5t-3 -47.5q35 -24 70 13t44 76zM127 443q24 -8 29 -9q15 -1 31 3q-9 -1 -32 8t-14 20q3 3 21.5 3.5t22.5 2.5q9 6 20.5 28t13 42.5t-18.5 26.5q-40 9 -59 -38.5 t-14 -86.5zM-26 -43q0 1 -1 2q0 -1 1 -2z" />
<glyph unicode="&#x26;" horiz-adv-x="547" d="M194 -139q-66 -1 -122 26t-73 71q-17 36 -11.5 71.5t21.5 67t44 60.5t56.5 50.5t58.5 37.5q-66 39 -79.5 100.5t15.5 119.5t80 107.5t105 70.5q1 3 5 28.5t8.5 47.5t13.5 42.5t19 22.5q6 1 9.5 -6.5t5 -21t2 -28.5t0 -30.5t-1.5 -24.5t-1 -13q0 1 5.5 37t13 61t18.5 31 q3 1 5 -4.5t3 -16t1.5 -22.5t1 -26.5t0 -25t-0.5 -19.5v-9q46 0 103 -13q41 -11 36 -23q-4 -7 -34.5 -10t-66 -3t-40.5 -1q9 1 37 -1.5t61 -8t56.5 -17t21.5 -26.5l-42 -1q-43 -1 -88.5 -2.5t-51.5 -2.5q-5 -58 -24 -221q8 1 66.5 17.5t86.5 12.5q30 -5 -53 -58 q-21 -13 -26 -15q2 0 11.5 3t19.5 6t22 5.5t19 2.5t10 -3q5 -10 -18 -24t-56.5 -26.5t-60 -21t-36.5 -10.5q-19 -139 -38 -245q96 19 114 21q63 7 47 -17q-3 -4 -8 -9q1 0 7 1.5l12 3t12 2.5t10.5 0t5.5 -4l2 -6q10 -15 -90 -53.5t-133 -45.5q0 -2 -3 -21.5t-6.5 -36 t-8.5 -36.5t-12 -32.5t-15 -14.5q-11 14 -11 61t3 71h-1q-1 -2 -3.5 -18.5t-6.5 -35t-9 -38t-10.5 -32.5t-10.5 -13q-4 0 -5.5 19.5t-0.5 45t2 45t2 24.5zM202 -34q3 69 6 105t4.5 43.5t4.5 20t5 33.5q-108 -65 -127 -136q-8 -28 12 -44t44 -19.5t51 -2.5zM264 492 q-32 -30 -44 -68t-4 -62.5t26 -23.5q14 106 22 154z" />
<glyph unicode="'" horiz-adv-x="151" d="M194 590q-18 -73 -46 -135.5t-47 -65.5t-16 44q-21 -43 -35 -39q-8 4 -9 29q-1 52 16 136q19 89 44 136q10 19 23.5 28t23.5 0t10 -37q39 81 44 10q3 -55 -8 -106z" />
<glyph unicode="(" horiz-adv-x="328" d="M270 596q-32 -56 -57.5 -142t-30.5 -129q-14 -114 17 -320q10 -79 3 -92q-3 -6 -9 -3t-12.5 10t-11 13.5t-9.5 18.5l-7.5 18t-6.5 18.5t-5 14.5q0 -2 2 -11.5t4 -20t3 -22t0.5 -19.5t-4.5 -9q-18 -7 -43.5 78.5t-32.5 128.5q-22 135 0 261q23 129 91 238q16 25 72 87.5 t66 45.5q4 -8 -10.5 -33.5t-36.5 -56t-23 -31.5q17 23 75 77.5t69 37.5q2 -2 2 -3q1 -8 -7.5 -20t-22 -27t-15.5 -17q-39 -55 -60 -91z" />
<glyph unicode=")" horiz-adv-x="362" d="M80 89q32 56 57.5 142t30.5 129q14 114 -17 320q-10 79 -3 92q3 6 9 3t12.5 -10t11 -13.5t9.5 -18.5l7.5 -18t6.5 -18.5t5 -14.5q0 2 -2 11.5t-4 20t-3 22t-0.5 19.5t4.5 9q18 7 43.5 -78.5t32.5 -128.5q22 -135 0 -261q-23 -129 -91 -238q-16 -25 -72 -87.5t-66 -45.5 q-4 8 10.5 33.5t36.5 56t23 31.5q-17 -23 -75 -77.5t-69 -37.5q-2 2 -2 3q-1 8 7.5 20t22 27t15.5 17q39 55 60 91z" />
<glyph unicode="*" horiz-adv-x="380" d="M182 317q-5 -27 -32 -48q-17 2 -18 72q-3 -2 -15.5 -7.5t-18 -8t-19.5 -8t-20 -6t-19 -2.5t-18 2q-10 6 -10.5 14t12.5 21.5t21 20.5t14 12q-60 -16 -65 2q-1 5 3 13q5 9 13 18t20.5 18t19 13t23 14t18.5 11q-38 43 -43 75q-4 19 12 17q15 -2 45 -23q-34 50 -5 50 q22 0 55 -27q14 59 37 83q19 20 26 -25q1 -11 2 -26q21 62 37 32q13 -25 11 -70q63 24 92 20q28 -5 -21 -44l-2 -2q71 20 59 -7q-14 -30 -90 -85l-15 -10q38 -45 53 -81q12 -29 -16 -16q-10 5 -24 14q37 -55 8 -52q-28 4 -78 43l-3 2q-17 -57 -34 -62q-13 -4 -15 43z" />
<glyph unicode="+" horiz-adv-x="414" d="M249 461q5 1 7.5 -4.5t3.5 -15.5t1 -23t-1.5 -29.5t-3.5 -32.5t-5 -33q51 -4 87 -11q24 -5 32.5 -12.5t-0.5 -15.5t-36 -13q45 -8 52 -24q3 -7 -10.5 -13.5t-39.5 -10.5t-51 -7t-56 -5q-17 -72 -39 -108q-26 -45 -37 5q-4 17 -4 37q-16 -37 -33 -38q-15 0 -15 35 q1 29 8 66q-47 2 -85 13q-48 14 -7 35q17 9 39 14q-40 7 -45 24q-2 11 19 18q5 2 12 4q45 9 95 9q17 60 38 104q10 22 19.5 29t15 -4t4.5 -38q17 41 35 45z" />
<glyph unicode="," horiz-adv-x="240" d="M144 53q-18 -73 -46 -135.5t-47 -65.5t-16 44q-21 -43 -35 -39q-8 2 -9 29q-1 52 16 136q19 89 44 136q10 19 23.5 28t23.5 0t10 -37q39 81 44 10q3 -55 -8 -106z" />
<glyph unicode="-" horiz-adv-x="457" d="M386 247q8 -19 -84.5 -29t-139.5 -10q-94 0 -138 13q-48 14 -7 35q17 9 39 14q-40 7 -45 24q-2 11 19 18q5 2 12 4q52 11 146 9q96 -2 150 -13q24 -5 32.5 -12.5t-0.5 -15.5t-36 -13q45 -8 52 -24z" />
<glyph unicode="." horiz-adv-x="236" d="M103 172q11 21 27 27q15 4 20.5 -9.5t2.5 -37.5t-6.5 -39t-6.5 -26q-8 -25 -38 -64q-43 -55 -46 -1q-35 -55 -42 3q-4 35 2 67q9 53 31 84q14 18 32.5 19.5t23.5 -23.5z" />
<glyph unicode="/" horiz-adv-x="623" d="M58 -29q-26 -16 19 56q14 24 25 39q-22 -27 -43 -47t-35.5 -30.5t-26 -17t-17.5 -9t-7 -3.5q-5 9 37.5 71t107.5 145.5t105 133.5t63 78q137 162 223 247l14.5 14.5t17 16.5t16 13.5t18.5 11.5q22 10 -4 -44q-22 -44 -42 -73q7 7 24.5 26t28.5 30t27.5 25t31.5 22 q3 2 5.5 2.5t4 -0.5t2 -3t-0.5 -5q-7 -21 -48 -77q-64 -88 -225 -281q-160 -186 -246 -274q-55 -55 -75 -67zM-26 -43q0 1 -1 2q0 -1 1 -2z" />
<glyph unicode="0" horiz-adv-x="426" d="M14 484q26 92 89.5 160.5t135.5 75.5q77 7 122.5 -31.5t56 -102t3 -139.5t-27 -142t-43.5 -111q-13 -23 -28.5 -46t-36.5 -48.5t-45 -44t-49.5 -30t-54.5 -9.5t-56 20q-13 9 -32.5 37.5t-28.5 58t12 42.5q6 2 27 -24q-15 18 -34 68t-22 64q-19 97 12 202zM73 144 q-6 -6 -15 6q6 -8 16.5 -22.5t17 -23.5t10.5 -11q-4 4 -11.5 18.5t-11.5 29t5 18.5q7 2 16 -10t21 -23t25 -6q45 18 91 103q89 162 70 298q-8 56 -35.5 70.5t-59.5 -6t-57 -61.5q-48 -77 -53 -176q0 -2 1 -17.5t1.5 -33.5t0.5 -37t-1.5 -31.5t-4.5 -13.5q-21 -3 -33.5 50 t-12.5 81q-3 -69 8 -129q0 -3 6 -22.5t8 -30.5t-2 -20z" />
<glyph unicode="1" horiz-adv-x="300" d="M238 725q7 -12 -33 -72q5 5 15 12.5t13 10.5q15 52 27 53q7 0 7 -32q9 3 7 -5t-8 -14q-9 -206 -71 -465q-1 -4 -9 -38t-11.5 -45.5t-11 -37.5t-15.5 -44t-17 -35q-24 -43 -27 27q-2 33 1 66q-19 -76 -32 -74q-9 1 -10 32.5t5.5 80.5t15 101.5t19 107t17 85.5t9.5 46 q-53 -64 -101 -97q-16 -11 -28 -7.5t-5 25.5q-31 -28 -36 -21l-4 4q-15 9 53.5 97.5t146 169t83.5 69.5z" />
<glyph unicode="2" horiz-adv-x="433" d="M14 501q10 34 36 76.5t37 53.5q30 32 79.5 54.5t101 29.5t96.5 -16t62 -76q13 -34 10.5 -73.5t-11.5 -76t-28 -76.5t-39.5 -75t-47 -70.5t-49.5 -62.5t-47 -53q10 2 37 7.5t44 8.5t41 6.5t44.5 3t36.5 -4.5q9 -2 -3.5 -10.5t-41.5 -20.5t-40.5 -16.5t-26.5 -10.5 q1 0 13 2q176 23 171 6q-7 -26 -105.5 -53.5t-195.5 -43t-151 -19.5q-1 0 -11.5 -1t-18.5 -1.5t-18.5 -0.5t-17 3t-9.5 8q-3 6 9.5 16t30.5 20.5t20 11.5l-4 -1h-7.5h-10t-9.5 0.5t-7.5 2t-4.5 3.5q-1 5 18 23.5t43.5 38.5t25.5 21q54 51 113 133q125 177 135 289 q2 29 -11 36t-44 4q-74 -9 -123 -75q-1 -1 -16 -27t-29.5 -47t-19.5 -19q-19 9 -1.5 57t33.5 74q-34 -43 -63 -108q-1 -3 -6.5 -20.5t-11 -28.5t-12.5 -17v-1h-3l-1 1q-18 23 8 115z" />
<glyph unicode="3" horiz-adv-x="403" d="M287 368q59 -41 78.5 -98.5t5 -110t-46 -96.5t-70.5 -66q-99 -56 -194 -25q-16 4 -64 41q-55 42 -36 51q5 2 21 -6.5t33 -19.5t21 -12q32 -12 60 -13q-50 9 -83 44q-14 16 -29.5 44t-3.5 36q1 1 19.5 -12.5t38.5 -29t24 -17.5q47 -17 101 3q51 20 81.5 63.5t8.5 90.5 q-41 88 -171 73q-51 -7 -46 10t48 38l25 9l-4 2q-3 0 -21.5 -3t-30 -4t-17.5 3q-8 15 36 28q56 16 101 17q24 13 45 27.5t46.5 36.5t35.5 48t-1 51q-12 28 -47 36.5t-67 3t-60 -16.5q-51 -17 -62 -17q-26 -1 -8 29l-12 -8q-11 -7 -20 -11t-12 0l-4 6q-20 13 17 48 q54 49 139 66l5 1q56 10 110.5 -3t90.5 -52q43 -48 38 -103t-38 -103.5t-81 -78.5z" />
<glyph unicode="4" horiz-adv-x="361" d="M-39 222q-15 7 29 199q30 154 67 233q14 37 38 62q25 27 30 -17q9 22 16.5 32.5t11.5 8.5l8 -3q17 -1 -23 -173.5t-56 -218.5q51 29 147 65q21 103 43 158q13 36 32 49q17 12 23 -20l1 -3q16 47 26 44l7 -3q5 -5 4.5 -28.5t-6.5 -71.5t-13 -94.5t-15 -97t-13.5 -79.5 t-7.5 -42q-31 -151 -55 -219q-24 -69 -34 -28q-8 29 -3 75q-1 -1 -5 -12.5t-9 -23.5t-11 -25t-12.5 -20t-11.5 -5q-26 11 40 341q-89 -54 -167 -66q-23 -49 -31 -12q-3 16 -1 39q-9 -3 -15 -3q-11 -22 -20 -32.5t-14 -8.5z" />
<glyph unicode="5" horiz-adv-x="424" d="M9 -6q-19 2 -36 10q-6 5 -5 7l1 7q0 -2 49 12t102 30.5t62 22.5q110 62 145 149q6 22 7.5 38t-9 27.5t-22 18.5t-32 11t-38 6t-40.5 1.5t-39 -1t-34.5 -1.5t-26.5 -1q-8 -22 -21.5 -32t-22.5 17q-4 -12 -7.5 -20.5t-7 -12.5t-5.5 -4l-6 2q-17 0 3 129.5t31 167.5 q-9 4 -8.5 10.5t5 11t10.5 8.5q-40 -2 -42 7v6q-2 6 33.5 18t36.5 10q149 39 245 49q5 1 26 4t35.5 5t32 0.5t25.5 -8.5q7 -5 -9.5 -14t-38.5 -17l-21 -8q5 3 43 1t38 -13q0 -10 -155 -46q-116 -28 -178 -29q-10 -130 -15 -157q65 22 134.5 12.5t117 -45t63.5 -93 t-27 -133.5q-69 -120 -208 -177q-87 -36 -154 -31q-33 3 -52 18q-17 15 15 27z" />
<glyph unicode="6" horiz-adv-x="422" d="M62 14q-29 32 -47 77t-23 93t-4.5 89t5.5 79q6 46 18 92t35 95t52.5 86t73 60.5t93.5 22.5q57 -1 100.5 -37t56.5 -91q9 -38 -5 -36q-12 2 -60 55q-12 13 -16 16q10 -13 22.5 -37.5t1.5 -30.5q-4 -2 -16 8.5t-24.5 23t-14.5 13.5q-34 23 -71 6q-61 -29 -97 -125 q-30 -77 -36 -163t17 -165q18 -53 60 -65.5t78 40.5q19 32 20.5 71.5t-15.5 72.5q-3 5 -25 25t-42 37l-20 18q8 27 58.5 0.5t63.5 -43.5q-31 47 -85 69q-5 2 -28 6t-42 9.5t-21 11.5q-7 20 83 12l41 -5q46 -14 80.5 -49t50.5 -83q16 -55 12 -110.5t-34.5 -106t-80.5 -75.5 q-52 -27 -113.5 -18t-101.5 52z" />
<glyph unicode="7" horiz-adv-x="361" d="M-8 -36l-7 5h1q-17 5 117.5 283t174.5 348q-118 -29 -183 -28q-63 0 -72 15q-6 9 15 21q-40 -2 -42 7v6q-4 10 89.5 33t146.5 33q64 11 138 16q57 2 60 -10q2 -6 -21 -16q-1 -1 -2 -1q4 -1 3 -7.5t-3 -8.5q1 0 7 -0.5t12 -1.5t11 -3.5t5 -6.5q0 -2 -11.5 -6t-22.5 -7 l-10 -3q-53 -144 -175 -387q-59 -119 -102 -189q-19 -33 -53 -66q-42 -41 -39 3v6q-28 -39 -37 -35z" />
<glyph unicode="8" horiz-adv-x="466" d="M165 -25h-3q-60 -7 -101 13.5t-58.5 57.5t-20 85t11 95.5t40 90.5t60.5 68q-20 45 -16 100.5t28 103t63 86t88 50t104 -4.5q77 -27 101 -103.5t-4.5 -154t-91.5 -115.5q44 -79 28.5 -167t-75.5 -155q-52 -59 -131 -79q-43 -12 -47 3q-2 9 22 25q1 0 2 1zM134 15 q15 -3 27 -3q33 0 74 12q6 4 17 15q-44 -6 -17 47q3 6 9 16q2 4 3 5q35 44 28.5 135.5t-85.5 62.5q8 -8 13 -22q-4 -2 -6.5 -2.5t-10.5 4t-10.5 6.5t-6.5 4q-36 -22 -59.5 -63t-26.5 -84q-1 -34 16 -54.5t50 -25.5q6 -2 34 -0.5t29 7.5q12 -23 -20.5 -41t-57.5 -19zM330 616 q-34 16 -66 -0.5t-51 -50t-30 -68.5t-9 -57l3 -16q59 14 111 -8q32 10 57.5 51t23.5 86t-39 63z" />
<glyph unicode="9" horiz-adv-x="461" d="M383 157q-25 -56 -73.5 -101.5t-102 -66t-106.5 -3.5t-83 78q-9 18 -14 58q-4 31 9 24l3 -3q12 -10 32.5 -36.5t34.5 -37.5q-10 12 -22.5 37.5t-1.5 30.5q4 2 16 -8.5t24.5 -23t14.5 -13.5q33 -22 71 -5q61 27 97 124q30 77 36 163t-17 166q-18 52 -60 65t-78 -40 q-19 -32 -20.5 -72t15.5 -73q3 -5 25 -25t42 -37l20 -17q-8 -20 -35 -11t-54 27.5t-33 26.5q32 -49 85 -70q5 -2 28 -6t42 -9.5t21 -11.5q3 -10 -33 -13.5t-53 -1.5q-70 8 -120 58q-46 48 -58.5 119.5t11.5 133.5q17 48 54.5 83t82.5 50t94 4t85 -50q55 -59 71 -156.5 t0.5 -189t-50.5 -167.5z" />
<glyph unicode=":" horiz-adv-x="253" d="M103 172q11 21 27 27q15 4 20.5 -9.5t2.5 -37.5t-6.5 -39t-6.5 -26q-8 -25 -38 -64q-43 -55 -46 -1q-35 -55 -42 3q-4 35 2 67q9 53 31 84q14 18 32.5 19.5t23.5 -23.5zM146 356q-11 -21 -27 -27q-15 -4 -20.5 9.5t-2.5 37.5t6.5 39t6.5 26q8 25 38 64q43 55 46 1 q35 55 42 -3q4 -35 -2 -67q-9 -53 -31 -84q-14 -18 -32.5 -19.5t-23.5 23.5z" />
<glyph unicode=";" horiz-adv-x="242" d="M146 356q-11 -21 -27 -27q-15 -4 -20.5 9.5t-2.5 37.5t6.5 39t6.5 26q8 25 38 64q43 55 46 1q35 55 42 -3q4 -35 -2 -67q-9 -53 -31 -84q-14 -18 -32.5 -19.5t-23.5 23.5zM144 53q-18 -73 -46 -135.5t-47 -65.5t-16 44q-21 -43 -35 -39q-8 2 -9 29q-1 52 16 136 q19 89 44 136q10 19 23.5 28t23.5 0t10 -37q39 81 44 10q3 -55 -8 -106z" />
<glyph unicode="&#x3c;" horiz-adv-x="423" d="M26 289q-37 -11 -30 11q8 24 39 52q-4 6 15.5 19.5t54 32.5t36.5 20q67 39 124 63q38 18 93 26q48 7 36 -14q-5 -9 -20 -22q53 12 48 -9q-6 -19 -46 -53q-88 -71 -190 -123q88 -73 143 -145q27 -37 26 -60q0 -21 -38 0q34 -57 -7 -45q-43 12 -119 69q-2 1 -24.5 18 t-30 23t-27.5 23t-29.5 27.5t-23 26t-20.5 30.5t-10 30z" />
<glyph unicode="=" horiz-adv-x="457" d="M392 196q8 -19 -84.5 -29t-139.5 -10q-94 0 -138 13q-48 14 -7 35q17 9 39 14q-40 7 -45 24q-2 11 19 18q5 2 12 4q52 11 146 9q96 -2 150 -13q24 -5 32.5 -12.5t-0.5 -15.5t-36 -13q45 -8 52 -24zM32 379q-8 19 84.5 29t139.5 10q94 0 138 -13q48 -14 7 -35 q-18 -9 -39 -14q40 -7 45 -24q2 -11 -19 -18q-5 -2 -12 -4q-52 -11 -146 -9q-96 2 -150 13q-24 5 -32.5 12.5t0.5 15.5t36 13q-45 8 -52 24z" />
<glyph unicode="&#x3e;" horiz-adv-x="441" d="M396 272q37 11 30 -11q-8 -24 -39 -52q4 -6 -15.5 -19.5t-54 -32.5t-36.5 -20q-67 -39 -124 -63q-38 -18 -93 -26q-48 -7 -36 14q5 9 20 22q-53 -12 -48 9q5 19 46 53q88 71 190 123q-88 73 -143 145q-27 37 -26 60q0 21 38 0q-34 57 7 45q43 -12 119 -69q2 -1 24.5 -18 t30 -23t27.5 -23t29.5 -27.5t23 -26t20.5 -30.5t10 -30z" />
<glyph unicode="?" horiz-adv-x="453" d="M282 787q80 -5 130.5 -52t60.5 -109t-13.5 -128t-78.5 -107q-5 -3 -35 -21.5t-40 -25t-32.5 -21.5t-38.5 -28t-31 -27q-39 -39 -50 -42q-9 -2 -10 9q-2 41 42 94q-1 -1 -17 -17.5t-29.5 -28.5t-17.5 -10q-16 9 7 40.5t63.5 68t73 63.5t42.5 34q41 29 52 71.5t-20 84.5 q-20 25 -56.5 33t-72 1.5t-62.5 -23.5q-8 -5 -22 -26.5t-24.5 -36.5t-14.5 -9q-14 28 -6 57.5t31 49.5q-48 -35 -53 -97q0 -5 2.5 -26.5t3.5 -35t-4 -22.5q-10 -8 -26 33l-14 46q-11 68 31 121q36 47 99 68.5t130 18.5zM68 -17q-5 -21 -34 -32h4q-1 0 -2.5 -0.5t-2.5 -0.5 h-1q-35 -2 -10 78q22 74 55 113q21 24 26 1q32 61 47 21q11 -30 4 -70q-3 -21 -32 -76q-40 -75 -54 -34z" />
<glyph unicode="@" horiz-adv-x="657" d="M5 65q-13 58 -7.5 122.5t21 127t48 121t73.5 103.5t98 75t121 36q79 7 139 -20.5t92.5 -78t46.5 -115t6 -133.5t-34 -131q-53 -126 -138 -125q-34 1 -55.5 16t-29.5 42t-10.5 53t-4 59.5t-5.5 51.5q-15 69 -28 79q-14 11 -31 -20q-49 -85 -46 -163q-5 -20 1 -26t15 -2.5 t26 12.5l10.5 6t9.5 4.5t9.5 3.5t7 1t6.5 -2q23 -12 -30 -55q-29 -22 -43 -26q5 0 25.5 8.5t39.5 15t21 4.5q15 -16 -33.5 -41.5t-66.5 -25.5q-19 0 -35 6q-51 19 -66 74.5t-5 116.5q7 49 23.5 95.5t49.5 90.5t76 59q62 23 103 -22t54 -113q1 1 4 8.5t6 14.5t7 14.5 t8.5 11.5t8.5 3q4 -10 0 -56t-9.5 -107t-4.5 -69q26 34 40.5 90.5t13.5 113.5t-29 102.5t-81 53.5q-92 15 -164.5 -44.5t-110.5 -153.5q-12 -29 -23.5 -81t-17.5 -113t13 -106t64 -47q25 -1 49 4t55 15.5t46 14.5q16 1 15 -10t-10 -23q-22 -29 -64 -48l23 9q22 9 40 15t21 3 q12 -15 -38.5 -42t-69.5 -31q-38 -11 -79 -9q-68 4 -111 57t-56 126z" />
<glyph unicode="A" horiz-adv-x="521" d="M408 748q21 28 27 21q6 -10 -17 -66q50 -232 74 -539q12 -139 6 -183q-6 -45 -30 29l-20 77q2 -100 -2 -137q-2 -26 -10 -25q-4 0 -8 9q-12 26 -21.5 62t-13.5 58t-10.5 71t-8.5 60q-85 3 -212 24q-142 -242 -157 -232l-6 3q-4 1 4.5 24t27.5 64q-28 -39 -54 -57t-17 21 q1 3 2 7q15 58 86 192l-4 1l-8 2l-10 2.5t-12 3.5t-12.5 4t-11.5 4t-9 4t-6 4t-1 4q3 6 12 10.5t22.5 5.5t23.5 1.5t25 0t16 -0.5v1q-42 11 -33 19q8 7 49 8q121 219 231 374q0 7 -2 36.5t-2.5 45t2.5 38t10 37.5q12 25 32 -31l16 -53q0 47 10 47q3 0 6.5 -4.5t6 -11.5 t4.5 -14t3.5 -13.5t1.5 -7.5zM360 279l-29 240q-51 -100 -117 -218q97 -7 146 -22z" />
<glyph unicode="B" horiz-adv-x="507" d="M-3 592q-10 12 85 70q30 18 64 33q4 13 16 17q0 -1 5 -8l24 10q0 1 3 7.5t6 12.5t7.5 11.5t8.5 4.5q10 -10 8 -26q42 13 86.5 15t87 -7.5t68.5 -42.5t25 -86q0 -63 -36.5 -125.5t-90.5 -113.5q60 -14 88.5 -55t26 -91t-22.5 -100.5t-53 -88.5q-82 -95 -209 -142 q-69 -26 -118 -26q-25 1 -35.5 11t12.5 27h-4.5t-7.5 -0.5t-8.5 -0.5t-9 0.5t-8 1.5t-5.5 3t-2 4v7q0 2 45.5 21.5t95.5 41t56 25.5q105 61 152 143q15 27 19.5 53.5t-8 49t-45.5 28.5q-18 5 -45 2t-43.5 -7t-43 -11.5t-43.5 -10.5q-2 -8 -8.5 -33.5t-9 -36.5t-9 -33 t-12 -35.5t-13.5 -31.5t-17 -32q-26 -43 -32 5q-2 16 -1 34q-25 -74 -42 -85q-9 -6 -12 15q-5 39 10 134q33 203 98 422q-15 -9 -30 -1q-4 14 43 41l6 16q-3 -1 -34 -14t-56.5 -20.5t-31.5 -1.5zM174 364q73 40 135.5 108t62.5 135q-1 46 -156 0q-14 -110 -42 -243z" />
<glyph unicode="C" horiz-adv-x="471" d="M466 672q39 54 37 9q-3 -54 -40 -155l-7 -18q-31 -78 -57 -122q-39 -56 -41 -16q-39 -56 -37 2q1 7 12 91q1 5 1 7q0 1 2.5 41.5t-0.5 65t-14 37.5q-51 61 -115 -43t-83 -179q-7 -25 -13.5 -69.5t-10 -102t12 -97t50.5 -36.5q19 1 37.5 9.5t31.5 17t31 28t25 27.5 t25.5 33.5t21.5 28.5q46 64 56 54q18 -17 -21 -90q1 1 8.5 10.5t16.5 20t18.5 20.5t17.5 15.5t12 2.5q18 -20 -29 -90.5t-81 -105.5q-83 -88 -178 -91q-46 0 -80 24t-51.5 63.5t-26 80t-8.5 83.5q-1 66 10 135.5t35 138t68 125.5t101 87q40 21 83 23.5t80.5 -19.5t53.5 -67 q21 36 36 40q7 2 9 -10z" />
<glyph unicode="D" horiz-adv-x="529" d="M496 396q7 -95 -27.5 -186t-95.5 -157.5t-144.5 -108.5t-172.5 -45q-4 0 -16 1t-29 3t-28 6.5t-9 10.5q5 11 82 26q-1 0 -2.5 0.5t-2.5 1.5q-9 0 -25.5 1.5t-38.5 5.5t-36.5 12t-12.5 19q1 2 7 3.5t15 1.5h17t15.5 -0.5t8.5 -0.5q-9 66 28.5 279.5t76.5 346.5 q-9 -2 -20 -4t-30.5 -4.5t-29 1t-3.5 12.5q20 31 89 54q-1 0 -12 -2.5t-21 -4.5t-22 -4t-20 -2t-9 3q-5 10 14.5 21t48 19t52.5 13.5t31 5.5q110 10 195 -54q114 -87 127 -274zM196 622q7 -52 -36.5 -271.5t-72.5 -342.5q111 35 194 125.5t95 201.5q7 66 -8.5 127.5t-60 108 t-111.5 51.5zM153 597q8 20 8 25h-7q0 -4 -0.5 -12t-0.5 -13zM119 -42q-1 0 -7 -2q6 2 7 2z" />
<glyph unicode="E" horiz-adv-x="478" d="M569 683q-2 -31 -108.5 -56t-223.5 -32q0 -78 -20 -200q6 1 25 4.5t28 5t27 3.5t29.5 2t26 -1t26.5 -4q19 -5 -11.5 -22.5t-54.5 -27.5q19 0 25.5 -3.5t1 -9.5t-21.5 -13q-53 -23 -123 -38q-30 -122 -64 -179q185 44 283 53q56 6 64 -8t-52 -36q60 0 65 -12q2 -6 -19 -14 l-2 -1q-39 -14 -119 -36q-4 -1 -30.5 -8.5t-32.5 -9t-30.5 -8t-33 -8t-30.5 -7t-33.5 -7t-31 -5t-33.5 -4.5t-31 -2.5t-33 -1.5q-9 -21 -18.5 -30t-15.5 -1t-5 34q-15 6 -14 16t13 19q-40 0 -40 9l1 7q-2 7 48 24q13 85 48 237q-25 8 -17 21t28 22q33 136 65 242 q-29 6 -27 15q1 3 9.5 6.5t17.5 5.5l9 3q1 1 1 4q-45 -1 -41 13q5 16 54 34q2 1 3 1q1 3 5.5 14.5t11 27t12.5 26t8 8.5q4 -3 5 -13t0 -19t-3 -20.5t-2 -12.5q114 32 249.5 49t138.5 -3l-1 -7q0 -9 -52 -25q23 -1 35 -6t11 -15z" />
<glyph unicode="F" horiz-adv-x="478" d="M474 704q1 -5 -5 -10t-18 -10q10 4 68 1t56 -22q-1 -5 -4.5 -9t-8 -6.5t-12 -5.5t-12 -4.5t-12 -3.5t-8.5 -2q-102 -28 -304 -42q-16 -87 -47 -229q84 15 143.5 18.5t65.5 -8.5v-6q0 -2 -5 -5.5t-14.5 -7.5t-23.5 -9q27 -1 35.5 -10.5t-1 -21t-31.5 -19.5 q-66 -26 -195 -38q-42 -171 -77 -256q-18 -43 -31 -40q-16 4 -9 61q-28 -11 -29 55q0 77 22 176q-1 0 -8 0.5t-13.5 1.5t-13.5 2.5t-11.5 4.5t-4.5 7q0 7 41 17q-51 -3 -47 10q6 17 63 36l12 4q36 148 69 254h-6.5t-11.5 0.5t-15 1t-14 1.5t-11 3t-3 5q5 20 75 37q0 3 2 9 q-18 -4 -24 9q13 11 32 16l16 53q16 -3 24 -42l29 7l3 7q3 8 7 16.5t8 17.5t8 14t6 3q3 -3 4 -10.5t0 -14t-2.5 -16t-1.5 -10.5q42 9 84.5 15t79 8.5t59 -0.5t22.5 -13z" />
<glyph unicode="G" horiz-adv-x="509" d="M544 729q6 0 6 -14.5t-4.5 -38t-11 -48.5t-14.5 -51t-12.5 -40.5t-6.5 -21.5q-30 -82 -53 -119q-25 -41 -33 -9q-4 18 1 44q-42 -69 -41 11q0 15 3 46q1 17 1 22q2 124 -74 138q-48 10 -88 -28t-63.5 -101.5t-36.5 -118t-17 -95.5q-2 -33 -0.5 -70t13.5 -67t30 -48.5 t49 -15t71 32.5q51 36 65 74q25 65 42 91q33 51 36 -5q1 -25 -3 -51q24 57 40 54q15 -3 7 -58q-11 -71 -50 -197q-39 -121 -70 -184q-30 -60 -34 -17q-3 25 5 66q-21 -52 -40 -70q-13 -13 -14 13q-1 16 0 33t4.5 36.5t6 31.5t8 36t7.5 32q-63 -35 -135 -20.5t-111 76.5 q-84 135 -15 377q68 240 213 294q60 23 123.5 1t97.5 -77q28 58 50 70q17 9 13 -35q-1 -9 -3 -21q23 42 38 42z" />
<glyph unicode="H" horiz-adv-x="478" d="M-6 320q2 7 16 13q-54 1 -48 16q6 18 62 36q6 2 11 3q35 198 68 287q23 64 36 26q9 -26 6 -70q21 73 37 86q12 9 12 -33q1 -84 -33 -271q86 14 171 20q34 182 58 256q16 49 34 58q13 6 15 -25q1 -9 1 -22q20 84 36 95q9 -3 10 -42q0 -99 -40 -318l6 -1q7 -1 13.5 -2 t11.5 -4t4 -7q-1 -9 -41 -19l-3 -19q11 -4 -2 -10q-43 -219 -76 -319q-1 -2 -4.5 -13.5t-6.5 -19.5t-8 -16.5t-11 -9.5q-8 -2 -8.5 29.5t1.5 42.5q-6 -16 -19 -43t-18 -21q-6 8 -2 57q7 115 34 280q-87 -18 -175 -27q-39 -198 -73 -288q-26 -67 -35 -22q-6 31 0 76 q-1 -2 -5.5 -20.5t-9.5 -35.5t-12.5 -32t-13.5 -15q-14 0 2.5 140.5t26.5 191.5q-15 2 -22 4.5t-6 7.5z" />
<glyph unicode="I" horiz-adv-x="407" d="M-37 34q0 1 35 15q-38 -1 -42 11q-3 8 16 18q3 1 5 2q40 18 133 37q25 251 76 476q-2 0 -17.5 -2t-26 -2.5t-24.5 -0.5t-24.5 3t-15.5 9q-6 6 3 13t25.5 12.5t28 8.5t18.5 5q-60 7 -58 21q1 12 116 31q16 50 31 53q13 2 12 -45q115 20 168 11q18 -3 24 -12t-1 -19 t-23 -16q23 -3 23 -11l-1 -6q3 -16 -153 -41q13 -108 -77 -472q100 12 101 -4v-6q0 -7 -37 -20q26 -1 33 -14.5t-18 -27.5q-32 -17 -105 -30l-2 -9q-7 2 -11 7q-26 -5 -50 -6q-11 -30 -17 -28q-4 11 -4 26q-142 -11 -141 13z" />
<glyph unicode="J" horiz-adv-x="436" d="M16 -3q-34 32 -44.5 81.5t-2 96t28.5 90.5q7 20 32 50q25 32 28 7q2 -16 0 -35t-7 -41.5t-6 -34.5q2 6 6 17.5t10 26t13.5 23.5t13.5 7q5 -9 3 -40t-5.5 -74.5t-2.5 -50.5q7 -33 37.5 -40t55.5 15q26 21 47.5 55.5t34 65.5t23.5 84t15 79.5t11.5 84t8.5 67.5 q-153 -20 -232 -12q-52 6 16 36l45 17q-45 1 -35 13q9 12 53 25q89 26 171 34q7 47 19 44q8 -2 14 -42q14 0 20 -1q1 3 2.5 21.5t4 34t7.5 30t12 16.5q4 1 7 -5.5t5 -17.5t4 -24.5t3 -28.5t1.5 -26.5t1 -21.5t0.5 -12q38 -1 50 -11t-2.5 -23.5t-47.5 -22.5q-6 -269 -84 -436 q-30 -64 -85 -111t-121.5 -57.5t-128.5 47.5z" />
<glyph unicode="K" horiz-adv-x="462" d="M219 345q46 -47 167.5 -156.5t164.5 -158.5q-17 -22 -97 23q11 -11 48 -55t32 -45q-22 -8 -84 33.5t-120 93.5t-119.5 109.5t-67.5 62.5q-1 -3 -5 -25.5t-9 -47.5t-12 -58t-15 -62.5t-16 -55t-16.5 -40.5t-16.5 -15q-4 0 -5.5 15.5t0.5 43.5t4 52t6.5 57.5t5.5 42.5t3 24 q-1 -2 -4 -16.5t-7 -30.5t-9.5 -36.5t-11.5 -38.5t-12.5 -33.5t-13.5 -24t-14 -7.5q-14 2 -8 56q4 102 44 293q39 198 76 320q16 58 28 72q7 7 9 -35q3 -52 0 -98q9 42 32 86q22 43 29 6q4 -20 4.5 -41.5t-2 -47t-5.5 -42.5t-8 -47t-7 -41q14 13 68 66t79 76t69 60t83 63 q65 39 55 11q-5 -14 -17 -30.5t-21.5 -26.5t-28.5 -28t-24 -23q38 7 17 -34q-20 -39 -92 -116q-96 -100 -156 -150z" />
<glyph unicode="L" horiz-adv-x="342" d="M420 135q1 -4 -20 -10.5t-59 -16.5q51 3 39 -11q-12 -12 -55 -25q-85 -28 -214 -53q0 -1 -2.5 -14.5t-5.5 -25.5t-7 -26.5t-9.5 -23t-11.5 -9.5q-12 -1 -12 90l-19 -3l-1 -4q-1 -4 -2.5 -8t-3.5 -9.5t-4 -9.5t-4.5 -7t-4.5 -3q-9 0 -9 37q-58 -7 -76 6q-13 9 24 24 q7 3 16 6q-16 -4 -52 -1q-20 2 -15 8q1 1 4 3q23 14 101 33q12 217 57 479q21 123 39 172q20 56 24 -16q1 -27 0 -50q31 123 46 89q2 -3 3 -7q5 -17 6.5 -39t1.5 -35t-2 -42.5t-2 -35.5q-13 -231 -61 -490q71 14 135 23t109 11.5t47 -6.5z" />
<glyph unicode="M" horiz-adv-x="570" d="M29 -19q-12 33 12 117l-21 -47q-47 -107 -50 -107q-6 10 -7 28.5t3 40t9 40.5t10.5 40t7.5 29q54 265 122 453q-2 11 -7.5 42t-7 44.5t-3.5 44.5t3 42q3 16 21 -23l27 -72q0 2 1 3q-1 6 -3 46.5t-2 74t3 36.5q12 -8 22.5 -31.5t15.5 -46t10.5 -52.5t7.5 -37q7 9 11 -33 q1 -5 1 -14q1 -7 1 -8q12 -47 21 -93q25 -118 40 -213q103 207 187 342q4 6 17 28.5t21.5 35.5t22.5 28t28 21q24 9 -12 -84q-2 -5 -4 -11q1 1 4 6t6 9.5l7 10.5t8 11t8 9t8 6t6 1q9 -4 -20 -206q-16 -116 -46 -255q-34 -156 -63 -236q-27 -72 -37 -35q-8 29 -2 81l-2 -9 q-3 -9 -6 -17.5t-6.5 -18.5t-7.5 -16t-8 -5q-7 1 -8 26.5t4.5 66t12 82.5t15.5 87.5t13.5 68.5t7.5 37q-75 -145 -135 -239q2 -31 -7 -48q-7 -12 -19 9q-26 -40 -35 -33q-9 8 5 36q-5 0 -11 14q-24 -35 -49 -59q-14 -14 -13 -3q1 14 6.5 30.5t10 28t13.5 31t12 26.5 q-24 83 -51 207q-50 -201 -93 -314q-4 -12 -18 -39t-18 -15zM537 644v1v-1z" />
<glyph unicode="N" horiz-adv-x="467" d="M28 -89q-20 0 -7 111l-1 -4q-1 -4 -2.5 -8.5t-3 -10.5t-3.5 -11.5t-4.5 -11.5t-4.5 -11t-4.5 -9t-5.5 -5.5t-5 -1.5q-6 1 -8 19.5t1 49.5t8.5 68t13 80t14.5 80t15 73.5t11.5 55.5t6.5 30q3 12 10 45t11 50.5t11.5 44.5t16 49t19.5 41q15 27 15 -35q0 -60 -5 -87l15 50 q-1 7 -4.5 34.5t-4.5 41.5t-0.5 35t4.5 37q6 21 23 -25q8 -22 11 -35l7 17q0 2 -1.5 20.5t-2 35t1.5 32.5t8 18q14 5 52.5 -202t54.5 -311q38 232 85 396q3 9 7 20t12.5 33t15 32.5t9.5 4.5q6 -12 6.5 -31t-1 -32.5t-5.5 -38t-5 -29.5q35 126 53 162q17 24 19 -20 q-1 -32 -3 -63t-8.5 -74.5t-9 -59.5t-12.5 -74t-11 -62q-38 -206 -74 -338q-2 -8 -9 -33.5t-11 -38t-12.5 -31.5t-18.5 -32q-1 -1 -4.5 -10t-8 -14t-8.5 -2q-14 9 -26 58q-3 -6 -7 -2q0 -36 -7 -38q-5 -1 -11.5 12t-13 37.5t-13 53.5t-13 66t-12.5 69.5t-11.5 69t-8.5 59.5 t-6.5 46t-3.5 24q-24 -145 -60 -283q-1 -3 -7 -30t-12 -49t-15 -49t-20 -42.5t-22 -16.5z" />
<glyph unicode="O" horiz-adv-x="466" d="M385 114q-59 -108 -164 -129.5t-170 63.5q-61 84 -64 215t44 253t124 189q43 37 92.5 42.5t93.5 -32.5q20 -20 40 -63t-1 -56q-5 -4 -22 13.5t-34.5 39t-21.5 23.5q24 -32 28 -52q0 1 1 2q8 10 36 -31.5t36 -59.5q27 -55 35 -125q20 -162 -53 -292zM351 552 q-19 45 -21 56l-4 -3q-7 -3 -30 21.5t-37 21.5q-19 -4 -38.5 -25t-27.5 -36t-21 -42q-29 -61 -46.5 -127.5t-17.5 -142t26 -132.5q24 -53 58.5 -45.5t63.5 39t45 69.5q40 96 29 207q0 2 -7.5 39.5t-10.5 61.5t1 34q11 3 23 -13t20.5 -41t14 -43t7.5 -28q-9 74 -27 129z" />
<glyph unicode="P" horiz-adv-x="468" d="M92 575q-2 -1 -18.5 -6t-33.5 -10t-36 -9.5t-32 -4.5t-16 6q-2 5 0.5 10t9 10.5t14.5 11t19 11l20 10t21 9.5t18.5 8t15.5 6l8 3q-55 14 16 53q21 11 35 16q3 11 13 14l6 -8q26 8 41 11q8 16 14 3q40 5 82.5 6t83.5 -12t72.5 -34t49 -58.5t14.5 -85.5q-9 -124 -122 -213 q-13 -11 -98 -51t-86 -29q-3 8 1.5 17t14 18t18 15.5t20 14.5t13.5 9q-75 -27 -113 -20q-32 -164 -61 -248q-9 -25 -18 -34.5t-15 1.5t-6 40q-15 -43 -35 -63q-17 -17 -21 19v4q-2 43 11 143q27 209 80 417zM159 308q12 6 27 12q202 91 207 220q-5 92 -188 61 q-13 -132 -46 -293zM186 320q-1 -1 -3 -1q1 0 3 1z" />
<glyph unicode="Q" horiz-adv-x="456" d="M456 477q1 -97 -35.5 -194.5t-91.5 -157.5l-8 -8q49 -96 65 -159q10 -34 1 -49q-8 -10 -26 7q12 -39 5 -42l-6 -2q-8 -6 -55.5 76t-62.5 114q-59 -25 -104 -13t-76.5 47t-50 84.5t-25.5 101t-2 96.5q7 59 34.5 126.5t73 125t104 69t127.5 -43.5q-18 46 -10 49 q14 7 32 -22t33 -65q-4 10 -13 32t-16.5 40t-14.5 37t-10 31t-1 15q9 13 48 -41.5t47 -73.5q36 -78 38 -180zM350 549l-26 31l-23 23q37 -56 23 -63q-3 -2 -18.5 11t-32 28t-20.5 17q-36 16 -72 -11q-49 -36 -77 -135q-4 -15 -7.5 -43.5t-5 -66t3 -73.5t14.5 -64.5t32 -41.5 t53 -2q-3 7 -16.5 35.5t-19.5 43t-13 38t-8 41.5q-2 33 57 -48q0 1 -2 6.5t-4 12t-4.5 15t-3.5 16t-2 14.5t0.5 11.5t4.5 5.5t8.5 -5t13 -17.5t15 -23.5t16 -27.5t14 -26t11.5 -21.5l6 -11q53 66 75 155.5t8 175.5zM386 596l-4 12zM325 579q-1 0 -1 1q0 -1 1 -1z" />
<glyph unicode="R" horiz-adv-x="496" d="M6 211q1 10 4 28q13 86 20.5 131.5t25.5 121.5t43 157q-13 -2 -45 -10t-54.5 -13t-54 -7.5t-44.5 6.5q-19 8 75 47l55 22q-63 22 55 61q20 7 45 13l2 1q245 47 345 -61q74 -86 33.5 -171t-129 -148t-169.5 -79q97 -125 156 -222q28 -48 46 -105q17 -53 -11 -40q-4 2 -9 6 q20 -41 11 -45l-6 -3q-11 -10 -120 141t-142 204q-28 -140 -54 -204q-21 -51 -30 -7q-5 20 -4 44q-15 -49 -37 -75q-22 -25 -24 24v4q-1 61 17 179zM203 662q-6 -96 -36 -268q216 73 235 197q0 29 -23 46.5t-55.5 21t-66 5t-54.5 -1.5zM159 658l-15 -2q0 -16 -4 -64 q2 7 9 31t10 35z" />
<glyph unicode="S" horiz-adv-x="433" d="M314 43q-35 -37 -86.5 -49t-98.5 -1.5t-85.5 39.5t-50.5 68q-8 35 -7.5 80.5t21.5 85t54 40.5q4 0 4.5 -6t-2 -15t-6 -17.5t-7 -16.5t-3.5 -10q-10 -44 0 -81q2 30 5.5 48t7.5 22t8.5 2.5t10 -15.5t10 -26.5t11.5 -34.5q9 -30 47.5 -41t58.5 4q34 23 36.5 56.5 t-19.5 68.5t-48.5 66t-54.5 60t-33 38q-31 54 -31 114.5t26 108t77 75.5t114 21q104 -12 145 -94q27 -55 15 -115q0 -2 -4 -17.5t-9.5 -30.5t-8.5 -14q-10 4 -15.5 22.5t-8.5 43.5t-5 30q-1 -27 -20 -63q-16 -32 -24 -8l-1 2q16 86 -38 111q-39 19 -80 -5q-45 -26 -35 -73 q8 -38 53 -76q53 -45 89.5 -113.5t40.5 -146t-53 -137.5z" />
<glyph unicode="T" horiz-adv-x="384" d="M55 104q26 238 85 470q-141 0 -186 10q-46 11 15 27q26 7 40 8q-81 10 -79 25q1 4 13 7.5t32.5 6t43 4.5t48 3.5t44.5 2.5t36.5 1.5t19.5 0.5q1 3 4.5 16.5t8 26t10 26t12.5 22t15 8.5q19 1 9 -97h3q18 62 29 60q5 -1 6 -15.5t0 -26.5t-2 -17q90 2 151 -8q34 -5 43 -20 q8 -10 -14 -20q-1 0 -2 -1q13 -2 22 -3.5t13.5 -4t4.5 -5.5v-6q1 -6 -29 -11t-79 -9t-73.5 -5.5t-46.5 -2.5q-29 -215 -80 -403q-6 -28 -23.5 -83.5t-28.5 -50.5q-6 3 -8.5 15.5t-1 31.5t3.5 35t5 33t3 19q-3 -9 -12.5 -53.5t-21 -75t-28.5 -46.5q-11 -9 -6 94q1 9 1 11z " />
<glyph unicode="U" horiz-adv-x="524" d="M482 658q23 75 34 74q23 -4 -9 -189t-54 -277q-1 -6 -11 -51t-14.5 -61.5t-15 -48t-22.5 -53.5q-15 -27 -15 35q0 60 5 87q-4 -14 -11 -41.5t-12.5 -46t-14.5 -42t-20 -40.5q-9 -13 -11 19q-2 44 2 80q-32 -40 -79 -67t-94 -33.5t-86.5 21.5t-52.5 91q-7 30 -8 64.5t2 64 t10.5 67t14 63t16.5 62.5q13 54 51 151q34 87 48 79q6 -4 6 -18t-4 -33.5t-8 -36.5t-9 -34t-6 -20q63 179 90 174q4 0 -16 -96.5t-43.5 -205t-25.5 -121.5q-20 -162 30 -155q24 5 61 44q68 73 111 176.5t78 236.5q2 8 10.5 44.5t13.5 53.5t16.5 43t24.5 43q19 24 21 -33 q1 -39 -3 -70z" />
<glyph unicode="V" horiz-adv-x="419" d="M444 755q22 12 0 -48q-9 -26 -17 -42q1 1 9.5 11t17.5 19t19 18t18.5 13t12.5 0q6 -6 -8 -37.5t-39.5 -75.5t-50.5 -85t-48.5 -77.5t-26.5 -41.5q-7 -11 -27.5 -45t-29.5 -48.5t-27.5 -44.5t-31 -48t-29.5 -43t-33.5 -46t-33.5 -41v-27.5t-1 -35.5t-4.5 -28.5 t-10.5 -28.5q-9 -15 -21 21q-12 38 -12 52q-2 0 -4 -2q0 -1 -1.5 -11t-3.5 -21t-5 -22.5t-7.5 -18.5t-9.5 -6q-3 1 -5.5 9.5t-4 21t-3 24t-2.5 22t-1 11.5q-14 -14 -19 -10l-6 5q-7 4 20 60q-17 193 -20 373q-2 104 3 174q5 45 21 73q16 27 32 -12q3 24 7 36.5t8 11.5h8 q15 3 27 -187.5t15 -291.5q115 191 214 335q6 9 22.5 34.5t27 40t28 33t33.5 27.5z" />
<glyph unicode="W" horiz-adv-x="608" d="M51 53q-6 -48 -16 -48l-7 1q-15 -3 -29.5 187.5t-14.5 252.5q-4 152 5 219q10 68 30 11q11 -29 16 -61q10 97 28 94q30 -5 41 -405q30 53 90 132q-1 16 -5 71.5t-5 83.5t2.5 71.5t13.5 75.5q11 36 30 -49q6 -30 15 -81q21 22 34 5t19 -45q61 76 143 166q24 -14 -15 -99 q10 12 50.5 52.5t42.5 35.5q4 -9 -5.5 -29.5t-22 -39t-28.5 -40.5t-18 -25q-68 -103 -130 -189q3 -104 2 -186q133 207 248 363q6 8 20.5 28.5t23 31.5t21.5 27.5t26 29.5t26 24q25 20 19 -10q-8 -35 -29 -73q5 6 13 14.5t22 22.5t26 20.5t17 1.5q6 -6 -8.5 -36.5t-42.5 -75 t-53.5 -83t-51.5 -77t-28 -40.5q-140 -216 -232 -325q-80 -80 -81 -36l-1 -9q-2 -8 -4 -13.5t-5 -4.5q-7 10 -9 24q-16 -13 -20 -9l-5 5q-7 3 17 49q-11 79 -20 189q-70 -89 -103 -123q-2 -41 -17 -78q-17 -41 -35 2z" />
<glyph unicode="X" horiz-adv-x="398" d="M413 821q35 4 -140 -353l-12 -24q62 -173 93 -290q11 -35 15 -98q3 -60 -17 -48q-7 4 -15 14q8 -50 -2 -51l-7 -1q-3 -2 -11 10t-18 34t-21 49.5t-23 59t-23 59.5t-20.5 55t-14.5 41.5t-8 22.5q-11 -22 -36.5 -72t-40.5 -78.5t-38 -69t-44 -72.5q0 -1 -6 -9t-12.5 -17 t-14 -18t-14 -13t-9.5 0q-5 5 -5 14.5t3 21.5t7 22t8.5 21t5.5 14q-4 -6 -11.5 -16.5t-19 -25t-22.5 -23t-17 -4.5q-5 4 0.5 23.5t18 47t24.5 53t24 49t13 26.5q69 151 135 280q-54 168 -61 231q-6 48 15 26q23 -23 43 -68q0 1 -2 13.5t-3.5 25t-2.5 26.5t1 23t8 10 q15 3 70 -154q48 92 95 169q23 33 49 52q30 21 27 -19v-4q28 40 36 35z" />
<glyph unicode="Y" horiz-adv-x="426" d="M54 70q11 68 43 202q-7 -3 -4 8q1 7 10 27q13 31 11 35q-59 202 -80 321q0 1 -1 8q-8 73 1 72q2 0 3 -1q10 -8 20 -25.5t14.5 -29.5t12 -37t8.5 -28q-23 116 -25 157q-2 29 6 29q5 0 13 -16q16 -29 30 -60.5t27 -70t21 -63.5t21.5 -72t18.5 -65q93 133 219 256l7 7t15 14 t18.5 15.5t18.5 13t15.5 7t8.5 -4.5t0.5 -15.5t-6 -18t-10 -18.5t-12 -18.5t-12 -16t-8.5 -11.5q1 1 7.5 8t14 14.5t16 15t16 11t10.5 0.5q13 -10 -23.5 -66.5t-96 -128.5t-103.5 -122t-64 -72q-39 -145 -72 -243q-3 -7 -11.5 -35t-14.5 -45.5t-18 -38t-25 -29.5 q-16 -10 -14 43q2 47 8 67q0 -1 -2 -6.5t-4.5 -11.5t-5.5 -14.5t-6.5 -15t-7 -12.5t-7 -9.5t-6.5 -2.5q-17 4 5 92z" />
<glyph unicode="Z" horiz-adv-x="454" d="M529 749q19 -8 -24 -25l-50 -16q2 0 13.5 -0.5l23 -1t24.5 -2.5t20.5 -5.5t7.5 -8.5q-1 -12 -88 -24q-112 -233 -344 -529q131 5 220 -12q57 -11 -2 -28q-29 -9 -52 -11q1 0 12.5 -1.5t23 -4t24 -5.5t20 -7.5t6.5 -9.5q-1 -4 -16.5 -8t-39.5 -6.5t-47 -4t-44 -3t-25 -1.5 q-121 -8 -181 5q-42 5 -67 20q-23 15 12 29q-14 2 -24 4.5t-15 5t-5 5.5l1 7q-1 5 20.5 9t63.5 8q127 231 343 514q-101 -19 -166 -14q-42 0 -69 13q-23 11 7 28q1 0 2 1q-46 2 -46 11v6q-4 13 124.5 35.5t172.5 26.5q4 0 29.5 3t37 4t32 1.5t36.5 -1.5t29 -7z" />
<glyph unicode="[" horiz-adv-x="415" d="M-3 -45q-12 0 -6 68q-24 3 -24 10v6q0 6 28 12q30 303 111 567q-39 5 -11 21l20 8l4 14q-8 0 -25.5 3.5t-16.5 11.5q0 4 24 9t30 5q15 35 28 34q9 -1 11 -26q126 29 196 18q47 -3 66 -17q16 -11 -12 -24q41 -2 41 -10v-7q3 -12 -112 -27.5t-147 -15.5q-26 -278 -106 -544 q108 17 211 10q62 -5 17 -25q-23 -10 -52 -16h8.5t15.5 -1t19 -2.5t17.5 -3t13.5 -5t5 -7.5t-14.5 -8.5t-37 -8.5t-43 -7.5t-40 -6.5t-22.5 -3q-105 -16 -177 0l-3 -6q-2 -6 -4.5 -11t-6 -10t-6.5 -5z" />
<glyph unicode="\" horiz-adv-x="356" d="M292 24q12 -32 18.5 -61t8 -47t1.5 -31.5t-1 -20.5t-1 -8q-20 3 -94.5 194.5t-110.5 295.5q-72 213 -96 318q-16 70 -14 86q3 29 48 -48q24 -40 28 -52q-3 10 -10 34.5t-11 39.5t-7 36.5t-2 38.5q2 15 11 6q15 -18 41 -81q40 -94 124 -337q80 -248 107 -353 q19 -74 19 -99q1 -27 -32 35q-18 34 -27 54zM320 -144h-2h2z" />
<glyph unicode="]" horiz-adv-x="410" d="M418 746q12 0 6 -68q24 -3 24 -10v-6q0 -6 -28 -12q-30 -303 -111 -567q39 -5 11 -21q-9 -5 -20 -8l-4 -14q8 0 25.5 -3.5t16.5 -11.5q0 -4 -24 -9t-30 -5q-15 -35 -28 -34q-9 1 -11 26q-126 -29 -196 -18q-47 3 -66 17q-16 11 12 24q-41 2 -41 10v7q-3 12 112 27.5 t147 15.5q26 278 106 544q-108 -17 -211 -10q-62 5 -17 25q23 10 52 16h-8.5t-15.5 1t-19 2.5t-17.5 3t-13.5 5t-5 7.5t14.5 8.5t37 8.5t43 7.5t40 6.5t22.5 3q105 16 177 0l2 6l5.5 11t6 10t6.5 5z" />
<glyph unicode="^" horiz-adv-x="495" d="M27 326q-15 5 13.5 75.5t78.5 146t87 89.5q-15 35 7 32q27 -5 56 -31q15 12 22 1t5 -28q26 -30 38 -46q40 -51 71 -104q22 -40 31 -85q9 -39 -13 -29q-8 3 -20 13q14 -46 -5.5 -46.5t-46.5 26.5q-65 59 -118 134q-61 -99 -115 -147q-14 -12 -27.5 -16.5t-20 2.5t1.5 32 q-28 -24 -45 -19z" />
<glyph unicode="_" horiz-adv-x="457" d="M431 -81q8 -19 -122.5 -30.5t-185.5 -11.5q-94 0 -138 13q-48 14 -7 35q17 9 39 14q-40 7 -45 24q-2 11 19 18q5 2 12 4q52 11 146 9q205 -4 234 -10q24 -5 32.5 -12.5t-0.5 -15.5t-36 -13q45 -8 52 -24z" />
<glyph unicode="`" horiz-adv-x="493" d="M454 583q-4 -6 -14 -7.5t-24.5 0.5t-31 6t-36.5 10.5t-37 12.5t-36.5 14t-32 13t-25.5 10.5t-15 6.5q-93 34 -143 66q-44 27 -24 38q16 8 58 -1q-47 27 -51 47t48 9q69 -14 177 -59q108 -44 172 -83q51 -31 34 -43q-14 -9 -62 2q25 -15 36 -25.5t7 -16.5z" />
<glyph unicode="a" d="M445 236q19 -4 22 -11q-4 -8 -17 -12q0 -2 4.5 -20.5t9 -40.5t10.5 -50.5t9.5 -54.5t6 -48.5t1 -36.5t-7.5 -15q-2 0 -6 6t-7.5 16t-7 19t-6.5 17t-3 9q12 -58 7 -84q-4 -19 -21 10q-1 1 -2 3q-9 16 -17.5 35.5t-14.5 34.5t-14.5 39.5t-12 36t-12.5 40t-11 36.5 q-95 -15 -190 -13q-9 -15 -30 -53.5t-34.5 -61t-35.5 -52t-43 -47.5t8 68q14 40 21 56q-48 -74 -82 -112q-27 -27 -24 -6v3q5 29 18.5 65t24.5 58.5t34.5 65.5t30.5 56h-1q-89 12 -82 31q1 3 4 5q7 6 17.5 10.5t24 6.5t23 3t25 1.5t19.5 0.5q86 163 171 303q-8 56 0 57l6 1 q5 3 16 -23q6 9 23 37.5t28 45.5t29.5 37t35.5 29q26 14 7 -50q-7 -22 -16 -45q31 40 36 28q2 -4 -1 -16q-9 -32 -55 -132q40 -107 82 -286zM292 382q-31 -58 -70 -129q41 0 107 -4q-23 80 -37 133z" />
<glyph unicode="b" horiz-adv-x="504" d="M195 666q79 27 172 2.5t117 -87.5q30 -69 -11 -139t-111 -119q62 -23 93.5 -75.5t27.5 -113.5t-41 -114q-59 -82 -171 -126q-22 -9 -81 -21t-72 2q0 9 27 22t61.5 25.5t37.5 13.5q-16 -6 -54 -15t-83 -13.5t-50 13.5q-1 3 40 20t87.5 34.5t49.5 19.5q126 67 131 149 q2 39 -25 59.5t-70 22t-78 -2.5t-66 -11q-33 -149 -59 -205q-20 -44 -24 6q-2 21 0 39q-35 -104 -47 -103q-4 0 -6 11q-4 20 -5 42t1 48t4 42t6.5 47t5.5 42q-7 0 -8.5 4t1 9.5t5.5 9.5t6 7l4 28h-16q-1 2 0.5 5t4.5 6t6 5.5t5 4.5l3 2q27 170 53 272q-46 -8 -58 4 q-8 9 10 26q-1 0 -6.5 -1.5t-11.5 -3t-12 -2.5t-10.5 0t-5.5 4l-2 6q-4 5 14 17t43.5 24t46.5 20.5t26 10.5q13 30 27 34q9 3 12 -11q1 -4 2 -9q8 2 14 4q16 43 29 44q10 0 11 -35zM350 443q63 71 10 107q-49 33 -149 17l-22 -4q-11 -98 -38 -238q124 33 199 118z" />
<glyph unicode="c" d="M470 457q-12 -32 -22.5 -58.5t-25 -59t-28 -50.5t-22.5 -17q-14 3 -6 59q-27 -35 -27 7l3 27q9 54 37 137q-2 22 -20 40t-49 12q-69 -16 -122.5 -101t-69.5 -166q-6 -30 -7.5 -66t2 -73.5t19 -65.5t41.5 -35q31 -8 67 12.5t62.5 50t51 57t33.5 30.5q19 6 13 -27 q-8 -40 -32 -83q8 8 44.5 52t58.5 56q1 1 -8.5 -23t-21 -51.5t-16.5 -33.5q-81 -115 -190 -145q-86 -23 -150 23.5t-82 137.5q-25 125 14 266t128 229q36 35 86.5 56.5t107 18.5t94.5 -39q22 41 35 34t5 -52q21 22 26.5 3t2.5 -43q-6 -42 -32 -119z" />
<glyph unicode="d" horiz-adv-x="497" d="M197 624q125 6 204 -90t67 -208q-7 -121 -62 -228.5t-150 -175.5q-104 -73 -199 -68q-78 5 31 51l30 13q-73 -18 -76 0q0 2 40.5 27t85.5 52.5t52 34.5q81 82 112 199q13 50 14 96.5t-12 89t-50.5 68.5t-95.5 27q-25 -224 -69 -394q-14 -54 -43 -109q-34 -62 -33 14v12 q-37 -112 -49 -81q-1 2 -2 5q-8 32 4 130q20 181 75 403q-86 -37 -91 -27t6.5 23t33.5 25.5t37 20t28 13.5q-59 -16 -115 -45q-2 -1 -17.5 -11.5t-29.5 -17.5t-19 -4q-11 7 23 40t54 48q58 39 124 56q18 50 30 47q9 -3 8 -40q2 1 6 1q20 88 39 84q4 -1 7 -8.5t3.5 -19 t0 -21.5t-1 -20.5t-0.5 -11.5z" />
<glyph unicode="e" d="M489 78q22 5 36.5 1.5t21 -9.5t6.5 -11q0 -34 -161 -63.5t-313 -34.5q-20 -52 -36 -52q-14 0 -10 51q-84 0 -83 16q0 4 14 8.5t30.5 8.5t17.5 4q-21 -4 -59 1q-27 4 -19 14q9 9 25 16.5t26.5 10.5t34 8t26.5 6q0 4 2 14q-38 -37 -40 40q-2 66 12 140q-43 0 -41 10 q1 5 5 9t11.5 7.5t11.5 5.5t13 5l9 2l3 13q-20 5 4 16q20 84 62 220q-56 -2 -56 10v7q-2 9 50 24q-51 2 -46 20q6 20 64 43q13 6 23 8l10 28q11 -3 19 -21q14 3 42 7q0 1 4 11.5t10 20t9 6.5t3 -34q138 20 237 11q44 -4 43 -14t-43 -22q60 3 55 -14q-4 -17 -56 -33 q-91 -28 -252 -49q-14 -90 -35 -194q93 17 137 12q20 -2 21.5 -12t-17.5 -18q51 1 86 -12q36 -14 -22 -33q-71 -24 -227 -36q-20 -93 -45 -183q145 29 288 44t152 -1v-7q1 -3 -36 -15q-6 -2 -17 -6l-17 -7q2 1 7 2z" />
<glyph unicode="f" horiz-adv-x="451" d="M167 642q39 87 45 24q1 -7 1 -17q44 7 140 14.5t163 5.5h6.5t12 -0.5t15.5 -1t14.5 -1.5t11 -3t3.5 -5q-2 -8 -11 -14.5t-23.5 -11.5t-25.5 -8t-26.5 -6.5t-17.5 -3.5q56 -1 42 -13q-12 -11 -63 -24q-110 -26 -216 -35q-7 -75 -43 -215q174 12 173 -14q0 -5 -42 -16 q48 1 50 -13q1 -10 -30 -22q-64 -25 -180 -42q-20 -68 -43 -141.5t-36 -112.5l-13 -39q-28 7 -25 109q-33 -93 -49 -120q-13 -21 -13 7v10q6 78 52 271q-82 -5 -82 8v6q0 3 5 6.5t14.5 7t24.5 7.5q-22 1 -35.5 9.5t1.5 26.5q25 20 98 34q44 172 77 266q-9 0 -22 0.5t-35 3 t-33 9t-3 16.5t25 17t29.5 10t36.5 6.5t27 4.5z" />
<glyph unicode="g" horiz-adv-x="466" d="M360 339q-51 -71 -20 118l1 8q9 54 -5.5 78.5t-64.5 11.5q-44 -10 -78.5 -48.5t-54 -91.5t-29.5 -102t-13 -94q-1 -32 0.5 -57.5t9 -54.5t28.5 -41t53 -3q13 4 25 10t20.5 11.5t18.5 17t15 16.5t14 21.5t11 20t12 23t11 21.5q11 22 19.5 27t11.5 -6t1 -34q24 59 40 64 q13 4 10 -41q-4 -66 -34 -192q-30 -124 -62 -197q-18 -40 -38 -54q-16 -11 -18 16q-1 9 0 21q-18 -44 -35 -56q-11 -7 -13 12q-1 5 -1 13q0 18 1.5 36.5t6.5 42.5t7.5 35t11 41.5t9.5 35.5q-76 -31 -125.5 -12t-76.5 67t-35.5 114.5t-4 130.5t19.5 114q29 101 86 179.5 t143 100.5q118 27 175 -38q45 75 49 31q22 32 30.5 24t3.5 -40q-8 -51 -34 -131q-31 -94 -57 -142q-24 -43 -37 -42q-7 1 -8 15z" />
<glyph unicode="h" horiz-adv-x="527" d="M472 636q15 62 37 91q28 10 -5 -209q-8 -55 -19 -116q41 0 17 -23q-10 -9 -24 -16q-39 -212 -77 -320q-1 -2 -3.5 -10.5t-5.5 -15.5t-6.5 -14.5t-8 -12.5t-9.5 -6t-7.5 5.5t-3.5 17t-0.5 22.5t1.5 24.5t2 19.5t1 10q-1 -2 -5.5 -20t-9.5 -35t-12.5 -32t-13.5 -15 q-14 0 2.5 141t26.5 192q-97 -30 -201 -53q-45 -203 -79 -297l-3 -10l-6 -16.5t-6.5 -14t-9 -13.5t-9.5 -6t-7.5 5.5t-2.5 17.5v21.5t1 19.5l1 10q-23 -63 -38 -60q-10 3 -7 48q4 92 34 270q-26 -5 -71 -3q-25 2 -18 9q11 10 26.5 17.5t41 15.5t29.5 10v2l-6 -1 q-7 -1 -15.5 -2t-17.5 -1.5t-14.5 0t-5.5 2.5q0 5 6 9.5t15 8.5t17 7.5t16.5 6t10.5 3.5q37 192 69 280q19 52 38 58q18 6 18 -48q26 91 42 97q11 4 11 -45q0 -87 -39 -297q112 31 197 48q1 7 8 45t9.5 50t9 44t11.5 50t13 43t17 46q24 58 34 7q7 -30 4 -62z" />
<glyph unicode="i" horiz-adv-x="405" d="M418 653q0 -15 -31 -14q-5 -1 -5 -2q59 2 32 -16q-34 -22 -118 -46l-6 -2q-28 -266 -78 -485q2 0 25.5 3t39 4t34 -2t25.5 -11q4 -7 -5 -14t-25 -12t-28 -8.5t-19 -4.5q62 -7 60 -21q-1 -5 -13.5 -10t-31.5 -9t-37 -7t-34.5 -5.5t-18.5 -3.5q-13 -36 -26 -35q-9 1 -11 29 q-104 -17 -153 -9q-19 3 -26 11.5t-0.5 18.5t23.5 17q-23 3 -23 11l1 6q-2 17 144 39q-24 88 71 480q-117 -14 -117 3v5q0 2 4 5.5t12.5 7t20.5 7.5q-26 2 -33.5 14.5t15.5 27.5q38 20 124 33l5 18q9 -1 17 -15q12 2 40 4l2.5 7.5t5 13.5t7.5 14t6 3q4 -4 4 -36 q122 11 121 -14z" />
<glyph unicode="j" horiz-adv-x="428" d="M418 646h8h14.5h18.5t20 -1t17.5 -2t13 -3.5t3.5 -5.5q-4 -23 -86 -43q45 -1 35 -14q-9 -10 -46 -22q-18 -249 -70 -415q-14 -44 -29 -78t-40 -73t-60.5 -60t-78.5 -19q-52 1 -88.5 31t-52.5 73t-15 94q0 88 34 155q26 49 27 -27q1 -19 -1 -49q5 22 21 54.5t30 26.5 q10 -4 4.5 -28.5t-9.5 -62.5t-6.5 -73.5t13 -60t48.5 -22.5q11 2 21 9.5t18 16.5t16 24.5t13 26.5t11.5 30.5t9 27.5t7.5 27t6 21q27 95 65 326q-89 -17 -130 -11q-13 2 -18 7.5t-1 12.5t16 13q-46 -2 -83 11q-38 13 6 34q1 0 3 1q69 29 230 42q4 11 10 19t12.5 12.5 t13 -0.5t11.5 -20q4 15 7 25.5t6.5 15.5t6.5 5l8 -1q7 0 10 -50z" />
<glyph unicode="k" horiz-adv-x="421" d="M207 293q9 -10 31 -32.5t40.5 -40.5t19.5 -19q7 -8 36 -37.5t42 -43t33.5 -37.5t34.5 -45q27 -40 -2 -30q-28 9 -70 41q59 -78 45 -88q-7 -5 -36 15.5t-69 57t-76 71.5t-70 69t-39 38q-36 -168 -65 -240q-21 -49 -30 -22q-7 18 -4 52q-23 -74 -37 -89q-5 -5 -6 3 q-3 22 1 78q9 112 37 287q33 198 63 304q15 56 30 81q19 27 25 -23q3 -34 1 -53q28 90 41 86q6 -2 7 -25q0 -36 1 -47.5t-3.5 -47.5t-6.5 -48t-7.5 -47.5t-7.5 -46.5q148 152 265 252q56 38 79 36q16 -2 2 -32q40 29 46 21l5 -6q11 -8 -139.5 -167.5t-216.5 -224.5z" />
<glyph unicode="l" horiz-adv-x="340" d="M364 110q74 8 5 -33q-2 -2 -6 -4l-7 -4h1q26 7 64 6q18 -1 14 -7q-6 -6 -15.5 -11t-17 -8t-20.5 -7t-17 -6q-111 -41 -276 -78q0 -1 -2.5 -11.5t-5 -20t-7 -18t-8.5 -8.5q-10 0 -10 51q-6 -2 -10 -2q0 -1 -2.5 -14t-5.5 -24t-7 -24t-9 -21t-10 -9q-13 -1 -13 83 q-1 0 -11.5 -1.5t-20.5 -2.5t-19.5 0t-10.5 6q-2 5 24.5 15t38.5 13v6q-91 -11 -104 -4q-1 1 0 2q8 9 22.5 16.5t27 11.5t31.5 9.5t25 7.5q13 241 55 497q1 5 5 32t6 37t6.5 31t9.5 36.5t11 30.5q18 43 28 -26l5 -71q1 7 4.5 25t5.5 28.5t5.5 25.5t8 27.5t10.5 23.5 q6 9 10 6.5t6 -11.5q6 -41 -5 -157q-19 -251 -65 -503q173 49 256 59z" />
<glyph unicode="m" horiz-adv-x="619" d="M593 651q1 1 5.5 6t10 10.5t13 13.5t14 14t14 11t12 6.5t7.5 -0.5q3 -3 -1 -15.5t-13.5 -30.5t-19 -34t-18.5 -31t-10 -17q-8 -154 -57 -405q-2 -10 -7.5 -37t-8.5 -42t-8.5 -37.5t-12.5 -40.5t-15 -35q-18 -37 -24 22q-3 37 -1 57l-1 -6q-2 -5 -4 -9.5t-4.5 -12t-5 -14 t-6 -14t-6.5 -13t-6.5 -10t-7 -6.5t-6.5 -1q-7 2 -7.5 27t3.5 64.5t9.5 80t12.5 84t11 66.5t7 38q-104 -167 -162 -234q1 -4 4.5 -22t5 -31t0.5 -28.5t-7 -22.5q-9 -9 -24.5 20.5t-18.5 42.5l-6 -3q9 -75 -10 -76q-9 -1 -34 85q-19 -19 -25 -14l-6 5q-7 3 17 52 q-29 92 -50 174q-29 -146 -58 -242q-12 -40 -38 -83q-32 -54 -39 -2q-9 -22 -16 -33t-11 -9l-7 2q-19 1 36 274t76 342q-9 83 2 118q9 26 31 -6q-3 49 6 50l7 1q3 1 7 -4.5t9 -18t11.5 -28.5t13.5 -38q4 13 18 15q3 -5 2.5 -16.5t-3 -29t-2.5 -18.5q9 -29 25 -89 q27 -95 56 -223q113 192 226 355q5 8 22.5 35t27.5 41t27.5 32.5t33.5 27.5q23 12 -1 -52q-5 -16 -14 -35z" />
<glyph unicode="n" horiz-adv-x="493" d="M455 646q21 75 33 74q32 -6 -55 -442q-30 -146 -55 -235q-1 -3 -5 -21.5t-8 -35t-9.5 -32t-8.5 -17.5q-3 -1 -6 -0.5t-7 5.5t-7 9t-6.5 10t-5.5 10t-4 9l-2 5l-9 -33l-3 -3q0 -1 -3 -8t-5.5 -14t-7 -13t-7.5 -6q-5 0 -6.5 12t-1 28.5t1.5 28.5t2 16q-48 101 -128 352 q-30 -201 -69 -316q-34 -95 -25 95q-1 -3 -5.5 -25t-10 -45.5t-12.5 -48.5t-15.5 -41t-16.5 -16q-15 -1 0 154q31 288 90 475q-13 67 -3 68q14 -5 20 -23q7 17 14 23q0 1 -1.5 8.5t-3 14.5t-2 15.5t0 14.5t3.5 8q13 8 93.5 -212.5t99.5 -287.5q42 247 86 406q2 7 8.5 34 t11 43.5t14.5 36.5t23 29q17 12 16 -52z" />
<glyph unicode="o" horiz-adv-x="486" d="M399 653q22 64 57 -42q5 -14 10 -33l1 -4q24 -125 -7 -258t-109 -231q-40 -51 -93.5 -79.5t-112.5 -20t-100 64.5q-43 59 -54.5 143t1.5 160.5t42 149.5q17 45 51 89.5t77 77.5t92.5 29t89.5 -57q-1 4 -9 26t-14.5 41.5t-10.5 40.5t3 23q10 7 24.5 -8t28 -41t21.5 -43.5 t12 -27.5zM359 571q-8 5 -31 22l-8 6q-16 12 -26 17q9 -9 29 -66q14 -41 4 -39q-12 2 -22 17t-16.5 31t-20 28t-32.5 9q-46 -7 -89 -101q-33 -76 -42.5 -156.5t9.5 -160.5q13 -48 35.5 -64t47.5 -3.5t48.5 37t42.5 57.5q48 81 66.5 177.5t4.5 188.5z" />
<glyph unicode="p" horiz-adv-x="457" d="M196 670q43 15 96.5 12t101 -16.5t78.5 -48.5t28 -82q2 -78 -59 -143t-144 -102q-11 -5 -27.5 -11t-41 -13t-43.5 -6.5t-24 10.5q-3 4 4 11t19.5 14.5t24 13t23.5 11.5l12 5q-66 -19 -70 -7q-1 3 9.5 11.5t27 18t32.5 19t30 17t17 9.5q79 57 98 114q11 33 -10 50.5 t-61.5 18.5t-70.5 -1.5t-54 -7.5q-20 -229 -71 -436q-25 -103 -49 -140q-26 -40 -29 28q-2 22 0 45q-27 -82 -41 -74q-4 4 -7 18q-4 30 5 126q21 181 77 408q-38 -8 -39 0q-1 4 2.5 8.5t11 9t13 7.5t13.5 7l9 4l3 12q-2 -1 -16.5 -5.5t-27 -8.5t-30.5 -8.5t-27 -4.5t-15 4 q-4 5 14 17t43.5 24.5t47 22.5t27.5 12q17 55 32 58q11 3 9 -44q3 1 7 2.5t6 1.5q14 41 26 40q8 0 10 -29v-2z" />
<glyph unicode="q" horiz-adv-x="470" d="M202 624q80 43 155 -8t92 -120q30 -108 -9.5 -237.5t-122.5 -207.5q59 -121 73 -182q7 -32 -12 -17q-20 16 -43 52q0 -1 3.5 -11t6 -20t5 -22t1.5 -20t-5 -9t-11.5 7.5t-17 23.5t-19 32t-20.5 37t-18.5 34.5t-14.5 28.5t-8 15q-75 -28 -124 -7.5t-77.5 71.5t-38.5 118 t-6.5 131t17.5 110q26 88 78 161t126 109q20 10 74 16q38 4 30 -7q-2 -3 -6 -6q-15 -11 -52 -34t-56 -38zM286 599q-15 3 -28 3q-16 0 -32 -3q-1 -11 -20 -36q-54 -68 -81 -157q-8 -25 -14 -73t-7 -104t19 -93.5t60 -29.5q-39 88 -45 129q-3 20 4.5 28.5t25.5 -6.5 q-12 39 -5 42l6 2q4 3 17.5 -15t32 -50t26 -45t16.5 -30q39 47 63.5 110t29.5 126q5 76 -34 121.5t-111 18.5q-14 23 19 42t58 20z" />
<glyph unicode="r" horiz-adv-x="448" d="M468 535q5 -46 -22.5 -94t-66.5 -81t-75 -53.5t-50 -20.5q119 -127 200 -239q1 -2 11.5 -14t17 -21t14.5 -21.5t11.5 -23t1.5 -18.5q-4 -5 -13.5 -1.5t-24.5 16l-24 20t-13 11.5q0 -1 3.5 -6.5t7.5 -12t8.5 -15t8.5 -16t6.5 -15t2 -12.5t-3.5 -7q-6 -3 -29.5 17.5t-54 54 t-50 55.5t-31.5 36q-107 117 -156 189l-14 3q-30 -158 -59 -247q-16 -49 -30 -50q-13 0 -13 47q-11 -25 -21 -31.5t-15.5 4t-6.5 33.5q-1 41 12 144q27 190 74 382q-1 0 -9 -2t-17.5 -4t-19 -3.5t-15.5 -1t-7 4.5q-1 5 5.5 11.5t18 13t21.5 11t21.5 9.5t12.5 5q1 1 1 4 q-3 -1 -20 -6t-34.5 -10.5t-38.5 -10.5t-33 -5.5t-18 3.5q-8 11 66 45.5t96 40.5q16 58 29 55q10 -2 10 -43q5 1 20 5q3 11 14 14l6 -10q40 10 89 6.5t92 -15t72.5 -45.5t31.5 -85zM360 520q6 41 -52 52t-125 -1q-1 0 -3 -1q-7 -75 -25 -185q18 -16 36 -34q31 18 52 31.5 t49.5 36t46 48t21.5 53.5z" />
<glyph unicode="s" horiz-adv-x="418" d="M91 584q19 45 56.5 72t81 31.5t86.5 -4.5t76 -33t46 -55q5 -12 5.5 -27.5t-2.5 -41t-3 -28.5q-3 -42 -32 -70q-22 -22 -29 -3q-3 9 -2 25q-6 -9 -18 -18t-17 -1l-4 6q-5 5 4 59q7 72 -48 73q-53 1 -74 -32.5t0 -83.5t78 -89q48 -33 70.5 -89t14.5 -117q-7 -59 -46 -105 t-90.5 -66.5t-110.5 -10.5t-102 54q-42 43 -51 108t21 117q8 14 27 28q13 9 13 1q1 -3 -2 -11q-13 -42 -13 -79q5 17 37 42q33 25 32 4q-1 -3 -2 -8q-34 -117 37 -142q63 -20 102 10.5t32.5 83.5t-59.5 89q-77 54 -113 139.5t-1 171.5z" />
<glyph unicode="t" horiz-adv-x="377" d="M412 652q81 0 81 -14q0 -6 -22.5 -13.5t-58 -15t-67 -13t-62.5 -10.5t-33 -5q-29 -238 -81 -443q-3 -11 -11.5 -46t-14 -54t-16.5 -45t-25 -43q-19 -24 -21 32q-1 42 3 70q-1 -1 -3.5 -10t-5.5 -19.5t-7 -21t-9 -17t-9 -5.5q-29 5 15.5 233t77.5 353q-83 -10 -126 -8 q-36 2 -47 15q-8 10 14 22q-41 0 -41 9v6q-1 4 59.5 21.5t122.5 30.5t66 7l38 6l3 8q3 7 5.5 13.5t7 12t7.5 5.5q6 0 6 -35q142 22 204 16q48 -5 -14 -30q-23 -9 -36 -12z" />
<glyph unicode="u" horiz-adv-x="448" d="M433 631q33 92 49 86q17 -8 -20 -174q-31 -145 -67 -250q-18 -54 -31 -88.5t-37.5 -84t-56.5 -83.5t-71 -52q-70 -33 -128.5 4.5t-72.5 112.5q-19 102 3 216t70 252q17 38 41 61q26 26 28 -18q11 21 19 31t12 8l7 -3q2 0 -15 -96t-36 -200.5t-20 -117.5q-2 -16 -2 -38 t2 -55.5t15 -48.5t35 0q11 7 21 17t18 19t17 24.5t14 24t13.5 27t11.5 25t11 26.5t10 24q32 83 73 220q6 21 15.5 60t18.5 71t20 59q26 64 32 4q4 -33 1 -63z" />
<glyph unicode="v" horiz-adv-x="387" d="M489 683l7 -5h-1q16 -7 -162 -294t-223 -346q-2 -39 -18 -76q-17 -40 -35 3q-6 -48 -16 -48l-7 1q-11 -2 -21 92q-10 -12 -24 -10q-2 2 2.5 13.5t10.5 24.5l7 12q-17 217 -19 448q0 143 10 190q12 55 33 -18q8 -30 10 -48q10 98 29 95q6 -1 10.5 -20.5t7 -49t4 -57.5 t3 -53.5t1.5 -29.5q11 -146 14 -273q107 180 190 302q59 86 85 113q29 31 50 34q19 2 12 -31q32 39 40 31z" />
<glyph unicode="w" horiz-adv-x="601" d="M654 746q22 14 1 -53l-14 -37q16 20 42 45t32 19q6 -5 -7 -38.5t-38.5 -82t-49.5 -91.5t-48 -84.5t-26 -44.5q-135 -245 -215 -357q-22 -29 -50 -48q-31 -21 -28 15q0 3 1 7q-30 -38 -39 -32l-6 5q-4 1 3.5 22.5t24.5 58.5q-8 52 -16 156q-69 -108 -110 -163 q-2 -37 -17 -72q-18 -40 -36 4q-3 -24 -7 -36.5t-8 -11.5h-8q-5 -1 -10 22.5t-10 65.5q-9 -12 -23 -9q-2 2 2.5 13t10.5 23l6 12q-20 216 -18 434q0 8 -0.5 43.5t0 51.5t3.5 43t10 47q11 33 28 -28q5 -17 11 -45l1 -5q10 97 28 94q10 -1 17.5 -43t11.5 -106t6.5 -123.5 t3.5 -114t1 -59.5q45 80 96 163q-4 122 4 194q5 45 21 73q16 27 32 -12q3 24 7 36.5t9 11.5l7 -1q13 3 25 -138q56 81 82 105q12 11 24 17t20 0t4 -27q32 37 39 31l6 -5q7 -3 -14 -47.5t-56 -106t-58.5 -101.5t-35.5 -60q3 -76 3 -150q116 212 219 378q7 10 22 36t25 42 t26.5 35t32.5 29z" />
<glyph unicode="x" horiz-adv-x="448" d="M422 718q36 37 37 -3q1 -17 -5 -38q50 53 63 41q6 -6 -11.5 -41.5t-51 -87t-64 -96t-61.5 -88.5t-32 -46q50 -183 65 -292l2 -16t3 -25.5t-0.5 -28t-8.5 -9.5q-8 1 -16.5 12.5t-13.5 23.5t-10.5 27.5t-6.5 18.5q10 -97 -7 -98q-7 -1 -18 23t-23 62.5t-21.5 73t-18.5 68.5 t-10 36q-109 -157 -177 -239q-29 -32 -58 -45.5t-23 20.5q1 3 2 7q-34 -36 -41 -30l-6 5q-7 3 26.5 61.5t93 149t87.5 133t56 83.5q-30 115 -39 188q-5 54 6 80q9 23 30 -6l2 -2q-5 50 5 50l7 1q4 2 10.5 -9.5t15 -33t15.5 -42.5t15 -47t11.5 -37t6.5 -21q8 11 37.5 53 t43 60.5t38 49.5t45.5 54z" />
<glyph unicode="y" horiz-adv-x="387" d="M371 629q69 69 79 59q12 -13 -107 -195q-77 -125 -149 -196v-1q-28 -128 -45 -191q-2 -8 -9 -37t-11.5 -44.5t-14 -37t-21.5 -35.5q-20 -21 -15 91q-31 -92 -51 -85q-7 9 -6 35.5t9.5 76t17.5 91.5t17.5 83t10.5 50q-17 54 -45 166q-25 102 -26 152q0 16 4.5 28t13.5 15 t22 -16q-5 50 4 51l8 1q6 3 21 -31.5t35.5 -96t28 -86t17.5 -57.5q86 143 164 230q11 16 41.5 48t38.5 21q3 -8 2.5 -15.5t-6 -20t-10 -21t-10.5 -19t-8 -13.5z" />
<glyph unicode="z" horiz-adv-x="418" d="M428 631q-1 -5 2 -10h-6l2 -1q1 0 3 -0.5t3 -0.5q4 -2 4 0q8 -2 14.5 -3.5t14 -4.5t11.5 -6t3 -7q-1 -6 -30 -9t-43 -3q-131 -263 -315 -525q131 22 247 21q53 -1 43 -15q-13 -16 -70 -30l-3 -1q1 0 12 -0.5t23 -1t24.5 -2.5t20.5 -5.5t8 -8.5q0 -4 -15.5 -9.5t-39 -10.5 t-45.5 -9.5t-43 -8t-24 -4.5q-133 -26 -202 -20h-6h-13t-13.5 0.5t-13.5 1.5t-12 3t-10 5.5t-6 7.5t-2.5 10.5t3.5 14.5q-33 2 -33 10v6q-1 4 12 9t37 11q99 206 325 540q-116 -8 -169 5q-42 5 -67 20q-23 15 12 29q-14 2 -24 4.5t-15 5t-5 5.5l1 7q-1 5 36.5 11t91 10 t107 7t91.5 1t38 -8q63 -5 77 -20q12 -12 -41 -21zM432 619h4l-6 2z" />
<glyph unicode="{" horiz-adv-x="348" d="M141 495q1 3 14 31.5t24.5 52t30 52.5t34.5 45q18 21 62 37q36 14 35 -2q-1 -9 -12 -24q3 1 9 2.5t14 2.5t13.5 -1.5t4.5 -8.5v-8q0 -3 -21.5 -26t-23.5 -27q-7 -16 -20.5 -48t-21.5 -48q-51 -113 -124 -158q32 -35 38 -80.5t-3.5 -111t-8.5 -90.5q1 -5 20 -22.5 t17 -21.5q-10 -20 -39.5 -12t-39.5 23q2 -6 23 -21.5t40.5 -28.5t18.5 -16q-3 -18 -85 9q-43 24 -58 92q-5 29 4 112t-8 108q-2 4 -30 27q-30 25 -4 34q4 2 10 3q-1 1 -9.5 2.5t-17.5 3.5t-16 5.5t-7 6.5v8q-1 3 5 5.5t14.5 4t15 2t8.5 0.5q0 2 12 8.5t25.5 13.5t16.5 9 q19 17 40 55z" />
<glyph unicode="|" horiz-adv-x="223" d="M161 647q4 34 11.5 63t14.5 45.5t13.5 28t10.5 17.5t4 7q17 -11 -7 -225t-39 -304q-35 -224 -62 -326q-17 -67 -28 -83q-11 -17 -17 25q-7 53 -4 99q-2 -8 -7 -35t-8.5 -41t-10.5 -34.5t-16 -35.5q-9 -13 -13 0q-4 19 1 91q9 107 47 356q45 260 70 362q17 74 29 97 q15 27 11 -107zM215 808l-1 1z" />
<glyph unicode="}" horiz-adv-x="348" d="M220 225q-1 -3 -14 -31.5t-24.5 -52t-30 -52.5t-34.5 -45q-18 -21 -62 -37q-36 -14 -35 2q1 9 12 24q-3 -1 -9 -2.5t-14 -2.5t-13.5 1.5t-4.5 8.5v8q0 3 21.5 26t23.5 27q8 16 21.5 48t20.5 48q51 113 124 158q-32 35 -38 80.5t3.5 111t8.5 90.5q-1 5 -20 22.5t-17 21.5 q10 20 39.5 12t39.5 -23q-2 6 -23 21.5t-40.5 28.5t-18.5 16q3 18 85 -9q43 -24 58 -92q5 -29 -4 -112t8 -108q2 -4 30 -27q30 -25 4 -34q-4 -2 -10 -3q1 -1 9.5 -2.5t17.5 -3.5t16 -5.5t7 -6.5v-8q1 -3 -5 -5.5t-14.5 -4t-15 -2t-8.5 -0.5q0 -2 -12 -8.5t-25.5 -13.5 t-16.5 -9q-19 -17 -40 -55z" />
<glyph unicode="~" horiz-adv-x="630" d="M26 269q3 39 37.5 75.5t62.5 53.5q24 13 48 18t42.5 4t42.5 -9.5t38 -15.5t41 -22t41 -22q24 -12 48.5 -12.5t38.5 4t42.5 17.5t41.5 18q17 6 12 -7q-7 -26 -49 -70q-8 -9 -12 -11q4 1 23 12t36 19.5t20 5.5q13 -12 -30 -44.5t-63 -41.5q-62 -27 -130 -8q-22 7 -76 42.5 t-87 37.5q-5 0 -27.5 -9.5t-42 -17t-21.5 -5.5q-15 18 25 46t62 34q-50 1 -118 -58q-1 -1 -10.5 -11.5t-19 -18.5t-13.5 -7l-3 2v1z" />
<glyph unicode="&#xa1;" horiz-adv-x="315" d="M313 749q25 7 24 -35q-1 -38 -14 -77q-8 -24 -38 -63q-43 -55 -46 -2q-36 -56 -42 6q-3 33 2 65q12 56 31 83q14 18 32.5 19.5t24.5 -23.5q14 24 26 27zM235 454q8 -2 9 -21.5t-5 -51t-13.5 -63.5t-17.5 -66.5t-15.5 -52.5t-8.5 -29q-38 -119 -70 -173q-24 -41 -43 -32 t-12 59q-24 -48 -44 -56q-14 -6 -14 24q0 7 1 16q7 71 49 196q45 132 83 201q16 28 32 40.5t23.5 1t-0.5 -55.5q35 66 46 63z" />
<glyph unicode="&#xa2;" d="M470 457q-12 -32 -22.5 -58.5t-25 -59t-28 -50.5t-22.5 -17q-14 3 -6 59q-27 -35 -27 7l3 27q9 54 37 137q-8 5 -25 22t-32 19q-22 -189 -34 -264q-3 -17 -14.5 -88.5t-18.5 -109.5q54 31 97 67.5t35 48.5q32 -18 -19 -110q8 8 44.5 52t58.5 56q1 1 -8.5 -23t-21 -51.5 t-16.5 -33.5q-81 -115 -190 -145l-13 -3q-10 -48 -24 -69q-11 -16 -17 20q-3 18 -4 45q-8 0 -12 1q-10 -54 -30 -88q-9 -13 -13 0q-4 19 1 91v6q-46 17 -77.5 58.5t-42.5 99.5q-25 125 14 266t128 229q40 38 95 59q17 74 29 97q10 20 12 -28q1 -23 0 -57h2q8 46 21 79.5 t22 46.5l8 13q12 -8 2 -134q59 -3 97 -40q22 41 35 34t5 -52q21 22 26.5 3t2.5 -43q-6 -42 -32 -119zM136 89q0 -2 3 -5q10 75 31 211q16 98 28 161q-43 -70 -64 -177q-24 -120 2 -190zM334 808l-1 1z" />
<glyph unicode="&#xa3;" horiz-adv-x="443" d="M19 188q-64 12 8 39q2 7 4 17q-12 -2 -20 8q9 12 25 13q37 157 67 223q46 103 118 145q52 29 115 16q54 -9 100 -45q9 -6 34.5 -35t14.5 -35q-6 -3 -33.5 10.5t-57.5 30.5t-39 19q57 -21 93 -72q8 -10 19.5 -35.5t0.5 -26.5q-8 -1 -25.5 12.5t-36 30.5t-24.5 20 q-58 29 -88 18q-22 -5 -41 -25.5t-34 -55.5t-23.5 -59.5t-19.5 -66.5t-13 -47q2 -1 36.5 -1t64.5 -3.5t29 -12.5q-2 -12 -29 -18t-58 -8.5t-37 -6.5q1 0 1 -0.5t1 -0.5q107 0 150 -6q27 -7 28.5 -10t-3.5 -6q-10 -6 -24 -10t-23.5 -5.5t-27.5 -4t-24 -3.5q-11 -2 -36 -8.5 t-45.5 -10t-36.5 -0.5q-28 -96 -46 -143q90 30 274 13q86 -7 -34 -35q-11 -2 -30 -6l-20 -5q5 -1 52 1t87 -1.5t44 -15.5q1 -4 -7.5 -8t-23.5 -7.5t-32.5 -7.5t-36.5 -7t-34.5 -5t-27.5 -4t-13 -2q-38 -9 -84.5 -11t-72 -0.5t-84.5 5.5q-62 4 -65 21q-2 15 54 27v10 q-6 1 -14.5 2.5t-10.5 1.5q-2 -2 -5.5 -0.5t-4.5 5t1 6.5q-2 21 0.5 47t5.5 42.5t9.5 49.5t8.5 43zM30 18q2 13 2.5 22t0.5 12.5v5.5q-8 -25 -17 -44q4 2 14 4z" />
<glyph unicode="&#xa4;" horiz-adv-x="500" d="M301 128q-26 -12 -58.5 -13t-44.5 6q-12 3 -27 11q-49 -62 -90 -78q-21 -8 -25.5 7t5.5 32q-29 -16 -36 -0.5t10 37.5q24 36 72 73q-30 69 -3 143q-51 41 -80 100q-12 25 -3.5 33.5t34.5 -8.5q-13 36 15 26q35 -13 92 -65l3 -3q39 31 88 34.5t91 -24.5q44 51 75 63 q22 8 26 -8t-6 -32q28 16 36 1.5t-7 -37.5q-24 -37 -69 -72q1 -12 2.5 -36.5t-6 -48.5t-24.5 -23q-5 0 -9 17.5t-6 38t-3 22.5q-6 -2 -7 -2q0 -40 -14 -38q-4 0 -9.5 12t-11 25.5t-7.5 16.5q-33 31 -67 -4q-30 -31 -27 -72q2 -28 23 -42q7 -4 49 1q24 3 25 -4q1 -5 -5 -13 q-15 -21 -41 -28.5t-50 1.5q33 -20 77 -6q2 7 17.5 11.5t18.5 6.5q-2 13 5.5 19.5t18.5 1.5q2 2 9 10.5t13.5 15t10.5 6.5q6 -5 0.5 -22.5t-10.5 -25.5q46 -37 75 -94q6 -12 8 -23.5t-4 -17t-25 5.5q13 -32 -2.5 -37.5t-38.5 11.5q-50 36 -83 89z" />
<glyph unicode="&#xa5;" horiz-adv-x="426" d="M338 151q3 -8 -12 -14.5t-42.5 -10.5t-54.5 -6.5t-57 -4.5l-9 -27q-3 -7 -11.5 -35t-14.5 -45.5t-18 -38t-25 -29.5q-16 -10 -14 43q2 47 8 67q0 -1 -2 -6.5t-4.5 -11.5t-5.5 -14.5t-6.5 -15t-7 -12.5t-7 -9.5t-6.5 -2.5q-17 4 5 92l7 42q-47 2 -85 13q-48 14 -7 35 q17 9 39 14q-40 7 -45 24q-2 11 19 18q5 2 12 4q45 9 93 9q4 20 7 30q-39 3 -68 10q-24 5 -32.5 12.5t0.5 15.5t36 13q-45 8 -52 24q-3 6 7.5 11.5t30 9.5t42 7t48.5 5q-54 187 -72 296q0 1 -1 8q-8 73 1 72q2 0 3 -1q10 -8 20 -25.5t14.5 -29.5t12 -37t8.5 -28 q-23 116 -25 157q-2 29 6 29q5 0 13 -16q16 -29 30 -60.5t27 -70t21 -63.5t21.5 -72t18.5 -65q93 133 219 256l7 7t15 14t18.5 15.5t18.5 13t15.5 7t8.5 -4.5t0.5 -15.5t-6 -18t-10 -18.5t-12 -18.5t-12 -16t-8.5 -11.5q1 1 7.5 8t14 14.5t16 15t16 11t10.5 0.5 q34 -27 -251 -349q34 -1 69 -11q48 -14 7 -35q-18 -9 -39 -14q40 -7 45 -24q2 -11 -19 -18q-5 -2 -12 -4q-44 -10 -108 -10l-8 -29q47 -3 84 -10q24 -5 32.5 -12.5t-0.5 -15.5t-36 -13q45 -8 52 -24z" />
<glyph unicode="&#xa6;" horiz-adv-x="367" d="M282 725q17 41 35 56q32 16 -3 -138q-15 -60 -30 -112q-17 -55 -59 -137q-46 -90 -45 -32q0 14 3 37q-41 -92 -40 -27q1 69 29 184q0 3 1 5q29 120 59 182q20 37 36.5 37.5t13.5 -55.5zM145 202q17 41 35 56q32 16 -3 -138q-15 -60 -30 -112q-17 -55 -59 -137 q-46 -90 -45 -32q0 14 3 37q-41 -92 -40 -27q1 69 29 184q0 3 1 5q29 120 59 182q20 37 36.5 37.5t13.5 -55.5z" />
<glyph unicode="&#xa7;" horiz-adv-x="511" d="M50 401q6 87 75 146q-3 42 10 78q19 58 68 86t101 25t99 -28t65 -63q19 -37 17 -85q-4 -25 -29 -60q-28 -38 -31 -2v10q-25 -33 -34 -20l-4 5q-2 7 -0.5 15.5t5.5 23t4 15.5q2 75 -57 87q-54 12 -88 -18t-17 -84q7 -21 21.5 -39.5t25 -27t37 -25.5t33.5 -22 q49 -34 75 -87.5t22 -112.5q-4 -87 -75 -146q3 -41 -9 -78q-26 -76 -98 -99.5t-141.5 2t-94.5 77.5q-18 40 -17 85q5 27 30 61q29 30 31 -10q25 33 34 22l3 -6q2 -7 1 -15.5t-5 -23.5l-4 -15q-2 -74 56 -87q54 -12 88.5 18t17.5 84q-7 21 -22.5 40t-23.5 26t-38.5 27 t-32.5 21q-49 34 -75.5 87.5t-22.5 112.5zM217 282q72 -46 113 -101q20 36 8 83t-56 73q-74 45 -114 101q-20 -37 -7.5 -83.5t56.5 -72.5z" />
<glyph unicode="&#xa8;" horiz-adv-x="422" d="M148 780q11 21 27 27q15 4 20.5 -9.5t2.5 -37.5t-6.5 -39t-6.5 -26q-8 -25 -38 -64q-43 -55 -46 -1q-35 -55 -42 3q-4 35 2 67q9 53 31 84q14 18 32.5 19.5t23.5 -23.5zM264 650q-11 -21 -27 -27q-15 -4 -20.5 9.5t-2.5 37.5t6.5 39t6.5 26q8 25 38 64q43 55 46 1 q35 55 42 -3q4 -35 -2 -67q-9 -53 -31 -84q-14 -18 -32.5 -19.5t-23.5 23.5z" />
<glyph unicode="&#xa9;" horiz-adv-x="665" d="M75 21q-15 -13 -63 101l-1 2q-18 62 -18.5 127.5t22.5 130.5t59 119t91 93t119 53q81 17 150.5 -3t116 -67.5t73 -115.5t27.5 -147q1 -108 -34.5 -204.5t-113.5 -168.5t-185 -89q-74 -11 -147 9.5t-114 75.5q-9 11 -20.5 33.5t-18.5 49t10 33.5q5 3 21 -15.5t33 -41 t20 -24.5q-21 32 -26 50zM63 93q0 -2 6.5 -23.5t7.5 -32.5l4 3q4 1 15.5 -9.5t24 -23l14.5 -14.5q42 -35 103 -38q99 -8 180 60q85 71 110 206t-27 233q-30 57 -88.5 74t-117.5 -2t-101 -61q-83 -84 -94 -205q-1 -4 1.5 -48.5t3.5 -78t-4 -41.5q-12 -2 -22.5 15t-16.5 42.5 t-9.5 46.5t-3.5 32q-1 -67 14 -135zM413 269q-11 8 0 56q6 19 5 51t-18 46q2 -10 -12 -22.5t-16 -18.5q0 -2 -6 -4.5t-12.5 -4.5t-8.5 -4q-38 -24 -65 -96q-44 -119 -13 -174q7 -1 39.5 12.5t60.5 31t21 26.5q12 -10 12.5 -23.5t-9 -31.5t-18 -31t-16.5 -21q17 11 69.5 54.5 t50.5 49.5q9 -29 -28.5 -75t-70.5 -70q-55 -39 -110 -38q-48 0 -80.5 27.5t-43.5 68t-14.5 86.5t6.5 83q19 96 72.5 170t139.5 79q47 2 82.5 -21.5t40.5 -68.5q2 -11 -4.5 -47t-21.5 -67.5t-32 -22.5zM13 118q-2 4 -2 6z" />
<glyph unicode="&#xaa;" d="M354 448q3 -1 6 -2.5t5 -3.5l2 -1q-2 -5 -10 -8q0 -2 4.5 -21.5t8.5 -40.5t8 -46.5t4 -38.5t-5 -17q-4 0 -18 42q10 -62 -1 -56q-3 1 -9 12q-21 38 -51 137q-61 -9 -117 -8q-6 -10 -18.5 -33t-21 -37.5t-22 -32.5t-26.5 -29t4 40l12 34q-26 -41 -49 -67q-16 -16 -15 -5v3 q3 18 11.5 40.5t15.5 36t21.5 40t18.5 34.5q-43 9 -49 13q-5 5 0 10q11 10 67 13q59 110 106 187q-5 35 0 35l3 1q2 1 4.5 -3t5.5 -11q2 3 18 29t28 40.5t26 22.5q17 9 3 -35l-9 -25q18 25 22 19q2 -2 0 -11q-4 -17 -34 -81q24 -66 51 -176zM259 538q-13 -26 -43 -80 q26 0 66 -2z" />
<glyph unicode="&#xab;" horiz-adv-x="669" d="M26 289q-37 -11 -30 11q8 24 39 52q-4 6 15.5 19.5t54 32.5t36.5 20q67 39 124 63q38 18 93 26q48 7 36 -14q-5 -9 -20 -22q53 12 48 -9q-6 -19 -46 -53q-88 -71 -190 -123q88 -73 143 -145q27 -37 26 -60q0 -21 -38 0q34 -57 -7 -45q-43 12 -119 69q-2 1 -24.5 18 t-30 23t-27.5 23t-29.5 27.5t-23 26t-20.5 30.5t-10 30zM296 269q-37 -11 -30 11q8 24 39 52q-4 6 15.5 19.5t54 32.5t36.5 20q67 39 124 63q38 18 93 26q48 7 36 -14q-5 -9 -20 -22q53 12 48 -9q-6 -19 -46 -53q-88 -71 -190 -123q88 -73 143 -145q27 -37 26 -60 q0 -21 -36 -1l-2 1q34 -57 -7 -45q-43 12 -119 69q-2 1 -24.5 18t-30 23t-27.5 23t-29.5 27.5t-23 26t-20.5 30.5t-10 30z" />
<glyph unicode="&#xac;" horiz-adv-x="457" d="M386 247q4 -9 -20 -17q5 -35 5 -43q0 -47 -13 -69q-8 -15 -18.5 -12.5t-18.5 11t-12 17.5q-6 -18 -21.5 -22t-24.5 15q-11 25 -9 72v14q-56 -5 -92 -5q-94 0 -138 13q-48 14 -7 35q17 9 39 14q-40 7 -45 24q-2 11 19 18q5 2 12 4q52 11 146 9q96 -2 150 -13q39 -8 36 -21 q-1 -8 -20 -15q2 -3 4 -11q22 -7 28 -18z" />
<glyph unicode="&#xad;" horiz-adv-x="463" d="M243 249q-76 -5 -144 3.5t-76 25.5q-4 8 6 15.5t31 12.5q-50 8 -48 23q1 8 25 16q48 16 135 26q91 8 143 -1q21 -4 33.5 -14.5t7 -22.5t-32.5 -20q92 -13 20 -40q-50 -18 -100 -24z" />
<glyph unicode="&#xae;" horiz-adv-x="670" d="M73 21q-15 -13 -63 101l-1 2q-18 62 -18.5 127.5t22.5 130.5t59 119t91 93t119 53q81 17 150.5 -3t116 -67t73.5 -115.5t27 -147.5q1 -108 -34.5 -204.5t-113.5 -168.5t-185 -89q-73 -11 -146 9.5t-115 75.5q-9 11 -20.5 33.5t-18.5 49t10 33.5q5 3 21 -15.5t33.5 -40.5 t20.5 -25q-4 4 -14 21t-13 29zM61 93q0 -3 6.5 -23.5t8.5 -31.5l3 2q4 1 15.5 -9.5t24 -23l14.5 -14.5q33 -27 79 -35q93 -18 180 39q-72 70 -127 173q-16 -41 -47 -87q-39 -57 -37 4q-39 -67 -53 -30q-10 29 0 78q28 120 76 217q-21 -5 -37 7q-2 8 19.5 22t45 22.5 t25.5 3.5q25 6 47 9q-49 25 26 44q40 10 57 9q43 -3 78 -27.5t42 -64.5q11 -62 -38.5 -111.5t-115.5 -66.5q33 -29 63 -80t21 -85q40 41 66 108t28.5 137t-15.5 131t-69.5 96.5t-128.5 26.5q-62 -9 -112 -54.5t-78 -108.5q-36 -76 -31 -163q0 -1 3.5 -33.5t4 -52.5t-5.5 -29 q-12 -2 -22.5 15t-16.5 42.5t-9.5 46.5t-3.5 32q0 -73 14 -135zM299 272q48 20 57 52q8 28 -20 35q-7 2 -17 1q-6 -39 -20 -88zM11 118q-2 4 -2 6z" />
<glyph unicode="&#xaf;" horiz-adv-x="533" d="M485 741q5 -9 -14 -19t-56 -18q36 -2 50.5 -10.5t4 -19t-41.5 -18.5q-63 -14 -175 -22q-111 -8 -177 -2q-28 2 -41.5 8t-4.5 15t44 18q-55 4 -62 20q-4 9 17 18q6 3 13 5q51 16 163 30q4 1 27 4.5t43 6t49 6t53 4t47.5 -1t39 -7.5t21.5 -17z" />
<glyph unicode="&#xb0;" horiz-adv-x="426" d="M288 332q-23 -23 -56.5 -33.5t-56.5 -7.5q-59 5 -94.5 43t-38.5 89t12.5 100.5t59 83.5t99.5 33q60 -1 100.5 -47.5t35.5 -106.5q-2 -17 -19 -48q-16 -27 -21 -6q-2 10 -4.5 30.5t-6 35.5t-12.5 29q1 -3 2.5 -13.5t2.5 -23.5t-2 -22t-11 -8q-4 0 -9.5 12t-11 25.5 t-7.5 16.5q-33 31 -67 -4q-30 -31 -27 -72q2 -28 23 -42q7 -4 49 1q24 3 25 -4q1 -5 -5 -13q-15 -21 -41 -28.5t-50 1.5q49 -28 104 7q6 3 32 31t34 27q14 -1 -7.5 -38.5t-31.5 -47.5z" />
<glyph unicode="&#xb1;" horiz-adv-x="414" d="M249 461q5 1 7.5 -4.5t3.5 -15.5t1 -23t-1.5 -29.5t-3.5 -32.5t-5 -33q51 -4 87 -11q24 -5 32.5 -12.5t-0.5 -15.5t-36 -13q45 -8 52 -24q3 -7 -10.5 -13.5t-39.5 -10.5t-51 -7t-56 -5q-17 -72 -39 -108q-26 -45 -37 5q-4 17 -4 37q-16 -37 -33 -38q-15 0 -15 35 q1 29 8 66q-47 2 -85 13q-48 14 -7 35q17 9 39 14q-40 7 -45 24q-2 11 19 18q5 2 12 4q45 9 95 9q17 60 38 104q10 22 19.5 29t15 -4t4.5 -38q17 41 35 45zM353 -32q8 -19 -84.5 -29t-139.5 -10q-94 0 -138 13q-48 14 -7 35q17 9 39 14q-40 7 -45 24q-2 11 19 18q5 2 12 4 q52 11 146 9q96 -2 150 -13q24 -5 32.5 -12.5t-0.5 -15.5t-36 -13q45 -8 52 -24z" />
<glyph unicode="&#xb2;" horiz-adv-x="433" d="M77 603q6 21 22.5 47.5t23.5 33.5q25 27 68.5 43.5t86.5 6t57 -54.5q22 -68 -22.5 -151.5t-110.5 -153.5q6 1 23 4.5t28 5.5t26 4t27.5 2t22.5 -3q14 -4 -70 -36q119 17 116 5q-7 -23 -113 -45.5t-171 -27.5q-2 0 -10 -0.5t-14.5 -1t-13.5 1t-9 5.5q-1 3 2 6.5t8 7 t10.5 6.5l11 6t6.5 4q-26 0 -27 4q-1 3 11 14.5t27 24t16 13.5q33 31 71 83q78 108 85 181q1 18 -7.5 23t-27.5 2q-47 -6 -77 -47q0 -1 -2.5 -5t-5.5 -9t-7 -11.5t-7.5 -12.5t-7 -10.5t-6.5 -7.5t-4 -2q-12 6 -2 34.5t21 46.5q-19 -24 -39 -67q-13 -36 -19 -41v-1h-2v1 q-13 16 5 72z" />
<glyph unicode="&#xb3;" horiz-adv-x="403" d="M260 514q37 -26 49.5 -62t3 -69t-29.5 -60.5t-44 -41.5q-61 -36 -121 -16q-13 3 -47 31q-24 21 -16 27q3 1 13 -4t21 -12t13 -8q20 -7 38 -8q-34 7 -52 28q-8 8 -18.5 26.5t-2.5 23.5q1 1 12.5 -7.5t24 -18.5t14.5 -11q30 -12 64 2q32 12 51 39.5t5 57.5q-25 56 -107 46 q-30 -5 -29 5q2 12 32 25q7 3 14 5q-2 2 -3 2q-2 0 -13.5 -2t-19 -2.5t-10.5 1.5q-4 8 16 15t42.5 10.5t27.5 2.5q99 56 79 103q-11 25 -50 25.5t-59 -11.5q-2 0 -7 -2q-41 -14 -41 -2q-1 4 4 12l-8 -5q-7 -5 -12.5 -7t-7.5 0l-2 4q-14 9 15 34q37 29 86 38q82 15 126 -35 q27 -30 24 -64.5t-24 -65t-51 -49.5z" />
<glyph unicode="&#xb4;" horiz-adv-x="502" d="M46 583q-4 6 7 16.5t36 25.5q-67 -15 -65 5q1 14 37 36q64 39 172 83q108 45 177 59q52 11 48 -9q-6 -21 -51 -47q54 12 63 -3q6 -12 -29 -34q-50 -32 -143 -66q-2 -1 -15 -6.5t-25.5 -10.5t-32 -13t-36.5 -14t-37 -12.5t-36.5 -10.5t-31 -6t-24.5 -0.5t-14 7.5z" />
<glyph unicode="&#xb6;" horiz-adv-x="440" d="M51 295l12 72l-2 -2q-13 -11 -24.5 9t-11.5 29q-1 -3 -4.5 -14.5t-6 -17.5t-8.5 -16t-15 -18q-8 -6 -14 -4q-5 4 -6.5 8.5t-1.5 14v10.5q0 50 19 143q23 100 43 151q1 2 1.5 4t1.5 5.5t2 5.5q-6 0 -20 2q-38 2 -49 10q-13 8 16.5 22.5t48.5 19.5q-4 0 -15.5 -0.5t-18 0 t-16.5 1.5t-18.5 3.5t-16.5 6.5q-7 6 -1 12q6 5 13.5 7.5t21 5.5t15.5 3q37 6 192 21q13 25 26 20q5 0 7 -19q144 5 186 2l4 6t3 5t2 3t1 2q4 -3 6 -17q27 0 44 -7q12 -6 -16 -16q-11 -5 -27 -9v-3q27 1 47 -5.5t27 -11.5t7 -4q-1 -12 -84 -28q-11 -172 -50 -428 q-35 -224 -62 -326q-17 -67 -28 -83q-11 -17 -17 25q-7 53 -4 99q-2 -8 -7 -35t-8.5 -41t-10.5 -34.5t-16 -35.5q-9 -13 -13 0q-4 19 1 91q9 107 47 356q45 260 70 362q1 8 8 37q-48 -7 -114 -13q-18 -221 -48 -402q-35 -224 -62 -326q-17 -67 -28 -83q-11 -17 -17 25 q-7 53 -4 99q-2 -8 -7 -35t-8.5 -41t-10.5 -34.5t-16 -35.5q-9 -13 -13 0q-4 19 1 91q9 107 47 356zM363 647q3 30 9 52q-6 0 -8 -1v-23t-0.5 -19.5t-0.5 -8.5zM77 668q0 4 1 6h-2zM417 808q0 1 -1 1z" />
<glyph unicode="&#xb7;" horiz-adv-x="259" d="M148 380q11 21 27 27q15 4 20.5 -9.5t2.5 -37.5t-6.5 -39t-6.5 -26q-8 -25 -38 -64q-43 -55 -46 -1q-35 -55 -42 3q-4 35 2 67q9 53 31 84q14 18 32.5 19.5t23.5 -23.5z" />
<glyph unicode="&#xb8;" horiz-adv-x="182" d="M193 -90q12 -47 -5 -106.5t-67 -88.5q-54 -31 -123 -16q-16 5 -57 28.5t-28 33.5q4 3 16.5 -0.5t26.5 -9.5t16 -6q45 -10 79 -1q-53 -2 -91 25q-14 9 -33 32.5t-6 33.5q3 2 13.5 -4t23 -14t13.5 -9q37 -16 68 -8q30 9 38 29.5t-1 46.5t-23 51.5t-28 50.5t-15 37 q-4 31 8.5 63t36.5 50q12 9 14 -14q2 -14 -1 -52q-3 -32 -1 -37q-1 5 2.5 20.5t11 29.5t16.5 10q4 -2 4 -22.5t1 -26.5q3 -9 28 -31q51 -49 63 -95z" />
<glyph unicode="&#xb9;" horiz-adv-x="300" d="M222 733q4 -8 -22 -47q12 10 19 15q7 34 17 35q5 0 5 -21q9 2 2 -8q-2 -3 -3 -4q-5 -129 -46 -305q-27 -103 -42 -130q-16 -29 -18 17l1 43q0 -1 -2 -7t-4 -12.5t-4.5 -13.5t-5 -11t-5.5 -4q-27 4 36 296q-34 -41 -66 -63q-10 -8 -18 -5.5t-3 17.5q-20 -18 -24 -14l-2 2 q-10 6 35 64t95.5 110.5t54.5 45.5z" />
<glyph unicode="&#xba;" horiz-adv-x="486" d="M324 670q14 42 37 -37q1 -2 2 -6l1 -2q14 -73 -4 -151.5t-64 -135.5q-23 -30 -54.5 -47t-66 -12t-58.5 38q-25 34 -31.5 83.5t1 94t24.5 87.5q14 37 43.5 69.5t67 44t70.5 -32.5q0 2 -7.5 23t-10.5 33.5t0 20.5q6 4 14.5 -4.5t16 -23.5t12.5 -25.5t7 -16.5zM301 622 q-19 12 -23 16q-5 5 -15 10q7 -5 18 -42q7 -20 1 -19q-9 1 -22 26.5t-31 23.5q-28 -5 -52 -59q-43 -101 -19 -186q7 -28 20.5 -37t28 -2t28 21.5t24.5 33.5q59 101 42 214zM364 625v3v-3z" />
<glyph unicode="&#xbb;" horiz-adv-x="700" d="M664 250q37 11 30 -11q-8 -24 -39 -52q4 -6 -15.5 -19.5t-54 -32.5t-36.5 -20q-67 -39 -124 -63q-38 -18 -93 -26q-48 -7 -36 14q5 9 20 22q-53 -12 -48 9q5 19 46 53q88 71 190 123q-88 73 -143 145q-27 37 -26 60q0 21 38 0q-34 57 7 45q43 -12 119 -69q2 -1 24.5 -18 t30 -23t27.5 -23t29.5 -27.5t23 -26t20.5 -30.5t10 -30zM396 272q37 11 30 -11q-8 -24 -39 -52q4 -6 -15.5 -19.5t-54 -32.5t-36.5 -20q-67 -39 -124 -63q-38 -18 -93 -26q-48 -7 -36 14q5 9 20 22q-53 -12 -48 9q5 19 46 53q88 71 190 123q-88 73 -143 145q-27 37 -26 60 q0 21 38 0q-34 57 7 45q43 -12 119 -69q2 -1 24.5 -18t30 -23t27.5 -23t29.5 -27.5t23 -26t20.5 -30.5t10 -30z" />
<glyph unicode="&#xbc;" horiz-adv-x="661" d="M492 573q21 26 42 46t35 30t25 16.5t16 8.5t5 3q8 -11 -132 -188t-187 -230q-136 -157 -220 -240q-40 -40 -58 -50q-14 -8 9 34q21 40 38 63q-76 -81 -111 -103q-2 -2 -5 -3.5t-6.5 -2.5t-5.5 0t-2 6q1 9 6 20t10 18t13.5 19.5t11.5 16.5q69 103 227 295q154 186 256 289 q3 3 16.5 17t20 20t18 15t21.5 15q28 16 -6 -50zM613 297l8 -3h-1q13 -1 -5.5 -109t-28.5 -132q-2 -4 -10.5 -34t-18.5 -50.5t-23 -24.5q-19 -7 -9 84q1 8 1 11q0 -1 -3 -8t-6 -14.5t-7.5 -17t-9 -17.5t-9 -15t-9 -10t-8.5 -1q-4 11 -2 34t7.5 62t5.5 41q-23 -11 -76 -8 q-20 -27 -22 10q0 10 1 19q-11 -2 -24 -2q-17 -26 -26 -21q-10 5 9.5 87t32.5 91q28 53 50 66q19 10 20 -26q12 22 20 32t12 8l6 -4q7 -1 -5.5 -72.5t-18.5 -85.5q30 4 46 8q43 91 63 86q9 -2 12 -26q19 45 28 42zM129 425q-35 -70 -45 -67q-7 3 -8 15t3.5 31.5t11.5 42 t16.5 48t19 48t19 44t15 33.5t8.5 19q33 67 52 82q5 5 7 0q6 -23 -9 -71t-16 -53q1 2 11 20q76 137 83 137q9 -11 3.5 -41.5t-13.5 -55t-19.5 -55t-14.5 -40.5q-22 -97 -106 -222q-33 -48 -32 1q1 40 14 84zM615 677v1v-1z" />
<glyph unicode="&#xbd;" horiz-adv-x="676" d="M-29 -43q-9 5 31.5 66t108 147.5t107.5 136.5t65 80q137 162 223 247l14.5 14.5t17 16.5t16 13.5t18.5 11.5q22 10 -4 -44q-22 -44 -42 -73q7 7 24.5 26t28.5 30t27.5 25t31.5 22q3 2 5.5 2.5t4 -0.5t2 -3t-0.5 -5q-7 -21 -48 -77q-64 -88 -225 -281q-160 -186 -246 -274 q-55 -55 -75 -67q-30 -19 42 93q2 1 2 2q-114 -117 -128 -109zM541 20q43 12 62 -22q-2 -30 -142 -61q-65 -11 -95 -4q-17 4 -23.5 14t-1 21.5t21.5 19.5q-40 4 8 59q6 6 17 18l24 28q2 3 10 16t11 18t10 17t10 18.5t8.5 17.5t8.5 19t6.5 18.5t5.5 19.5q-6 -1 -48 -26 q-26 -15 -27 -5q1 28 21.5 49.5t48.5 29.5q-55 -1 -96 -67q-3 -5 -9 -20t-12 -27t-13 -15q-2 0 -3 1q-25 13 2 70t48 78q48 43 110 41q56 -1 79 -34.5t15 -79.5t-27 -90t-42 -74q37 1 42 -15.5t-30 -32.5zM163 425q-35 -70 -45 -67q-7 3 -8 15t3.5 31.5t11.5 42t16.5 48 t19 48t19 44t15 33.5t8.5 19q33 67 52 82q5 5 7 0q6 -23 -9 -71t-16 -53q1 2 11 20q76 137 83 137q9 -11 3.5 -41.5t-13.5 -55t-19.5 -55t-14.5 -40.5q-22 -97 -106 -222q-33 -48 -32 1q1 40 14 84zM603 3v-5q2 -3 1 1q0 1 -1 4z" />
<glyph unicode="&#xbe;" horiz-adv-x="666" d="M-39 -43q-9 5 31.5 66t108 147.5t107.5 136.5t65 80q137 162 223 247q47 47 66 56q22 10 -4 -44q-22 -44 -42 -73q7 7 24.5 26t28.5 30t27.5 25t31.5 22q3 2 5.5 2.5t4 -0.5t2 -3t-0.5 -5q-7 -21 -48 -77q-64 -88 -225 -281q-160 -186 -246 -274l-21.5 -21.5t-29 -27.5 t-24.5 -18q-30 -19 42 93q2 1 2 2q-114 -117 -128 -109zM257 575q36 -34 39.5 -78t-20.5 -79t-59 -60t-78.5 -23.5t-76.5 34.5q-7 5 -4 12q5 3 33.5 -1.5t31.5 -4.5q40 3 70 26l2 2q-2 -1 -5 -2q-50 -18 -78 -9l-2 1q-13 4 -36 28.5t-8 34.5q2 1 11.5 -4t19.5 -11t13 -6 q27 -6 52 15q26 30 7 66q-4 3 -15 6t-23.5 5t-23.5 4.5t-17 6.5t-3 9q11 19 38 26t51 2l2 2l-18 6q-35 -7 -42 4q-13 -2 -24 4q-2 6 6.5 10.5t21.5 7t23 4t13 1.5q52 34 46 59q-5 1 -16 7t-17 8q-4 0 -17 -1q-52 -5 -53 10q1 8 9 19q-1 0 -12 -6.5t-20.5 -10.5t-12.5 0l-5 6 q-13 9 33.5 38t63.5 34q37 9 74.5 -2t58.5 -41q26 -39 15.5 -84.5t-48.5 -74.5zM612 294q14 -1 -10 -132q-30 -171 -63 -212q-11 -12 -19 -6q-13 10 -2 95q0 -1 -3 -8t-6 -14.5t-7.5 -17t-9 -17.5t-9 -15t-9 -10t-8.5 -1q-4 11 -2 34t7.5 62t5.5 41q-23 -11 -76 -8 q-20 -27 -22 10q0 10 1 19q-11 -2 -24 -2q-17 -26 -26 -21q-10 5 9.5 87t32.5 91q28 53 50 66q19 10 20 -26q12 22 20 32t12 8l6 -4q7 -1 -5.5 -72.5t-18.5 -85.5q30 4 46 8q43 91 63 86q9 -2 12 -26q19 45 28 42z" />
<glyph unicode="&#xbf;" horiz-adv-x="453" d="M207 -73q-80 5 -130.5 52t-60.5 109t13.5 128t78.5 107q5 3 35 21.5t40 25t32.5 21.5t38.5 28t31 27l2 2q56 59 58 31q2 -41 -42 -94q1 1 17 17.5t29.5 28.5t17.5 10q16 -9 -7 -40.5t-63.5 -68t-73 -63.5t-42.5 -34q-41 -29 -52 -71.5t20 -84.5q20 -25 56.5 -33t72 -1.5 t62.5 23.5q8 5 22 26.5t24.5 36.5t14.5 9q14 -28 6 -57.5t-31 -49.5q48 35 53 97q0 5 -2.5 26.5t-3.5 35t4 22.5q10 8 26 -33q12 -32 14 -46q11 -68 -31 -121q-36 -47 -99 -68.5t-130 -18.5zM421 731q5 20 33 32h-3q1 0 2 0.5t2 0.5h1q35 2 11 -79q-22 -73 -55 -112 q-21 -25 -26 -1q-32 -61 -47 -21q-11 30 -4 70q3 21 32 76q40 75 54 34z" />
<glyph unicode="&#xc0;" horiz-adv-x="521" d="M562 701q-18 -24 -137 20l-7 -18q50 -232 74 -539q12 -139 6 -183q-6 -45 -30 29l-20 77q2 -100 -2 -137q-2 -26 -10 -25q-4 0 -8 9q-12 26 -21.5 62t-13.5 58t-10.5 71t-8.5 60q-85 3 -212 24q-142 -242 -157 -232l-6 3q-4 1 4.5 24t27.5 64q-28 -39 -54 -57t-17 21 q1 3 2 7q15 58 86 192l-4 1l-8 2l-10 2.5t-12 3.5t-12.5 4t-11.5 4t-9 4t-6 4t-1 4q3 6 12 10.5t22.5 5.5t23.5 1.5t25 0t16 -0.5v1q-42 11 -33 19q8 7 49 8q121 219 231 374q0 8 -2.5 38.5t-2.5 47.5q-1 0 -2.5 0.5t-2.5 1.5q-93 34 -143 66q-44 27 -24 38q16 8 58 -1 q-47 27 -51 47t48 9q69 -14 177 -59q108 -44 172 -83q51 -31 34 -43q-14 -9 -62 2q25 -15 36 -25.5t7 -16.5zM360 279l-29 240q-51 -100 -117 -218q97 -7 146 -22z" />
<glyph unicode="&#xc1;" horiz-adv-x="521" d="M216 686q-4 6 7 16.5t36 25.5q-67 -15 -65 5q1 14 37 36q47 28 90 47q4 14 7 20q8 18 21 -6l54 22q108 45 177 59q52 11 48 -9t-51 -47q54 12 63 -3q6 -12 -29 -34q-50 -32 -143 -66q-11 -6 -38 -16q-4 -15 -12 -33q50 -232 74 -539q12 -139 6 -183q-6 -45 -30 29l-20 77 q2 -100 -2 -137q-2 -26 -10 -25q-4 0 -8 9q-12 26 -21.5 62t-13.5 58t-10.5 71t-8.5 60q-85 3 -212 24q-142 -242 -157 -232l-6 3q-4 1 4.5 24t27.5 64q-28 -39 -54 -57t-17 21q1 3 2 7q15 58 86 192l-4 1l-8 2l-10 2.5t-12 3.5t-12.5 4t-11.5 4t-9 4t-6 4t-1 4q3 6 12 10.5 t22.5 5.5t23.5 1.5t25 0t16 -0.5v1q-42 11 -33 19q8 7 49 8q121 219 231 374q0 2 -0.5 7t-0.5 8q-89 -27 -103 -8zM360 279l-29 240q-51 -100 -117 -218q97 -7 146 -22z" />
<glyph unicode="&#xc2;" horiz-adv-x="521" d="M228 731q-12 3 10 57t60.5 112t66.5 69q-12 26 5 24q21 -3 43 -24q13 7 17.5 0t3.5 -20q27 -33 29 -35q32 -42 54 -80q17 -29 25 -66q6 -29 -11 -21q-6 3 -15 10q11 -35 -4 -35.5t-36 19.5q-49 45 -90 103q-8 -13 -26 -39q4 -11 7.5 -23t6.5 -21l2 -9q0 47 10 47 q3 0 6.5 -4.5t6 -11.5t4.5 -14t3.5 -13.5t1.5 -7.5q21 28 27 21q6 -10 -17 -66q50 -232 74 -539q12 -139 6 -183q-6 -45 -30 29l-20 77q2 -100 -2 -137q-2 -26 -10 -25q-4 0 -8 9q-12 26 -21.5 62t-13.5 58t-10.5 71t-8.5 60q-85 3 -212 24q-142 -242 -157 -232l-6 3 q-4 1 4.5 24t27.5 64q-28 -39 -54 -57t-17 21q1 3 2 7q15 58 86 192l-4 1l-8 2l-10 2.5t-12 3.5t-12.5 4t-11.5 4t-9 4t-6 4t-1 4q3 6 12 10.5t22.5 5.5t23.5 1.5t25 0t16 -0.5v1q-42 11 -33 19q8 7 49 8q121 219 231 374q0 9 -2 32t-3 37q-5 -6 -17 -16 q-17 -16 -30.5 -14.5t-4.5 27.5q-23 -18 -35 -14zM360 279l-29 240q-51 -100 -117 -218q97 -7 146 -22z" />
<glyph unicode="&#xc3;" horiz-adv-x="521" d="M158 763q3 43 28.5 83t46.5 58q21 17 40.5 23t41 -2.5t33 -15t38.5 -28.5t35 -28q18 -13 36 -14t28.5 4t31.5 19.5t31 19.5q14 8 9 -11q-10 -34 -40 -78q-3 -5 -5 -7q3 1 17 13t27 21t15 6q10 -13 -22 -47.5t-48 -46.5q-36 -24 -78 -15q-1 -3 -5 -14q50 -232 74 -539 q12 -139 6 -183q-6 -45 -30 29l-20 77q2 -100 -2 -137q-2 -26 -10 -25q-4 0 -8 9q-12 26 -21.5 62t-13.5 58t-10.5 71t-8.5 60q-85 3 -212 24q-142 -242 -157 -232l-6 3q-4 1 4.5 24t27.5 64q-28 -39 -54 -57t-17 21q1 3 2 7q15 58 86 192l-4 1l-8 2l-10 2.5t-12 3.5 t-12.5 4t-11.5 4t-9 4t-6 4t-1 4q3 6 12 10.5t22.5 5.5t23.5 1.5t25 0t16 -0.5v1q-42 11 -33 19q8 7 49 8q121 219 231 374q-6 97 -3 118q-17 13 -34 14q-4 0 -20 -10.5t-31 -19t-16 -5.5q-11 20 18 50t46 38q-39 1 -87 -64q-1 -1 -8 -12t-14 -20t-10 -8l-3 2v1zM360 279 l-29 240q-51 -100 -117 -218q97 -7 146 -22z" />
<glyph unicode="&#xc4;" horiz-adv-x="521" d="M320 679q17 23 33.5 33t28.5 7.5t20 -11t11 -20.5q57 -244 79 -524q12 -139 6 -183q-6 -45 -30 29l-20 77q2 -100 -2 -137q-2 -26 -10 -25q-4 0 -8 9q-12 26 -21.5 62t-13.5 58t-10.5 71t-8.5 60q-85 3 -212 24q-142 -242 -157 -232l-6 3q-4 1 4.5 24t27.5 64 q-28 -39 -54 -57t-17 21q1 3 2 7q15 58 86 192l-4 1l-8 2l-10 2.5t-12 3.5t-12.5 4t-11.5 4t-9 4t-6 4t-1 4q3 6 12 10.5t22.5 5.5t23.5 1.5t25 0t16 -0.5v1q-42 11 -33 19q8 7 49 8q130 236 231 374zM454 735q-11 -21 -27 -27q-15 -4 -20.5 9.5t-2.5 37.5t6.5 39t6.5 26 q8 25 38 64q43 55 46 1q35 55 42 -3q4 -35 -2 -67q-9 -53 -31 -84q-14 -18 -32.5 -19.5t-23.5 23.5zM338 865q11 21 27 27q15 4 20.5 -9.5t2.5 -37.5t-6.5 -39t-6.5 -26q-8 -25 -38 -64q-43 -55 -46 -1q-35 -55 -42 3q-4 35 2 67q9 53 31 84q14 18 32.5 19.5t23.5 -23.5z M360 279l-29 240q-51 -100 -117 -218q97 -7 146 -22z" />
<glyph unicode="&#xc5;" horiz-adv-x="521" d="M505 722q-32 -31 -83 -40q45 -213 70 -518q12 -139 6 -183q-6 -45 -30 29l-20 77q2 -100 -2 -137q-2 -26 -10 -25q-4 0 -8 9q-12 26 -21.5 62t-13.5 58t-10.5 71t-8.5 60q-85 3 -212 24q-142 -242 -157 -232l-6 3q-4 1 4.5 24t27.5 64q-28 -39 -54 -57t-17 21q1 3 2 7 q15 58 86 192l-4 1l-8 2l-10 2.5t-12 3.5t-12.5 4t-11.5 4t-9 4t-6 4t-1 4q3 6 12 10.5t22.5 5.5t23.5 1.5t25 0t16 -0.5v1q-42 11 -33 19q8 7 49 8q121 219 231 374l-2 27q-42 29 -54.5 85t2.5 109t59.5 92t104.5 38t100.5 -47.5t35.5 -106.5q-2 -17 -19 -48 q-15 -26 -20 -8q-1 1 -1 2q-2 10 -4.5 30.5t-6 35.5t-12.5 29q1 -3 2.5 -13.5t2.5 -23.5t-2 -22t-11 -8q-4 0 -9.5 12t-11 25.5t-7.5 16.5q-25 24 -53.5 6.5t-36.5 -51.5t6 -61q1 1 3 1q6 0 11 -14q7 -3 50 2q22 2 23 -4q1 -4 -5 -13q-12 -18 -32 -26l-4 -12q23 3 49 18 q6 3 32 31t34 27q14 -1 -7.5 -38.5t-31.5 -47.5zM360 279l-29 240q-51 -100 -117 -218q97 -7 146 -22z" />
<glyph unicode="&#xc6;" horiz-adv-x="720" d="M864 683q-2 -31 -108.5 -56t-223.5 -32q0 -78 -20 -200q6 1 25 4.5t28 5t27 3.5t29.5 2t26 -1t26.5 -4q19 -5 -11.5 -22.5t-54.5 -27.5q19 0 25.5 -3.5t1 -9.5t-21.5 -13q-53 -23 -123 -38q-30 -122 -64 -179q185 44 283 53q56 6 64 -8t-52 -36q60 0 65 -12q2 -6 -19 -14 l-2 -1q-39 -14 -119 -36q-4 -1 -30.5 -8.5t-32.5 -9t-30.5 -8t-33 -8t-30.5 -7t-33.5 -7t-31 -5t-33.5 -4.5t-31 -2.5t-33 -1.5q-9 -21 -18.5 -30t-15.5 -1t-5 34q-15 6 -14 16t13 19q-40 0 -40 9l1 7q-1 4 12 10t36 14q4 33 14 79q-126 4 -158 14q-169 -224 -184 -212l-5 4 q-4 1 7 23t35 61q-32 -35 -60 -51q-23 -12 -18 13q2 7 6 17q6 16 15 33.5t15 28.5t20 32.5t18 27.5t22 31t19 27q-1 0 -9.5 3.5t-19 8t-20.5 9.5t-16.5 9.5t-4.5 7.5q4 6 13.5 9t22.5 3t24 -1.5t24 -3.5t16 -2v1q-52 21 -21 25q14 2 40 0q145 200 275 343q1 9 2.5 37t3 44 t7 38t14.5 36q13 22 26 -28q8 -33 11 -61l1 7l2 12t3 12.5t4.5 10.5t5.5 3q6 0 10 -19q5 11 8 18.5t7 15.5t7 11.5t5 2.5q4 -3 5 -13t0 -19t-3 -20t-2 -13q3 2 7 2q114 31 246 47t135 -3l-1 -7q0 -9 -52 -25q23 -1 35 -6t11 -15zM215 253q23 -5 115 -3q4 20 14 62 q-25 8 -17 21t28 22q20 84 41 161l-38 -61q-91 -132 -143 -202z" />
<glyph unicode="&#xc7;" horiz-adv-x="471" d="M260 -127q12 -47 -5 -106.5t-67 -88.5q-54 -31 -123 -16q-16 5 -57 28.5t-28 33.5q4 3 16.5 -0.5t26.5 -9.5t16 -6q45 -10 79 -1q-53 -2 -91 25q-14 9 -33 32.5t-6 33.5q3 2 13.5 -4t23 -14t13.5 -9q37 -16 68 -8q30 9 38 29.5t-1 46.5t-23 51.5t-28 50.5t-15 37 q-1 8 -1 23q-45 32 -65.5 94.5t-21.5 132.5q-1 66 10 135.5t35 138t68 125.5t101 87q40 21 83 23.5t80.5 -19.5t53.5 -67q21 36 36 40q7 2 9 -10l1 -9q39 54 37 9q-3 -54 -40 -155l-7 -18q-31 -78 -57 -122q-39 -56 -41 -16q-39 -56 -37 2q1 7 12 91q1 5 1 7q0 1 2.5 41.5 t-0.5 65t-14 37.5q-51 61 -115 -43t-83 -179q-7 -25 -13.5 -69.5t-10 -102t12 -97t50.5 -36.5q19 1 37.5 9.5t31.5 17t31 28t25 27.5t25.5 33.5t21.5 28.5q46 64 56 54q18 -17 -21 -90q1 1 8.5 10.5t16.5 20t18.5 20.5t17.5 15.5t12 2.5q18 -20 -29 -90.5t-81 -105.5 q-69 -74 -150 -88l14 -12q51 -49 63 -95z" />
<glyph unicode="&#xc8;" horiz-adv-x="478" d="M569 683q-2 -31 -108.5 -56t-223.5 -32q0 -78 -20 -200q6 1 25 4.5t28 5t27 3.5t29.5 2t26 -1t26.5 -4q19 -5 -11.5 -22.5t-54.5 -27.5q19 0 25.5 -3.5t1 -9.5t-21.5 -13q-53 -23 -123 -38q-30 -122 -64 -179q185 44 283 53q56 6 64 -8t-52 -36q60 0 65 -12q2 -6 -19 -14 l-2 -1q-39 -14 -119 -36q-4 -1 -30.5 -8.5t-32.5 -9t-30.5 -8t-33 -8t-30.5 -7t-33.5 -7t-31 -5t-33.5 -4.5t-31 -2.5t-33 -1.5q-9 -21 -18.5 -30t-15.5 -1t-5 34q-15 6 -14 16t13 19q-40 0 -40 9l1 7q-2 7 48 24q13 85 48 237q-25 8 -17 21t28 22q33 136 65 242 q-29 6 -27 15q1 3 9.5 6.5t17.5 5.5l9 3q1 1 1 4q-45 -1 -41 13q5 16 54 34q2 1 3 1q1 3 5.5 14.5t11 27t12.5 26t8 8.5q4 -3 5 -13t0 -19t-3 -20.5t-2 -12.5q97 27 202 42q-56 18 -142 56q-93 34 -143 66q-44 27 -24 38q16 8 58 -1q-47 27 -51 47t48 9q69 -14 177 -59 q108 -44 172 -83q51 -31 34 -43q-14 -9 -62 2q26 -17 29 -20q41 4 66 2t24 -10l-1 -7q0 -9 -52 -25q23 -1 35 -6t11 -15z" />
<glyph unicode="&#xc9;" horiz-adv-x="478" d="M148 691q-6 8 17 25l5 13q-28 -4 -38.5 0.5t-2.5 16.5t34 28q64 39 172 83q108 45 177 59q52 11 48 -9t-51 -47q54 12 63 -3q6 -12 -29 -34q-50 -32 -143 -66q-4 -1 -20.5 -8.5t-38.5 -16.5t-43 -16q107 21 190.5 28t87.5 -8l-1 -7q0 -9 -52 -25q23 -1 35 -6t11 -15 q-2 -31 -108.5 -56t-223.5 -32q0 -78 -20 -200q6 1 25 4.5t28 5t27 3.5t29.5 2t26 -1t26.5 -4q19 -5 -11.5 -22.5t-54.5 -27.5q19 0 25.5 -3.5t1 -9.5t-21.5 -13q-53 -23 -123 -38q-30 -122 -64 -179q185 44 283 53q56 6 64 -8t-52 -36q60 0 65 -12q2 -6 -19 -14l-2 -1 q-39 -14 -119 -36q-4 -1 -30.5 -8.5t-32.5 -9t-30.5 -8t-33 -8t-30.5 -7t-33.5 -7t-31 -5t-33.5 -4.5t-31 -2.5t-33 -1.5q-9 -21 -18.5 -30t-15.5 -1t-5 34q-15 6 -14 16t13 19q-40 0 -40 9l1 7q-2 7 48 24q13 85 48 237q-25 8 -17 21t28 22q33 136 65 242q-29 6 -27 15 q1 3 9.5 6.5t17.5 5.5l9 3q1 1 1 4q-45 -1 -41 13q5 16 54 34q2 1 3 1q1 3 2 7q-3 2 -5 5z" />
<glyph unicode="&#xca;" horiz-adv-x="478" d="M142 767q-12 3 10 57t60.5 112t66.5 69q-12 26 5 24q21 -3 43 -24q13 7 17.5 0t3.5 -20q28 -33 29 -35q32 -42 54 -80q17 -29 25 -66q6 -29 -11 -21q-6 3 -15 10q11 -35 -4 -35.5t-36 19.5q-49 45 -90 103q-48 -76 -88 -112q-13 -11 -23 -14q3 -4 3.5 -14t-0.5 -18.5 t-2 -19.5l-2 -12q114 32 249.5 49t138.5 -3l-1 -7q0 -9 -52 -25q23 -1 35 -6t11 -15q-2 -31 -108.5 -56t-223.5 -32q0 -78 -20 -200q6 1 25 4.5t28 5t27 3.5t29.5 2t26 -1t26.5 -4q19 -5 -11.5 -22.5t-54.5 -27.5q19 0 25.5 -3.5t1 -9.5t-21.5 -13q-53 -23 -123 -38 q-30 -122 -64 -179q185 44 283 53q56 6 64 -8t-52 -36q60 0 65 -12q2 -6 -19 -14l-2 -1q-39 -14 -119 -36q-4 -1 -30.5 -8.5t-32.5 -9t-30.5 -8t-33 -8t-30.5 -7t-33.5 -7t-31 -5t-33.5 -4.5t-31 -2.5t-33 -1.5q-9 -21 -18.5 -30t-15.5 -1t-5 34q-15 6 -14 16t13 19 q-40 0 -40 9l1 7q-2 7 48 24q13 85 48 237q-25 8 -17 21t28 22q33 136 65 242q-29 6 -27 15q1 3 9.5 6.5t17.5 5.5l9 3q1 1 1 4q-45 -1 -41 13q5 16 54 34q2 1 3 1l4 11q4 10 8.5 22t10.5 24.5t10 16.5q-16 0 -7 28q-23 -18 -35 -14z" />
<glyph unicode="&#xcb;" horiz-adv-x="478" d="M569 683q-2 -31 -108.5 -56t-223.5 -32q0 -78 -20 -200q6 1 25 4.5t28 5t27 3.5t29.5 2t26 -1t26.5 -4q19 -5 -11.5 -22.5t-54.5 -27.5q19 0 25.5 -3.5t1 -9.5t-21.5 -13q-53 -23 -123 -38q-30 -122 -64 -179q185 44 283 53q56 6 64 -8t-52 -36q60 0 65 -12q2 -6 -19 -14 l-2 -1q-39 -14 -119 -36q-4 -1 -30.5 -8.5t-32.5 -9t-30.5 -8t-33 -8t-30.5 -7t-33.5 -7t-31 -5t-33.5 -4.5t-31 -2.5t-33 -1.5q-9 -21 -18.5 -30t-15.5 -1t-5 34q-15 6 -14 16t13 19q-40 0 -40 9l1 7q-2 7 48 24q13 85 48 237q-25 8 -17 21t28 22q33 136 65 242 q-29 6 -27 15q1 3 9.5 6.5t17.5 5.5l9 3q1 1 1 4q-45 -1 -41 13q5 16 54 34q2 1 3 1q1 3 5.5 14.5t11 27t12.5 26t8 8.5q4 -3 5 -13t0 -19t-3 -20.5t-2 -12.5q114 32 249.5 49t138.5 -3l-1 -7q0 -9 -52 -25q23 -1 35 -6t11 -15zM415 784q-11 -21 -27 -27q-15 -4 -20.5 9.5 t-2.5 37.5t6.5 39t6.5 26q8 25 38 64q43 55 46 1q35 55 42 -3q4 -35 -2 -67q-9 -53 -31 -84q-14 -18 -32.5 -19.5t-23.5 23.5zM299 914q11 21 27 27q15 4 20.5 -9.5t2.5 -37.5t-6.5 -39t-6.5 -26q-8 -25 -38 -64q-43 -55 -46 -1q-35 -55 -42 3q-4 35 2 67q9 53 31 84 q14 18 32.5 19.5t23.5 -23.5z" />
<glyph unicode="&#xcc;" horiz-adv-x="407" d="M-37 34q0 1 35 15q-38 -1 -42 11q-3 8 16 18q3 1 5 2q40 18 133 37q25 251 76 476q-2 0 -17.5 -2t-26 -2.5t-24.5 -0.5t-24.5 3t-15.5 9q-6 6 3 13t25.5 12.5t28 8.5t18.5 5q-60 7 -58 21q1 12 116 31q14 43 28 51l-7 4q-76 37 -109 64q-30 25 -19.5 35.5t45.5 0.5 q-40 29 -39 49q1 15 37 6q56 -15 134 -58q82 -42 132 -80q34 -26 27 -39.5t-49 -0.5l13 -11l18 -2q18 -3 24 -12t-1 -19t-23 -16q23 -3 23 -11l-1 -6q3 -16 -153 -41q13 -108 -77 -472q100 12 101 -4v-6q0 -7 -37 -20q26 -1 33 -14.5t-18 -27.5q-32 -17 -105 -30l-2 -9 q-7 2 -11 7q-26 -5 -50 -6q-11 -30 -17 -28q-4 11 -4 26q-142 -11 -141 13zM254 699q34 6 52 8l-56 29q4 -9 4 -37z" />
<glyph unicode="&#xcd;" horiz-adv-x="407" d="M118 676q-4 6 7 16.5t36 25.5q-67 -15 -65 5q1 14 37 36q64 39 172 83q108 45 177 59q52 11 48 -9t-51 -47q54 12 63 -3q6 -12 -29 -34q-50 -32 -143 -66q-77 -32 -98 -40q98 16 150 8q18 -3 24 -12t-1 -19t-23 -16q23 -3 23 -11l-1 -6q3 -16 -153 -41q13 -108 -77 -472 q100 12 101 -4v-6q0 -7 -37 -20q26 -1 33 -14.5t-18 -27.5q-32 -17 -105 -30l-2 -9q-7 2 -11 7q-26 -5 -50 -6q-11 -30 -17 -28q-4 11 -4 26q-142 -11 -141 13q0 1 35 15q-38 -1 -42 11q-3 8 16 18q3 1 5 2q40 18 133 37q25 251 76 476q-2 0 -17.5 -2t-26 -2.5t-24.5 -0.5 t-24.5 3t-15.5 9q-6 6 3 13t25.5 12.5t28 8.5t18.5 5q-60 7 -58 21q0 6 25 13q-2 2 -2 3z" />
<glyph unicode="&#xce;" horiz-adv-x="407" d="M-37 34q0 1 35 15q-38 -1 -42 11q-3 8 16 18q3 1 5 2q40 18 133 37q25 251 76 476q-2 0 -17.5 -2t-26 -2.5t-24.5 -0.5t-24.5 3t-15.5 9q-6 6 3 13t25.5 12.5t28 8.5t18.5 5q-60 7 -58 21q1 12 116 31q16 50 31 53q13 2 12 -45q115 20 168 11q18 -3 24 -12t-1 -19 t-23 -16q23 -3 23 -11l-1 -6q3 -16 -153 -41q13 -108 -77 -472q100 12 101 -4v-6q0 -7 -37 -20q26 -1 33 -14.5t-18 -27.5q-32 -17 -105 -30l-2 -9q-7 2 -11 7q-26 -5 -50 -6q-11 -30 -17 -28q-4 11 -4 26q-142 -11 -141 13zM100 731q-12 3 10 57t60.5 112t66.5 69 q-12 26 5 24q21 -3 43 -24q13 7 17.5 0t3.5 -20q27 -33 29 -35q32 -42 54 -80q17 -29 25 -66q6 -29 -11 -21q-6 3 -15 10q11 -35 -4 -35.5t-36 19.5q-49 45 -90 103q-48 -76 -88 -112q-17 -16 -30.5 -14.5t-4.5 27.5q-23 -18 -35 -14z" />
<glyph unicode="&#xcf;" horiz-adv-x="407" d="M-37 34q0 1 35 15q-38 -1 -42 11q-3 8 16 18q3 1 5 2q40 18 133 37q25 251 76 476q-2 0 -17.5 -2t-26 -2.5t-24.5 -0.5t-24.5 3t-15.5 9q-6 6 3 13t25.5 12.5t28 8.5t18.5 5q-60 7 -58 21q1 12 116 31q16 50 31 53q13 2 12 -45q115 20 168 11q18 -3 24 -12t-1 -19 t-23 -16q23 -3 23 -11l-1 -6q3 -16 -153 -41q13 -108 -77 -472q100 12 101 -4v-6q0 -7 -37 -20q26 -1 33 -14.5t-18 -27.5q-32 -17 -105 -30l-2 -9q-7 2 -11 7q-26 -5 -50 -6q-11 -30 -17 -28q-4 11 -4 26q-142 -11 -141 13zM339 773q-11 -21 -27 -27q-15 -4 -20.5 9.5 t-2.5 37.5t6.5 39t6.5 26q8 25 38 64q43 55 46 1q35 55 42 -3q4 -35 -2 -67q-9 -53 -31 -84q-14 -18 -32.5 -19.5t-23.5 23.5zM223 903q11 21 27 27q15 4 20.5 -9.5t2.5 -37.5t-6.5 -39t-6.5 -26q-8 -25 -38 -64q-43 -55 -46 -1q-35 -55 -42 3q-4 35 2 67q9 53 31 84 q14 18 32.5 19.5t23.5 -23.5z" />
<glyph unicode="&#xd0;" horiz-adv-x="529" d="M496 396q7 -95 -27.5 -186t-95.5 -157.5t-144.5 -108.5t-172.5 -45q-4 0 -16 1t-29 3t-28 6.5t-9 10.5q5 11 82 26q-1 0 -2.5 0.5t-2.5 1.5q-9 0 -25.5 1.5t-38.5 5.5t-36.5 12t-12.5 19q1 2 7 3.5t15 1.5h17t15.5 -0.5t8.5 -0.5q-8 65 25 260q-47 2 -80 12q-48 14 -7 35 q17 9 39 14q-40 7 -45 24q-2 11 19 18q5 2 12 4q40 7 83 9q32 161 59 250q-9 -2 -20 -4t-30.5 -4.5t-29 1t-3.5 12.5q20 31 89 54q-1 0 -12 -2.5t-21 -4.5t-22 -4t-20 -2t-9 3q-5 10 14.5 21t48 19t52.5 13.5t31 5.5q110 10 195 -54q114 -87 127 -274zM308 288 q3 -8 -12 -14.5t-44 -10.5t-54.5 -7t-57.5 -5q-18 -85 -53 -243q111 35 194 125.5t95 201.5q7 66 -8.5 127.5t-60 108t-111.5 51.5q6 -50 -34 -258q47 -1 98 -11q24 -5 32.5 -12.5t-0.5 -15.5t-36 -13q45 -8 52 -24zM153 597q8 20 8 25h-7q0 -4 -0.5 -12t-0.5 -13zM119 -42 q-1 0 -7 -2q6 2 7 2z" />
<glyph unicode="&#xd1;" horiz-adv-x="467" d="M85 758q2 28 20.5 59t33.5 46t28 26q20 13 39.5 18t34.5 4.5t35 -9.5t31 -16t34 -22.5t33 -22.5q20 -12 40 -12.5t32 4t35 17.5t34 18q15 7 9 -10q-10 -29 -42 -69q2 -2 2 -3q3 2 11.5 8t14.5 9.5t12.5 8t11 5.5t5.5 0q13 -15 -52 -70q-1 -31 -4 -62.5t-8 -68.5t-9 -61 t-12 -68.5t-11 -61.5q-38 -206 -74 -338q-2 -8 -9 -33.5t-11 -38t-12.5 -31.5t-18.5 -32q-1 -1 -4.5 -10t-8 -14t-8.5 -2q-14 9 -26 58q-3 -6 -7 -2q0 -36 -7 -38q-5 -1 -11.5 12t-13 37.5t-13 53.5t-13 66t-12.5 69.5t-11.5 69t-8.5 59.5t-6.5 46t-3.5 24 q-24 -145 -60 -283q-1 -3 -7 -30t-12 -49t-15 -49t-20 -42.5t-22 -16.5q-20 0 -7 111l-1 -4q-1 -4 -2.5 -8.5t-3 -10.5t-3.5 -11.5t-4.5 -11.5t-4.5 -11t-4.5 -9t-5.5 -5.5t-5 -1.5q-6 1 -8 19.5t1 49.5t8.5 68t13 80t14.5 80t15 73.5t11.5 55.5t6.5 30q3 12 10 45t11 50.5 t11.5 44.5t16 49t19.5 41q15 27 15 -35q0 -60 -5 -87l15 50q-1 7 -4.5 34.5t-4.5 41.5t-0.5 35t4.5 37q6 21 23 -25q8 -22 11 -35l7 17q0 2 -1.5 20.5t-2 35t1.5 32.5t8 18q14 5 52.5 -202t54.5 -311q38 232 85 396q13 38 21 57q-25 2 -41 8q-18 7 -62 43t-71 38 q-4 0 -22.5 -9.5t-34.5 -17.5t-18 -5q-12 18 21 46t51 34q-42 1 -97 -58q-1 -1 -9 -11.5t-15.5 -19t-10.5 -7.5l-3 2v1zM415 616q21 81 30 106q-11 -4 -19 -5q1 -21 -11 -101z" />
<glyph unicode="&#xd2;" horiz-adv-x="466" d="M385 114q-59 -108 -164 -129.5t-170 63.5q-61 84 -64 215t44 253t124 189q43 37 92.5 42.5t93.5 -32.5q20 -20 40 -63t-1 -56q-5 -4 -22 13.5t-34.5 39t-21.5 23.5q24 -32 28 -52q0 1 1 2q8 10 36 -31.5t36 -59.5q27 -55 35 -125q20 -162 -53 -292zM351 552 q-19 45 -21 56l-4 -3q-7 -3 -30 21.5t-37 21.5q-19 -4 -38.5 -25t-27.5 -36t-21 -42q-29 -61 -46.5 -127.5t-17.5 -142t26 -132.5q24 -53 58.5 -45.5t63.5 39t45 69.5q40 96 29 207q0 2 -7.5 39.5t-10.5 61.5t1 34q11 3 23 -13t20.5 -41t14 -43t7.5 -28q-9 74 -27 129z M478 727q-4 -6 -14 -7.5t-24.5 0.5t-31 6t-36.5 10.5t-37 12.5t-36.5 14t-32 13t-25.5 10.5t-15 6.5q-93 34 -143 66q-44 27 -24 38q16 8 58 -1q-47 27 -51 47t48 9q69 -14 177 -59q108 -44 172 -83q51 -31 34 -43q-14 -9 -62 2q25 -15 36 -25.5t7 -16.5z" />
<glyph unicode="&#xd3;" horiz-adv-x="466" d="M385 114q-59 -108 -164 -129.5t-170 63.5q-61 84 -64 215t44 253t124 189q43 37 92.5 42.5t93.5 -32.5q20 -20 40 -63t-1 -56q-5 -4 -22 13.5t-34.5 39t-21.5 23.5q24 -32 28 -52q0 1 1 2q8 10 36 -31.5t36 -59.5q27 -55 35 -125q20 -162 -53 -292zM351 552 q-19 45 -21 56l-4 -3q-7 -3 -30 21.5t-37 21.5q-19 -4 -38.5 -25t-27.5 -36t-21 -42q-29 -61 -46.5 -127.5t-17.5 -142t26 -132.5q24 -53 58.5 -45.5t63.5 39t45 69.5q40 96 29 207q0 2 -7.5 39.5t-10.5 61.5t1 34q11 3 23 -13t20.5 -41t14 -43t7.5 -28q-9 74 -27 129z M86 748q-4 6 7 16.5t36 25.5q-67 -15 -65 5q1 14 37 36q64 39 172 83q108 45 177 59q52 11 48 -9q-6 -21 -51 -47q54 12 63 -3q6 -12 -29 -34q-50 -32 -143 -66q-2 -1 -15 -6.5t-25.5 -10.5t-32 -13t-36.5 -14t-37 -12.5t-36.5 -10.5t-31 -6t-24.5 -0.5t-14 7.5z" />
<glyph unicode="&#xd4;" horiz-adv-x="466" d="M385 114q-59 -108 -164 -129.5t-170 63.5q-61 84 -64 215t44 253t124 189q43 37 92.5 42.5t93.5 -32.5q20 -20 40 -63t-1 -56q-5 -4 -22 13.5t-34.5 39t-21.5 23.5q24 -32 28 -52q0 1 1 2q8 10 36 -31.5t36 -59.5q27 -55 35 -125q20 -162 -53 -292zM351 552 q-19 45 -21 56l-4 -3q-7 -3 -30 21.5t-37 21.5q-19 -4 -38.5 -25t-27.5 -36t-21 -42q-29 -61 -46.5 -127.5t-17.5 -142t26 -132.5q24 -53 58.5 -45.5t63.5 39t45 69.5q40 96 29 207q0 2 -7.5 39.5t-10.5 61.5t1 34q11 3 23 -13t20.5 -41t14 -43t7.5 -28q-9 74 -27 129z M89 756q-12 3 10 57t60.5 112t66.5 69q-12 26 5 24q21 -3 43 -24q13 7 17.5 0t3.5 -20q28 -33 29 -35q32 -42 54 -80q17 -29 25 -66q6 -29 -11 -21q-6 3 -15 10q11 -35 -4 -35.5t-36 19.5q-49 45 -90 103q-48 -76 -88 -112q-17 -16 -30.5 -14.5t-4.5 27.5q-23 -18 -35 -14z " />
<glyph unicode="&#xd5;" horiz-adv-x="466" d="M385 114q-59 -108 -164 -129.5t-170 63.5q-61 84 -64 215t44 253t124 189q43 37 92.5 42.5t93.5 -32.5q20 -20 40 -63t-1 -56q-5 -4 -22 13.5t-34.5 39t-21.5 23.5q24 -32 28 -52q0 1 1 2q8 10 36 -31.5t36 -59.5q27 -55 35 -125q20 -162 -53 -292zM351 552 q-19 45 -21 56l-4 -3q-7 -3 -30 21.5t-37 21.5q-19 -4 -38.5 -25t-27.5 -36t-21 -42q-29 -61 -46.5 -127.5t-17.5 -142t26 -132.5q24 -53 58.5 -45.5t63.5 39t45 69.5q40 96 29 207q0 2 -7.5 39.5t-10.5 61.5t1 34q11 3 23 -13t20.5 -41t14 -43t7.5 -28q-9 74 -27 129z M65 795q3 39 28 76t45 53q21 16 40 21.5t39.5 -2t32.5 -14t37.5 -26.5t34.5 -26q18 -12 35.5 -12.5t28 4t31 17.5t30.5 18q13 7 8 -10q-8 -30 -38 -71l-6 -7q3 1 17 12t26.5 19.5t14.5 5.5q9 -12 -21.5 -44t-46.5 -42q-45 -27 -95 -8q-16 7 -55.5 42.5t-63.5 37.5 q-4 0 -20 -9.5t-30.5 -17t-15.5 -5.5q-11 18 18 46t45 34q-35 1 -86 -58q-1 -1 -4 -5.5t-6.5 -10t-7.5 -10.5t-7.5 -8.5t-5.5 -2.5l-2 2v1z" />
<glyph unicode="&#xd6;" horiz-adv-x="466" d="M385 114q-59 -108 -164 -129.5t-170 63.5q-61 84 -64 215t44 253t124 189q43 37 92.5 42.5t93.5 -32.5q20 -20 40 -63t-1 -56q-5 -4 -22 13.5t-34.5 39t-21.5 23.5q24 -32 28 -52q0 1 1 2q8 10 36 -31.5t36 -59.5q27 -55 35 -125q20 -162 -53 -292zM351 552 q-19 45 -21 56l-4 -3q-7 -3 -30 21.5t-37 21.5q-19 -4 -38.5 -25t-27.5 -36t-21 -42q-29 -61 -46.5 -127.5t-17.5 -142t26 -132.5q24 -53 58.5 -45.5t63.5 39t45 69.5q40 96 29 207q0 2 -7.5 39.5t-10.5 61.5t1 34q11 3 23 -13t20.5 -41t14 -43t7.5 -28q-9 74 -27 129z M226 924q11 21 27 27q15 4 20.5 -9.5t2.5 -37.5t-6.5 -39t-6.5 -26q-8 -25 -38 -64q-43 -55 -46 -1q-35 -55 -42 3q-4 35 2 67q9 53 31 84q14 18 32.5 19.5t23.5 -23.5zM342 794q-11 -21 -27 -27q-15 -4 -20.5 9.5t-2.5 37.5t6.5 39t6.5 26q8 25 38 64q43 55 46 1 q35 55 42 -3q4 -35 -2 -67q-9 -53 -31 -84q-14 -18 -32.5 -19.5t-23.5 23.5z" />
<glyph unicode="&#xd7;" horiz-adv-x="414" d="M92 452q8 10 34.5 -19t62.5 -79q37 30 71 52q32 20 40 11t-15 -43q37 25 54 19q13 -6 -15 -45.5t-73 -89.5q38 -67 47 -105q9 -35 -10.5 -31.5t-48.5 33.5q17 -42 1 -52q-12 -5 -33 16q-18 19 -41 53q-32 -29 -69 -49q-35 -18 -33 7q3 21 22 50q-37 -24 -50 -13 q-10 9 8 37q21 32 62 73q-31 55 -45 100q-12 36 -1 42.5t38 -24.5q-15 40 -6 57z" />
<glyph unicode="&#xd8;" horiz-adv-x="466" d="M385 114q-59 -108 -164 -129.5t-170 63.5q-1 0 -1 1q-54 -57 -70 -67q-23 -17 17 54q14 26 24 41q-20 -27 -40 -47t-34 -30.5t-24.5 -17t-16.5 -9t-6 -3.5q-8 16 105 175q-40 138 5.5 306.5t144.5 253.5q43 37 92.5 42.5t93.5 -32.5q10 -11 25 -35.5t21 -45.5l17 18 q5 5 14 15t15 16t15.5 13.5t17.5 11.5q22 11 -6 -48q-14 -29 -37 -70q7 8 23 26.5t26.5 30t26 25.5t29.5 22q10 6 11 -2l-1 -4q-5 -18 -45 -78q-25 -37 -77 -109q16 -44 22 -95q20 -162 -53 -292zM339 580q-8 20 -9 28l-4 -3q-7 -3 -30 21.5t-37 21.5q-19 -4 -38.5 -25 t-27.5 -36t-21 -42q-63 -131 -64 -257q54 73 86 114q94 120 145 178zM301 206q36 86 31 184l-50 -64q-17 -21 -47 -58t-54.5 -67.5t-47.5 -56.5l1 -1q24 -53 58.5 -45.5t63.5 39t45 69.5zM331 622q7 7 27 -20l3 4q-11 10 -33 37t-26 29q24 -32 28 -52q0 1 1 2zM378 423 l-3 23q-2 -2 -2 -3zM-99 -32q0 1 -1 2q0 -1 1 -2z" />
<glyph unicode="&#xd9;" horiz-adv-x="524" d="M482 658q23 75 34 74q23 -4 -9 -189t-54 -277q-1 -6 -11 -51t-14.5 -61.5t-15 -48t-22.5 -53.5q-15 -27 -15 35q0 60 5 87q-4 -14 -11 -41.5t-12.5 -46t-14.5 -42t-20 -40.5q-9 -13 -11 19q-2 44 2 80q-32 -40 -79 -67t-94 -33.5t-86.5 21.5t-52.5 91q-7 30 -8 64.5t2 64 t10.5 67t14 63t16.5 62.5q13 54 51 151q34 87 48 79q6 -4 6 -18t-4 -33.5t-8 -36.5t-9 -34t-6 -20q63 179 90 174q4 0 -16 -96.5t-43.5 -205t-25.5 -121.5q-20 -162 30 -155q24 5 61 44q68 73 111 176.5t78 236.5q2 8 10.5 44.5t13.5 53.5t16.5 43t24.5 43q19 24 21 -33 q1 -39 -3 -70zM409 691q-4 -6 -14 -7.5t-24.5 0.5t-31 6t-36.5 10.5t-37 12.5t-36.5 14t-32 13t-25.5 10.5t-15 6.5q-93 34 -143 66q-44 27 -24 38q16 8 58 -1q-47 27 -51 47t48 9q69 -14 177 -59q108 -44 172 -83q51 -31 34 -43q-14 -9 -62 2q25 -15 36 -25.5t7 -16.5z" />
<glyph unicode="&#xda;" horiz-adv-x="524" d="M482 658q23 75 34 74q23 -4 -9 -189t-54 -277q-1 -6 -11 -51t-14.5 -61.5t-15 -48t-22.5 -53.5q-15 -27 -15 35q0 60 5 87q-4 -14 -11 -41.5t-12.5 -46t-14.5 -42t-20 -40.5q-9 -13 -11 19q-2 44 2 80q-32 -40 -79 -67t-94 -33.5t-86.5 21.5t-52.5 91q-7 30 -8 64.5t2 64 t10.5 67t14 63t16.5 62.5q13 54 51 151q34 87 48 79q6 -4 6 -18t-4 -33.5t-8 -36.5t-9 -34t-6 -20q63 179 90 174q4 0 -16 -96.5t-43.5 -205t-25.5 -121.5q-20 -162 30 -155q24 5 61 44q68 73 111 176.5t78 236.5q2 8 10.5 44.5t13.5 53.5t16.5 43t24.5 43q19 24 21 -33 q1 -39 -3 -70zM166 742q-4 6 7 16.5t36 25.5q-67 -15 -65 5q1 14 37 36q64 39 172 83q108 45 177 59q52 11 48 -9t-51 -47q54 12 63 -3q6 -12 -29 -34q-50 -32 -143 -66q-2 -1 -15 -6.5t-25.5 -10.5t-32 -13t-36.5 -14t-37 -12.5t-36.5 -10.5t-31 -6t-24.5 -0.5t-14 7.5z " />
<glyph unicode="&#xdb;" horiz-adv-x="524" d="M482 658q23 75 34 74q23 -4 -9 -189t-54 -277q-1 -6 -11 -51t-14.5 -61.5t-15 -48t-22.5 -53.5q-15 -27 -15 35q0 60 5 87q-4 -14 -11 -41.5t-12.5 -46t-14.5 -42t-20 -40.5q-9 -13 -11 19q-2 44 2 80q-32 -40 -79 -67t-94 -33.5t-86.5 21.5t-52.5 91q-7 30 -8 64.5t2 64 t10.5 67t14 63t16.5 62.5q13 54 51 151q34 87 48 79q6 -4 6 -18t-4 -33.5t-8 -36.5t-9 -34t-6 -20q63 179 90 174q4 0 -16 -96.5t-43.5 -205t-25.5 -121.5q-20 -162 30 -155q24 5 61 44q68 73 111 176.5t78 236.5q2 8 10.5 44.5t13.5 53.5t16.5 43t24.5 43q19 24 21 -33 q1 -39 -3 -70zM211 803q-12 3 10 57t60.5 112t66.5 69q-12 26 5 24q21 -3 43 -24q13 7 17.5 0t3.5 -20q27 -33 29 -35q32 -42 54 -80q17 -29 25 -66q6 -29 -11 -21q-6 3 -15 10q11 -35 -4 -35.5t-36 19.5q-49 45 -90 103q-48 -76 -88 -112q-17 -16 -30.5 -14.5t-4.5 27.5 q-23 -18 -35 -14z" />
<glyph unicode="&#xdc;" horiz-adv-x="524" d="M482 658q23 75 34 74q23 -4 -9 -189t-54 -277q-1 -6 -11 -51t-14.5 -61.5t-15 -48t-22.5 -53.5q-15 -27 -15 35q0 60 5 87q-4 -14 -11 -41.5t-12.5 -46t-14.5 -42t-20 -40.5q-9 -13 -11 19q-2 44 2 80q-32 -40 -79 -67t-94 -33.5t-86.5 21.5t-52.5 91q-7 30 -8 64.5t2 64 t10.5 67t14 63t16.5 62.5q13 54 51 151q34 87 48 79q6 -4 6 -18t-4 -33.5t-8 -36.5t-9 -34t-6 -20q63 179 90 174q4 0 -16 -96.5t-43.5 -205t-25.5 -121.5q-20 -162 30 -155q24 5 61 44q68 73 111 176.5t78 236.5q2 8 10.5 44.5t13.5 53.5t16.5 43t24.5 43q19 24 21 -33 q1 -39 -3 -70zM261 878q11 21 27 27q15 4 20.5 -9.5t2.5 -37.5t-6.5 -39t-6.5 -26q-8 -25 -38 -64q-43 -55 -46 -1q-35 -55 -42 3q-4 35 2 67q9 53 31 84q14 18 32.5 19.5t23.5 -23.5zM377 748q-11 -21 -27 -27q-15 -4 -20.5 9.5t-2.5 37.5t6.5 39t6.5 26q8 25 38 64 q43 55 46 1q35 55 42 -3q4 -35 -2 -67q-9 -53 -31 -84q-14 -18 -32.5 -19.5t-23.5 23.5z" />
<glyph unicode="&#xdd;" horiz-adv-x="426" d="M54 70q11 68 43 202q-7 -3 -4 8q1 7 10 27q13 31 11 35q-59 202 -80 321q0 1 -1 8q-8 73 1 72q2 0 3 -1q10 -8 20 -25.5t14.5 -29.5t12 -37t8.5 -28q-23 116 -25 157q-2 29 6 29q5 0 13 -16q16 -29 30 -60.5t27 -70t21 -63.5t21.5 -72t18.5 -65q93 133 219 256l7 7t15 14 t18.5 15.5t18.5 13t15.5 7t8.5 -4.5t0.5 -15.5t-6 -18t-10 -18.5t-12 -18.5t-12 -16t-8.5 -11.5q1 1 7.5 8t14 14.5t16 15t16 11t10.5 0.5q13 -10 -23.5 -66.5t-96 -128.5t-103.5 -122t-64 -72q-39 -145 -72 -243q-3 -7 -11.5 -35t-14.5 -45.5t-18 -38t-25 -29.5 q-16 -10 -14 43q2 47 8 67q0 -1 -2 -6.5t-4.5 -11.5t-5.5 -14.5t-6.5 -15t-7 -12.5t-7 -9.5t-6.5 -2.5q-17 4 5 92zM174 711q-4 6 7 16.5t36 25.5q-67 -15 -65 5q1 14 37 36q64 39 172 83q108 45 177 59q52 11 48 -9t-51 -47q54 12 63 -3q6 -12 -29 -34q-50 -32 -143 -66 q-2 -1 -15 -6.5t-25.5 -10.5t-32 -13t-36.5 -14t-37 -12.5t-36.5 -10.5t-31 -6t-24.5 -0.5t-14 7.5z" />
<glyph unicode="&#xde;" horiz-adv-x="490" d="M92 421q-79 -13 -120 -19q-36 -6 -46 4q-7 7 16 21q1 0 2 1q39 24 113 43q-58 22 34 56q26 10 42 13q2 6 9 28.5t12.5 37.5t15.5 32t21 24q9 -10 7 -48.5t-6 -60.5q1 2 4 11t6.5 18.5t8.5 22.5t10.5 24t11 20.5t10.5 14.5t10 4t6.5 -12.5t-1 -28.5t-5 -32t-5.5 -31 l-4 -15q115 -3 185 -75t33 -180q-37 -107 -151 -170q-13 -8 -93 -33.5t-80 -17.5q-2 8 3.5 16.5t15.5 16.5t19.5 14t21 12.5t14.5 8.5q-39 -10 -80 -12q-43 -131 -68 -174q-21 -37 -26 1q-2 17 0 34q-9 -24 -32 -54q-24 -30 -27 -1q-3 30 13 111q31 157 100 375zM141 157 q198 68 216 194q1 25 -12 42.5t-36.5 25t-44 10.5t-46.5 3q-35 -138 -77 -275z" />
<glyph unicode="&#xdf;" horiz-adv-x="568" d="M39 60q-2 -6 -7 -31.5t-10.5 -49.5t-12.5 -50.5t-15 -43.5t-15 -18q-14 18 -7.5 98.5t12.5 110.5q25 133 64 233q104 264 282 328q41 15 87 18t88.5 -7t73.5 -41.5t38 -80.5q15 -100 -52 -204t-162 -162q52 -53 52.5 -124t-36.5 -131t-94 -101q-96 -69 -205 -77 q-91 -6 53 69q-73 -24 -78 -9q-1 3 41.5 32t89.5 60.5t53 37.5q25 25 40.5 53t19.5 62t-20 62q-15 18 -38 31q-10 0 -27.5 5.5t-10.5 15.5q-12 10 13 13q13 2 18 1l25 10q-6 3 -34 10t-52 14t-26 14q4 14 53 13t67 -6q73 43 127.5 112t66.5 145q5 31 -7.5 47.5t-36 18.5 t-48 -2.5t-47.5 -14.5q-56 -23 -103 -77.5t-72.5 -106.5t-50.5 -121q-1 -3 -24 -86.5t-45 -150.5t-29 -64q-23 7 1 145z" />
<glyph unicode="&#xe0;" d="M512 553q-16 -23 -127 16l-22 -47q40 -107 82 -286q19 -4 22 -11q-4 -8 -17 -12q0 -2 4.5 -20.5t9 -40.5t10.5 -50.5t9.5 -54.5t6 -48.5t1 -36.5t-7.5 -15q-2 0 -6 6t-7.5 16t-7 19t-6.5 17t-3 9q12 -58 7 -84q-4 -19 -21 10q-1 1 -2 3q-9 16 -17.5 35.5t-14.5 34.5 t-14.5 39.5t-12 36t-12.5 40t-11 36.5q-95 -15 -190 -13q-9 -15 -30 -53.5t-34.5 -61t-35.5 -52t-43 -47.5t8 68q14 40 21 56q-48 -74 -82 -112q-27 -27 -24 -6v3q5 29 18.5 65t24.5 58.5t34.5 65.5t30.5 56h-1q-89 12 -82 31q1 3 4 5q7 6 17.5 10.5t24 6.5t23 3t25 1.5 t19.5 0.5q86 163 171 303q-8 56 0 57l6 1q5 3 16 -23l12 19q-8 3 -17.5 7.5t-10.5 4.5q-93 34 -143 66q-44 27 -24 38q16 8 58 -1q-47 27 -51 47t48 9q69 -14 177 -59l30 -13q18 22 37 31q23 12 10 -39q-1 -5 -3 -11q47 -21 98 -51q51 -31 34 -43q-14 -9 -62 2 q25 -15 36 -25.5t7 -16.5zM292 382q-31 -58 -70 -129q41 0 107 -4q-23 80 -37 133z" />
<glyph unicode="&#xe1;" d="M186 578q-4 6 7 16.5t36 25.5q-67 -15 -65 5q1 14 37 36q64 39 172 83q108 45 177 59q52 11 48 -9t-51 -47q54 12 63 -3q6 -12 -29 -34q-50 -32 -143 -66l-27 -12q-9 -27 -48 -110q40 -107 82 -286q19 -4 22 -11q-4 -8 -17 -12q0 -2 4.5 -20.5t9 -40.5t10.5 -50.5 t9.5 -54.5t6 -48.5t1 -36.5t-7.5 -15q-2 0 -6 6t-7.5 16t-7 19t-6.5 17t-3 9q12 -58 7 -84q-4 -19 -21 10q-1 1 -2 3q-9 16 -17.5 35.5t-14.5 34.5t-14.5 39.5t-12 36t-12.5 40t-11 36.5q-95 -15 -190 -13q-9 -15 -30 -53.5t-34.5 -61t-35.5 -52t-43 -47.5t8 68q14 40 21 56 q-48 -74 -82 -112q-27 -27 -24 -6v3q5 29 18.5 65t24.5 58.5t34.5 65.5t30.5 56h-1q-89 12 -82 31q1 3 4 5q7 6 17.5 10.5t24 6.5t23 3t25 1.5t19.5 0.5q86 163 171 303q0 2 -1.5 10.5t-1.5 11.5q-54 -12 -65 3zM292 382q-31 -58 -70 -129q41 0 107 -4q-23 80 -37 133z" />
<glyph unicode="&#xe2;" d="M147 597q-12 3 10 57t60.5 112t66.5 69q-12 26 5 24q21 -3 43 -24q13 7 17.5 0t3.5 -20q28 -33 29 -35q32 -42 54 -80q17 -29 25 -66q6 -29 -11 -21q-6 3 -15 10q10 -33 -2.5 -35.5t-32.5 14.5q-5 -12 -11 -25.5t-14 -29.5t-12 -25q40 -107 82 -286q19 -4 22 -11 q-4 -8 -17 -12q0 -2 4.5 -20.5t9 -40.5t10.5 -50.5t9.5 -54.5t6 -48.5t1 -36.5t-7.5 -15q-2 0 -6 6t-7.5 16t-7 19t-6.5 17t-3 9q12 -58 7 -84q-4 -19 -21 10q-1 1 -2 3q-9 16 -17.5 35.5t-14.5 34.5t-14.5 39.5t-12 36t-12.5 40t-11 36.5q-95 -15 -190 -13 q-9 -15 -30 -53.5t-34.5 -61t-35.5 -52t-43 -47.5t8 68q14 40 21 56q-48 -74 -82 -112q-27 -27 -24 -6v3q5 29 18.5 65t24.5 58.5t34.5 65.5t30.5 56h-1q-89 12 -82 31q1 3 4 5q7 6 17.5 10.5t24 6.5t23 3t25 1.5t19.5 0.5q86 163 171 303q-8 56 0 57l6 1q5 3 16 -23 q7 10 25 40.5t29 46.5q-9 11 -25 35q-48 -76 -88 -112q-17 -16 -30.5 -14.5t-4.5 27.5q-23 -18 -35 -14zM292 382q-31 -58 -70 -129q41 0 107 -4q-23 80 -37 133z" />
<glyph unicode="&#xe3;" d="M46 656q3 39 37.5 75.5t62.5 53.5q24 13 48 18t41.5 4.5t42 -9.5t38 -15.5t41.5 -22t40 -21.5q6 2 8 -4q23 -10 46.5 -10t37 4.5t41.5 17.5t40 18q17 6 12 -7q-7 -26 -49 -70l-12 -11q4 1 23 12t36 19.5t20 5.5q13 -12 -30 -44.5t-63 -41.5q-50 -22 -102 -14 q-5 -12 -42 -92q40 -107 82 -286q19 -4 22 -11q-4 -8 -17 -12q0 -2 4.5 -20.5t9 -40.5t10.5 -50.5t9.5 -54.5t6 -48.5t1 -36.5t-7.5 -15q-2 0 -6 6t-7.5 16t-7 19t-6.5 17t-3 9q12 -58 7 -84q-4 -19 -21 10q-1 1 -2 3q-9 16 -17.5 35.5t-14.5 34.5t-14.5 39.5t-12 36 t-12.5 40t-11 36.5q-95 -15 -190 -13q-9 -15 -30 -53.5t-34.5 -61t-35.5 -52t-43 -47.5t8 68q14 40 21 56q-48 -74 -82 -112q-27 -27 -24 -6v3q5 29 18.5 65t24.5 58.5t34.5 65.5t30.5 56h-1q-89 12 -82 31q1 3 4 5q7 6 17.5 10.5t24 6.5t23 3t25 1.5t19.5 0.5 q86 163 171 303q-8 56 0 57l6 1q5 3 16 -23q1 1 39 64q-57 39 -84 45q-8 3 -17 3q-5 0 -27.5 -9.5t-42 -17t-21.5 -5.5q-15 18 25 46t62 34q-50 1 -118 -58q-1 -1 -10.5 -11.5t-19 -18.5t-13.5 -7l-3 2v1zM292 382q-31 -58 -70 -129q41 0 107 -4q-23 80 -37 133z" />
<glyph unicode="&#xe4;" d="M445 236q19 -4 22 -11q-4 -8 -17 -12q0 -2 4.5 -20.5t9 -40.5t10.5 -50.5t9.5 -54.5t6 -48.5t1 -36.5t-7.5 -15q-2 0 -6 6t-7.5 16t-7 19t-6.5 17t-3 9q12 -58 7 -84q-4 -19 -21 10q-1 1 -2 3q-9 16 -17.5 35.5t-14.5 34.5t-14.5 39.5t-12 36t-12.5 40t-11 36.5 q-95 -15 -190 -13q-9 -15 -30 -53.5t-34.5 -61t-35.5 -52t-43 -47.5t8 68q14 40 21 56q-48 -74 -82 -112q-27 -27 -24 -6v3q5 29 18.5 65t24.5 58.5t34.5 65.5t30.5 56h-1q-89 12 -82 31q1 3 4 5q7 6 17.5 10.5t24 6.5t23 3t25 1.5t19.5 0.5q86 163 171 303q-8 56 0 57l6 1 q5 3 16 -23q24 56 45 35q18 -18 14 -56q-1 -10 -4 -18q26 44 35 20q7 -23 -3 -47q40 -107 82 -286zM292 382q-31 -58 -70 -129q41 0 107 -4q-23 80 -37 133zM274 795q11 21 27 27q15 4 20.5 -9.5t2.5 -37.5t-6.5 -39t-6.5 -26q-8 -25 -38 -64q-43 -55 -46 -1q-35 -55 -42 3 q-4 35 2 67q9 53 31 84q14 18 32.5 19.5t23.5 -23.5zM390 665q-11 -21 -27 -27q-15 -4 -20.5 9.5t-2.5 37.5t6.5 39t6.5 26q8 25 38 64q43 55 46 1q35 55 42 -3q4 -35 -2 -67q-9 -53 -31 -84q-14 -18 -32.5 -19.5t-23.5 23.5z" />
<glyph unicode="&#xe5;" d="M445 236q19 -4 22 -11q-4 -8 -17 -12q0 -2 4.5 -20.5t9 -40.5t10.5 -50.5t9.5 -54.5t6 -48.5t1 -36.5t-7.5 -15q-2 0 -6 6t-7.5 16t-7 19t-6.5 17t-3 9q12 -58 7 -84q-4 -19 -21 10q-1 1 -2 3q-9 16 -17.5 35.5t-14.5 34.5t-14.5 39.5t-12 36t-12.5 40t-11 36.5 q-95 -15 -190 -13q-9 -15 -30 -53.5t-34.5 -61t-35.5 -52t-43 -47.5t8 68q14 40 21 56q-48 -74 -82 -112q-27 -27 -24 -6v3q5 29 18.5 65t24.5 58.5t34.5 65.5t30.5 56h-1q-89 12 -82 31q1 3 4 5q7 6 17.5 10.5t24 6.5t23 3t25 1.5t19.5 0.5q86 163 171 303q0 2 -1.5 10 t-1.5 11q-40 12 -65.5 43t-32.5 69t1.5 79.5t29.5 75.5t57.5 55.5t81.5 20.5q60 -1 100.5 -47.5t35.5 -106.5q-2 -17 -19 -48q-16 -27 -21 -6q-2 10 -4.5 30.5t-6 35.5t-12.5 29q1 -3 2.5 -13.5t2.5 -23.5t-2 -22t-11 -8q-4 0 -9.5 12t-11 25.5t-7.5 16.5q-33 31 -67 -4 q-30 -31 -27 -72q2 -28 23 -42q7 -4 39 0q33 47 64 64q26 14 6 -52l-12 -35q43 46 51 45q4 0 5 -4t-1.5 -10.5t-5.5 -13.5t-8.5 -16t-9.5 -15.5t-9 -13.5q-8 -22 -45 -100q40 -107 82 -286zM292 382q-31 -58 -70 -129q41 0 107 -4q-23 80 -37 133zM267 630q13 -8 29 -10l3 5 q-19 0 -32 5z" />
<glyph unicode="&#xe6;" horiz-adv-x="777" d="M779 78q22 5 36.5 1.5t21 -9.5t6.5 -11q0 -34 -161 -63.5t-313 -34.5q-20 -52 -36 -52q-14 0 -10 51q-84 0 -83 16q0 4 14 8.5t30.5 8.5t17.5 4q-21 -4 -59 1q-27 4 -19 14q9 9 25 16.5t26.5 10.5t34 8t26.5 6q0 4 2 14q-38 -37 -41 41q0 22 2 52q-127 -9 -154 -5 q-6 -8 -44.5 -62.5t-65 -84t-56.5 -49.5q-23 -15 14 64q15 33 28 56q-56 -69 -94 -103q-32 -25 -24 0q8 29 25.5 63t31.5 55.5t41.5 60.5t36.5 52q-80 23 -80 38q0 4 5 7q10 7 26.5 10t27 3t32.5 -1.5t25 -1.5q100 147 204 282q-2 56 6 56l6 1q7 2 14 -25q8 9 27.5 35 t32.5 41.5t33.5 33.5t38.5 25q14 6 13 -10q-1 -12 -8 -30q7 -7 11 -17q14 3 42 7q0 1 4 11.5t10 20t9 6.5t3 -34q138 20 237 11q44 -4 43 -14t-43 -22q60 3 55 -14q-4 -17 -56 -33q-91 -28 -252 -49q-14 -90 -35 -194q93 17 137 12q20 -2 21.5 -12t-17.5 -18q51 1 86 -12 q36 -14 -22 -33q-71 -24 -227 -36q-20 -93 -45 -183q145 29 288 44t152 -1v-7q1 -3 -36 -15q-6 -2 -17 -6l-17 -7q2 1 7 2zM213 249q16 -1 62 2q-7 2 -6 6q1 5 5 9t11.5 7.5t11.5 5.5t13 5l9 2l3 13q-20 5 4 16q11 49 47 170l-76 -116z" />
<glyph unicode="&#xe7;" d="M291 -157q12 -47 -5 -106.5t-67 -88.5q-54 -31 -123 -16q-16 5 -57 28.5t-28 33.5q4 3 16.5 -0.5t26.5 -9.5t16 -6q45 -10 79 -1q-53 -2 -91 25q-14 9 -33 32.5t-6 33.5q3 2 13.5 -4t23 -14t13.5 -9q37 -16 68 -8q30 9 38 29.5t-1 46.5t-23 51.5t-28 50.5t-15 37v2l-1 2 q-84 43 -104 151q-25 125 14 266t128 229q36 35 86.5 56.5t107 18.5t94.5 -39q22 41 35 34t5 -52q21 22 26.5 3t2.5 -43q-6 -42 -32 -119q-12 -32 -22.5 -58.5t-25 -59t-28 -50.5t-22.5 -17q-14 3 -6 59q-27 -35 -27 7l3 27q9 54 37 137q-2 22 -20 40t-49 12 q-69 -16 -122.5 -101t-69.5 -166q-13 -45 -7 -122.5t39 -105.5q1 0 3 2q12 8 14 -13q1 0 3 -0.5t3 -0.5q31 -8 67 12.5t62.5 50t51 57t33.5 30.5q19 6 13 -27q-8 -40 -32 -83q8 8 44.5 52t58.5 56q1 1 -8.5 -23t-21 -51.5t-16.5 -33.5q-81 -115 -190 -145l-9 -2l2 -2 q51 -49 63 -95z" />
<glyph unicode="&#xe8;" d="M489 78q22 5 36.5 1.5t21 -9.5t6.5 -11q0 -34 -161 -63.5t-313 -34.5q-20 -52 -36 -52q-14 0 -10 51q-84 0 -83 16q0 4 14 8.5t30.5 8.5t17.5 4q-21 -4 -59 1q-27 4 -19 14q9 9 25 16.5t26.5 10.5t34 8t26.5 6q0 4 2 14q-38 -37 -40 40q-2 66 12 140q-43 0 -41 10 q1 5 5 9t11.5 7.5t11.5 5.5t13 5l9 2l3 13q-20 5 4 16q20 84 62 220q-56 -2 -56 10v7q-2 9 50 24q-51 2 -46 20q6 20 64 43q13 6 23 8l10 28q11 -3 19 -21q14 3 42 7q0 1 4 11.5t10 20t9 6.5t3 -34q59 8 92 10q-69 25 -114 46q-93 34 -143 66q-44 27 -24 38q16 8 58 -1 q-47 27 -51 47t48 9q69 -14 177 -59q108 -44 172 -83q51 -31 34 -43q-14 -9 -62 2l29 -20q4 0 11 -0.5t10 -0.5q44 -4 43 -14t-43 -22q60 3 55 -14q-4 -17 -56 -33q-91 -28 -252 -49q-14 -90 -35 -194q93 17 137 12q20 -2 21.5 -12t-17.5 -18q51 1 86 -12q36 -14 -22 -33 q-71 -24 -227 -36q-20 -93 -45 -183q145 29 288 44t152 -1v-7q1 -3 -36 -15q-6 -2 -17 -6l-17 -7q2 1 7 2z" />
<glyph unicode="&#xe9;" d="M94 635q-4 6 7 16.5t36 25.5q-67 -15 -65 5q1 14 37 36q64 39 172 83q108 45 177 59q52 11 48 -9q-6 -21 -51 -47q54 12 63 -3q6 -12 -29 -34q-50 -32 -143 -66q-3 -1 -14.5 -6t-27 -11.5t-30.5 -12.5q106 12 193 5q44 -4 43 -14t-43 -22q60 3 55 -14q-4 -17 -56 -33 q-91 -28 -252 -49q-14 -90 -35 -194q93 17 137 12q20 -2 21.5 -12t-17.5 -18q51 1 86 -12q36 -14 -22 -33q-71 -24 -227 -36q-20 -93 -45 -183q145 29 288 44t152 -1v-7q1 -3 -36 -15q-6 -2 -17 -6l-17 -7q2 1 7 2q22 5 36.5 1.5t21 -9.5t6.5 -11q0 -34 -161 -63.5 t-313 -34.5q-20 -52 -36 -52q-14 0 -10 51q-84 0 -83 16q0 4 14 8.5t30.5 8.5t17.5 4q-21 -4 -59 1q-27 4 -19 14q9 9 25 16.5t26.5 10.5t34 8t26.5 6q0 4 2 14q-38 -37 -40 40q-2 66 12 140q-43 0 -41 10q1 5 5 9t11.5 7.5t11.5 5.5t13 5l9 2l3 13q-20 5 4 16q20 84 62 220 q-56 -2 -56 10v7q-2 9 50 24q-29 1 -40 7.5t-5.5 15t18 17.5t30.5 17q0 1 -0.5 1t-0.5 1z" />
<glyph unicode="&#xea;" d="M111 679q-12 3 10 57t60.5 112t66.5 69q-12 26 5 24q21 -3 43 -24q13 7 17.5 0t3.5 -20q27 -33 29 -35q32 -42 54 -80q17 -29 25 -66q6 -29 -11 -21q-6 3 -15 10q5 -20 4 -26q33 0 64 -3q44 -4 43 -14t-43 -22q60 3 55 -14q-4 -17 -56 -33q-91 -28 -252 -49 q-14 -90 -35 -194q93 17 137 12q20 -2 21.5 -12t-17.5 -18q51 1 86 -12q36 -14 -22 -33q-71 -24 -227 -36q-20 -93 -45 -183q145 29 288 44t152 -1v-7q1 -3 -36 -15q-6 -2 -17 -6l-17 -7q2 1 7 2q22 5 36.5 1.5t21 -9.5t6.5 -11q0 -34 -161 -63.5t-313 -34.5 q-20 -52 -36 -52q-14 0 -10 51q-84 0 -83 16q0 4 14 8.5t30.5 8.5t17.5 4q-21 -4 -59 1q-27 4 -19 14q9 9 25 16.5t26.5 10.5t34 8t26.5 6q0 4 2 14q-38 -37 -40 40q-2 66 12 140q-43 0 -41 10q1 5 5 9t11.5 7.5t11.5 5.5t13 5l9 2l3 13q-20 5 4 16q20 84 62 220 q-56 -2 -56 10v7q-2 9 50 24q-51 2 -46 20q6 20 64 43q13 6 23 8l9 27q0 8 4 19q-23 -18 -35 -14zM230 665q92 12 142 13l-13 11q-49 45 -90 103q-48 -76 -88 -112q-16 -12 -25 -15l6 -11q14 3 42 7q0 1 4 11.5t10 20t9 6.5t3 -34z" />
<glyph unicode="&#xeb;" d="M489 78q22 5 36.5 1.5t21 -9.5t6.5 -11q0 -34 -161 -63.5t-313 -34.5q-20 -52 -36 -52q-14 0 -10 51q-84 0 -83 16q0 4 14 8.5t30.5 8.5t17.5 4q-21 -4 -59 1q-27 4 -19 14q9 9 25 16.5t26.5 10.5t34 8t26.5 6q0 4 2 14q-38 -37 -40 40q-2 66 12 140q-43 0 -41 10 q1 5 5 9t11.5 7.5t11.5 5.5t13 5l9 2l3 13q-20 5 4 16q20 84 62 220q-56 -2 -56 10v7q-2 9 50 24q-51 2 -46 20q6 20 64 43q13 6 23 8l10 28q11 -3 19 -21q14 3 42 7q0 1 4 11.5t10 20t9 6.5t3 -34q138 20 237 11q44 -4 43 -14t-43 -22q60 3 55 -14q-4 -17 -56 -33 q-91 -28 -252 -49q-14 -90 -35 -194q93 17 137 12q20 -2 21.5 -12t-17.5 -18q51 1 86 -12q36 -14 -22 -33q-71 -24 -227 -36q-20 -93 -45 -183q145 29 288 44t152 -1v-7q1 -3 -36 -15q-6 -2 -17 -6l-17 -7q2 1 7 2zM380 753q-11 -21 -27 -27q-15 -4 -20.5 9.5t-2.5 37.5 t6.5 39t6.5 26q8 25 38 64q43 55 46 1q35 55 42 -3q4 -35 -2 -67q-9 -53 -31 -84q-14 -18 -32.5 -19.5t-23.5 23.5zM264 883q11 21 27 27q15 4 20.5 -9.5t2.5 -37.5t-6.5 -39t-6.5 -26q-8 -25 -38 -64q-43 -55 -46 -1q-35 -55 -42 3q-4 35 2 67q9 53 31 84q14 18 32.5 19.5 t23.5 -23.5z" />
<glyph unicode="&#xec;" horiz-adv-x="405" d="M433 660q-5 -7 -15 -8q-1 -14 -31 -13q-5 -1 -5 -2q59 2 32 -16q-34 -22 -118 -46l-6 -2q-28 -266 -78 -485q2 0 25.5 3t39 4t34 -2t25.5 -11q4 -7 -5 -14t-25 -12t-28 -8.5t-19 -4.5q62 -7 60 -21q-1 -5 -13.5 -10t-31.5 -9t-37 -7t-34.5 -5.5t-18.5 -3.5 q-13 -36 -26 -35q-9 1 -11 29q-104 -17 -153 -9q-19 3 -26 11.5t-0.5 18.5t23.5 17q-23 3 -23 11l1 6q-2 17 144 39q-24 88 71 480q-117 -14 -117 3v5q0 2 4 5.5t12.5 7t20.5 7.5q-26 2 -33.5 14.5t15.5 27.5q38 20 124 33l5 18q9 -1 17 -15q12 2 40 4q3 11 7 21 q-21 8 -98 40q-93 34 -143 66q-44 27 -24 38q16 8 58 -1q-47 27 -51 47t48 9q69 -14 177 -59q108 -44 172 -83q51 -31 34 -43q-14 -9 -62 2q25 -15 36 -25.5t7 -16.5zM297 667q1 0 5 0.5t11.5 1t13.5 0.5l-30 10v-12z" />
<glyph unicode="&#xed;" horiz-adv-x="405" d="M418 653q0 -15 -31 -14q-5 -1 -5 -2q59 2 32 -16q-34 -22 -118 -46l-6 -2q-28 -266 -78 -485q2 0 25.5 3t39 4t34 -2t25.5 -11q4 -7 -5 -14t-25 -12t-28 -8.5t-19 -4.5q62 -7 60 -21q-1 -5 -13.5 -10t-31.5 -9t-37 -7t-34.5 -5.5t-18.5 -3.5q-13 -36 -26 -35q-9 1 -11 29 q-104 -17 -153 -9q-19 3 -26 11.5t-0.5 18.5t23.5 17q-23 3 -23 11l1 6q-2 17 144 39q-24 88 71 480q-117 -14 -117 3v5q0 2 4 5.5t12.5 7t20.5 7.5q-26 2 -33.5 14.5t15.5 27.5q38 20 124 33l5 18q9 -1 17 -15q12 2 40 4l2.5 7.5t5 13.5t7.5 14t6 3q4 -4 4 -36 q122 11 121 -14zM66 665q-4 6 7 16.5t36 25.5q-67 -15 -65 5q1 14 37 36q64 39 172 83q108 45 177 59q52 11 48 -9q-6 -21 -51 -47q54 12 63 -3q6 -12 -29 -34q-50 -32 -143 -66q-2 -1 -15 -6.5t-25.5 -10.5t-32 -13t-36.5 -14t-37 -12.5t-36.5 -10.5t-31 -6t-24.5 -0.5 t-14 7.5z" />
<glyph unicode="&#xee;" horiz-adv-x="405" d="M418 653q0 -15 -31 -14q-5 -1 -5 -2q59 2 32 -16q-34 -22 -118 -46l-6 -2q-28 -266 -78 -485q2 0 25.5 3t39 4t34 -2t25.5 -11q4 -7 -5 -14t-25 -12t-28 -8.5t-19 -4.5q62 -7 60 -21q-1 -5 -13.5 -10t-31.5 -9t-37 -7t-34.5 -5.5t-18.5 -3.5q-13 -36 -26 -35q-9 1 -11 29 q-104 -17 -153 -9q-19 3 -26 11.5t-0.5 18.5t23.5 17q-23 3 -23 11l1 6q-2 17 144 39q-24 88 71 480q-117 -14 -117 3v5q0 2 4 5.5t12.5 7t20.5 7.5q-26 2 -33.5 14.5t15.5 27.5q38 20 124 33l5 18q9 -1 17 -15q12 2 40 4l2.5 7.5t5 13.5t7.5 14t6 3q4 -4 4 -36 q122 11 121 -14zM85 700q-12 3 10 57t60.5 112t66.5 69q-12 26 5 24q21 -3 43 -24q13 7 17.5 0t3.5 -20q27 -33 29 -35q32 -42 54 -80q17 -29 25 -66q6 -29 -11 -21q-6 3 -15 10q11 -35 -4 -35.5t-36 19.5q-49 45 -90 103q-48 -76 -88 -112q-17 -16 -30.5 -14.5t-4.5 27.5 q-23 -18 -35 -14z" />
<glyph unicode="&#xef;" horiz-adv-x="405" d="M338 711q-11 -21 -27 -27q-7 -2 -14 1v-18q122 11 121 -14q0 -15 -31 -14q-5 -1 -5 -2q59 2 32 -16q-34 -22 -118 -46l-6 -2q-28 -266 -78 -485q2 0 25.5 3t39 4t34 -2t25.5 -11q4 -7 -5 -14t-25 -12t-28 -8.5t-19 -4.5q62 -7 60 -21q-1 -5 -13.5 -10t-31.5 -9t-37 -7 t-34.5 -5.5t-18.5 -3.5q-13 -36 -26 -35q-9 1 -11 29q-104 -17 -153 -9q-19 3 -26 11.5t-0.5 18.5t23.5 17q-23 3 -23 11l1 6q-2 17 144 39q-24 88 71 480q-117 -14 -117 3v5q0 2 4 5.5t12.5 7t20.5 7.5q-26 2 -33.5 14.5t15.5 27.5q38 20 124 33l5 18q9 -1 17 -15 q12 2 40 4q9 28 16 36q-6 33 13 95q8 25 38 64q43 55 46 1q35 55 42 -3q4 -35 -2 -67q-9 -53 -31 -84q-14 -18 -32.5 -19.5t-23.5 23.5zM222 841q11 21 27 27q15 4 20.5 -9.5t2.5 -37.5t-6.5 -39t-6.5 -26q-8 -25 -38 -64q-43 -55 -46 -1q-35 -55 -42 3q-4 35 2 67 q9 53 31 84q14 18 32.5 19.5t23.5 -23.5z" />
<glyph unicode="&#xf0;" horiz-adv-x="461" d="M197 624q125 6 204 -90t67 -208q-7 -121 -62 -228.5t-150 -175.5q-104 -73 -199 -68q-78 5 31 51l30 13q-73 -18 -76 0q0 2 40.5 27t85.5 52.5t52 34.5q81 82 112 199q13 50 14 96.5t-12 89t-50.5 68.5t-95.5 27q-12 -102 -30 -209q48 -1 99 -11q24 -5 32.5 -12.5 t-0.5 -15.5t-36 -13q45 -8 52 -24q3 -8 -12 -14.5t-44 -10.5t-55 -7t-58 -5q-5 -24 -17 -72q-14 -54 -43 -109q-34 -62 -33 14v12q-37 -112 -49 -81q-1 2 -2 5q-8 32 4 130q9 71 13 100q-40 4 -66 12q-48 14 -7 35q17 9 39 14q-40 7 -45 24q-2 11 19 18q5 2 12 4q36 7 68 8 q18 96 42 188q-86 -37 -91 -27t6.5 23t33.5 25.5t37 20t28 13.5q-59 -16 -115 -45q-2 -1 -17.5 -11.5t-29.5 -17.5t-19 -4q-11 7 23 40t54 48q58 39 124 56q18 50 30 47q9 -3 8 -40q2 1 6 1q20 88 39 84q4 -1 7 -8.5t3.5 -19t0 -21.5t-1 -20.5t-0.5 -11.5z" />
<glyph unicode="&#xf1;" horiz-adv-x="493" d="M97 738q3 39 28.5 75.5t46.5 53.5q21 16 40.5 21.5t40.5 -2t33 -14t38 -26.5t35 -26q18 -12 36.5 -12.5t29 4t31 17.5t30.5 18q13 7 9 -10q-9 -30 -39 -71q-4 -6 -6 -7q2 1 16.5 12t27.5 19.5t15 5.5q13 -16 -51 -72q1 -18 0 -33l-2 -30l-1 -15q21 75 33 74 q32 -6 -55 -442q-30 -146 -55 -235q-1 -3 -5 -21.5t-8 -35t-9.5 -32t-8.5 -17.5q-3 -1 -6 -0.5t-7 5.5t-7 9t-6.5 10t-5.5 10t-4 9l-2 5l-9 -33l-3 -3q0 -1 -3 -8t-5.5 -14t-7 -13t-7.5 -6q-5 0 -6.5 12t-1 28.5t1.5 28.5t2 16q-48 101 -128 352q-30 -201 -69 -316 q-34 -95 -25 95q-1 -3 -5.5 -25t-10 -45.5t-12.5 -48.5t-15.5 -41t-16.5 -16q-15 -1 0 154q31 288 90 475q-13 67 -3 68q14 -5 20 -23q7 17 14 23q0 1 -1.5 8.5t-3 14.5t-2 15.5t0 14.5t3.5 8q13 8 93.5 -212.5t99.5 -287.5q42 247 86 406q2 7 8.5 37.5t12.5 47.5 q-32 -8 -63 5q-16 7 -56 42.5t-65 37.5q-4 0 -20.5 -9.5t-31.5 -17t-16 -5.5q-11 18 19 46.5t46 33.5q-37 1 -88 -58q0 -1 -3.5 -5.5t-7 -10t-7.5 -10.5t-7.5 -8.5t-5.5 -2.5l-3 2v1z" />
<glyph unicode="&#xf2;" horiz-adv-x="486" d="M498 691q-16 -21 -123 15q12 -23 24 -53q22 65 57 -43q10 -29 11 -36q24 -125 -7 -258t-109 -231q-40 -51 -93.5 -79.5t-112.5 -20t-100 64.5q-43 59 -54.5 143t1.5 160.5t42 149.5q17 45 51 89.5t77 77.5t92.5 29t89.5 -57q-1 3 -6.5 18t-12 34t-10.5 34q-33 13 -69 29 q-93 34 -143 66q-44 27 -24 38q16 8 58 -1q-47 27 -51 47t48 9q69 -14 177 -59q108 -44 172 -83q51 -31 34 -43q-14 -9 -62 2q25 -15 36 -25.5t7 -16.5zM359 571q-8 5 -31 22l-8 6q-16 12 -26 17q9 -9 29 -66q14 -41 4 -39q-12 2 -22 17t-16.5 31t-20 28t-32.5 9 q-46 -7 -89 -101q-33 -76 -42.5 -156.5t9.5 -160.5q13 -48 35.5 -64t47.5 -3.5t48.5 37t42.5 57.5q48 81 66.5 177.5t4.5 188.5z" />
<glyph unicode="&#xf3;" horiz-adv-x="486" d="M100 696q-4 6 7 16.5t36 25.5q-67 -15 -65 5q1 14 37 36q64 39 172 83q108 45 177 59q52 11 48 -9q-6 -21 -51 -47q54 12 63 -3q6 -12 -29 -34q-50 -32 -143 -66q-7 -4 -9 -4q21 -25 56 -105q22 65 57 -43q10 -29 11 -36q24 -125 -7 -258t-109 -231q-40 -51 -93.5 -79.5 t-112.5 -20t-100 64.5q-43 59 -54.5 143t1.5 160.5t42 149.5q17 45 51 89.5t77 77.5t92.5 29t89.5 -57q0 1 -14.5 41t-18.5 61q-190 -78 -211 -48zM359 571q-8 5 -31 22l-8 6q-16 12 -26 17q9 -9 29 -66q14 -41 4 -39q-12 2 -22 17t-16.5 31t-20 28t-32.5 9q-46 -7 -89 -101 q-33 -76 -42.5 -156.5t9.5 -160.5q13 -48 35.5 -64t47.5 -3.5t48.5 37t42.5 57.5q48 81 66.5 177.5t4.5 188.5z" />
<glyph unicode="&#xf4;" horiz-adv-x="486" d="M399 653q22 64 57 -42q5 -14 10 -33l1 -4q24 -125 -7 -258t-109 -231q-40 -51 -93.5 -79.5t-112.5 -20t-100 64.5q-43 59 -54.5 143t1.5 160.5t42 149.5q17 45 51 89.5t77 77.5t92.5 29t89.5 -57q-1 4 -9 26t-14.5 41.5t-10.5 40.5t3 23q10 7 24.5 -8t28 -41t21.5 -43.5 t12 -27.5zM359 571q-8 5 -31 22l-8 6q-16 12 -26 17q9 -9 29 -66q14 -41 4 -39q-12 2 -22 17t-16.5 31t-20 28t-32.5 9q-46 -7 -89 -101q-33 -76 -42.5 -156.5t9.5 -160.5q13 -48 35.5 -64t47.5 -3.5t48.5 37t42.5 57.5q48 81 66.5 177.5t4.5 188.5zM135 741q-12 3 10 57 t60.5 112t66.5 69q-12 26 5 24q21 -3 43 -24q13 7 17.5 0t3.5 -20q27 -33 29 -35q32 -42 54 -80q17 -29 25 -66q6 -29 -11 -21q-6 3 -15 10q11 -35 -4 -35.5t-36 19.5q-49 45 -90 103q-48 -76 -88 -112q-17 -16 -30.5 -14.5t-4.5 27.5q-23 -18 -35 -14z" />
<glyph unicode="&#xf5;" horiz-adv-x="486" d="M90 751q3 43 30 82t49 57q22 17 42.5 22.5t43 -2.5t35 -15t40 -28t37.5 -28q19 -13 38 -13.5t30 4.5t33 19t32 19q13 7 10 -8q-7 -30 -40 -76q-6 -8 -8 -10q3 1 18 13t28 20.5t16 5.5q10 -13 -24.5 -48.5t-48.5 -43.5q-36 -21 -76 -15q12 -23 24 -53q22 64 57 -42 q5 -14 10 -33l1 -4q24 -125 -7 -258t-109 -231q-40 -51 -93.5 -79.5t-112.5 -20t-100 64.5q-43 59 -54.5 143t1.5 160.5t42 149.5q17 45 51 89.5t77 77.5t92.5 29t89.5 -57q0 2 -13.5 38t-18.5 57q-3 3 -20.5 19t-24 21.5t-20 12.5t-25.5 8q-4 0 -21.5 -10t-33 -18t-16.5 -6 q-12 19 19.5 50t48.5 36q-40 1 -93 -62l-8 -12q-8 -12 -15 -20.5t-10 -7.5l-3 2v1zM359 571q-8 5 -31 22l-8 6q-16 12 -26 17q9 -9 29 -66q14 -41 4 -39q-12 2 -22 17t-16.5 31t-20 28t-32.5 9q-46 -7 -89 -101q-33 -76 -42.5 -156.5t9.5 -160.5q13 -48 35.5 -64t47.5 -3.5 t48.5 37t42.5 57.5q48 81 66.5 177.5t4.5 188.5z" />
<glyph unicode="&#xf6;" horiz-adv-x="486" d="M363 763q-4 -8 -12 -16q28 -40 48 -94q22 65 57 -43q10 -29 11 -36q24 -125 -7 -258t-109 -231q-40 -51 -93.5 -79.5t-112.5 -20t-100 64.5q-43 59 -54.5 143t1.5 160.5t42 149.5q17 45 51 89.5t77 77.5t92.5 29t89.5 -57q-1 3 -13 36t-19 60.5t0 33.5q1 23 14 76 q8 25 38 64q43 55 46 1q35 55 42 -3q4 -35 -2 -67q-9 -53 -31 -84q-14 -18 -32.5 -19.5t-23.5 23.5zM359 571q-8 5 -31 22l-8 6q-16 12 -26 17q9 -9 29 -66q14 -41 4 -39q-12 2 -22 17t-16.5 31t-20 28t-32.5 9q-46 -7 -89 -101q-33 -76 -42.5 -156.5t9.5 -160.5 q13 -48 35.5 -64t47.5 -3.5t48.5 37t42.5 57.5q48 81 66.5 177.5t4.5 188.5zM247 893q11 21 27 27q15 4 20.5 -9.5t2.5 -37.5t-6.5 -39t-6.5 -26q-8 -25 -38 -64q-43 -55 -46 -1q-35 -55 -42 3q-4 35 2 67q9 53 31 84q14 18 32.5 19.5t23.5 -23.5z" />
<glyph unicode="&#xf7;" horiz-adv-x="416" d="M159 172q11 21 27 27q15 4 20.5 -9.5t2.5 -37.5t-6.5 -39t-6.5 -26q-8 -25 -38 -64q-43 -55 -46 -1q-35 -55 -42 3q-4 35 2 67q9 53 31 84q14 18 32.5 19.5t23.5 -23.5zM202 356q-11 -21 -27 -27q-15 -4 -20.5 9.5t-2.5 37.5t6.5 39t6.5 26q8 25 38 64q43 55 46 1 q35 55 42 -3q4 -35 -2 -67q-9 -53 -31 -84q-14 -18 -32.5 -19.5t-23.5 23.5zM386 247q8 -19 -84.5 -29t-139.5 -10q-94 0 -138 13q-48 14 -7 35q17 9 39 14q-40 7 -45 24q-2 11 19 18q5 2 12 4q52 11 146 9q96 -2 150 -13q24 -5 32.5 -12.5t-0.5 -15.5t-36 -13q45 -8 52 -24 z" />
<glyph unicode="&#xf8;" horiz-adv-x="486" d="M399 653q15 45 36 7l5 5l14.5 14.5t17 16.5t16 13.5t18.5 11.5q22 10 -4 -44q-21 -43 -42 -73q7 7 24.5 26t28.5 30t27.5 25t31.5 22q3 2 5.5 2.5t4 -0.5t2 -3t-0.5 -5q-7 -21 -48 -77q-33 -46 -63 -83q16 -120 -16 -242.5t-105 -213.5q-40 -51 -93.5 -79.5t-112.5 -20 t-100 63.5q-39 -37 -56 -47q-29 -18 33 77l2 4q0 1 -1 2q-20 -23 -39 -41.5t-32.5 -27.5t-24.5 -14.5t-16.5 -8t-6.5 -3.5q-8 13 96 153q-17 55 -15 121t14.5 124.5t34.5 114.5q17 45 51 89.5t77 77.5t92.5 29t89.5 -57q-1 4 -9 26t-14.5 41.5t-10.5 40.5t3 23q10 7 24.5 -8 t28 -41t21.5 -43.5t12 -27.5zM147 495q-47 -110 -46 -222q55 71 116 145q87 101 91 106q-5 7 -16.5 29.5t-24 34t-31.5 8.5q-46 -7 -89 -101zM288 205q52 91 69 194l-47 -56q-136 -156 -181 -205q20 -38 50.5 -31.5t58 33t50.5 65.5zM294 616q12 -16 31 -73q13 17 28 31 l-33 25q-16 12 -26 17zM-95 -12q0 1 -1 2q0 -1 1 -2z" />
<glyph unicode="&#xf9;" horiz-adv-x="448" d="M433 631q33 92 49 86q17 -8 -20 -174q-31 -145 -67 -250q-18 -54 -31 -88.5t-37.5 -84t-56.5 -83.5t-71 -52q-70 -33 -128.5 4.5t-72.5 112.5q-19 102 3 216t70 252q17 38 41 61q26 26 28 -18q11 21 19 31t12 8l7 -3q2 0 -15 -96t-36 -200.5t-20 -117.5q-2 -16 -2 -38 t2 -55.5t15 -48.5t35 0q11 7 21 17t18 19t17 24.5t14 24t13.5 27t11.5 25t11 26.5t10 24q32 83 73 220q6 21 15.5 60t18.5 71t20 59q26 64 32 4q4 -33 1 -63zM495 743q-4 -6 -14 -7.5t-24.5 0.5t-31 6t-36.5 10.5t-37 12.5t-36.5 14t-32 13t-25.5 10.5t-15 6.5 q-93 34 -143 66q-44 27 -24 38q16 8 58 -1q-47 27 -51 47t48 9q69 -14 177 -59q108 -44 172 -83q51 -31 34 -43q-14 -9 -62 2q25 -15 36 -25.5t7 -16.5z" />
<glyph unicode="&#xfa;" horiz-adv-x="448" d="M433 631q33 92 49 86q17 -8 -20 -174q-31 -145 -67 -250q-18 -54 -31 -88.5t-37.5 -84t-56.5 -83.5t-71 -52q-70 -33 -128.5 4.5t-72.5 112.5q-19 102 3 216t70 252q17 38 41 61q26 26 28 -18q11 21 19 31t12 8l7 -3q2 0 -15 -96t-36 -200.5t-20 -117.5q-2 -16 -2 -38 t2 -55.5t15 -48.5t35 0q11 7 21 17t18 19t17 24.5t14 24t13.5 27t11.5 25t11 26.5t10 24q32 83 73 220q6 21 15.5 60t18.5 71t20 59q26 64 32 4q4 -33 1 -63zM184 686q-4 6 7 16.5t36 25.5q-67 -15 -65 5q1 14 37 36q64 39 172 83q108 45 177 59q52 11 48 -9t-51 -47 q54 12 63 -3q6 -12 -29 -34q-50 -32 -143 -66q-2 -1 -15 -6.5t-25.5 -10.5t-32 -13t-36.5 -14t-37 -12.5t-36.5 -10.5t-31 -6t-24.5 -0.5t-14 7.5z" />
<glyph unicode="&#xfb;" horiz-adv-x="448" d="M433 631q33 92 49 86q17 -8 -20 -174q-31 -145 -67 -250q-18 -54 -31 -88.5t-37.5 -84t-56.5 -83.5t-71 -52q-70 -33 -128.5 4.5t-72.5 112.5q-19 102 3 216t70 252q17 38 41 61q26 26 28 -18q11 21 19 31t12 8l7 -3q2 0 -15 -96t-36 -200.5t-20 -117.5q-2 -16 -2 -38 t2 -55.5t15 -48.5t35 0q11 7 21 17t18 19t17 24.5t14 24t13.5 27t11.5 25t11 26.5t10 24q32 83 73 220q6 21 15.5 60t18.5 71t20 59q26 64 32 4q4 -33 1 -63zM157 766q-12 3 10 57t60.5 112t66.5 69q-12 26 5 24q21 -3 43 -24q13 7 17.5 0t3.5 -20q28 -33 29 -35 q32 -42 54 -80q17 -29 25 -66q6 -29 -11 -21q-6 3 -15 10q11 -35 -4 -35.5t-36 19.5q-49 45 -90 103q-48 -76 -88 -112q-17 -16 -30.5 -14.5t-4.5 27.5q-23 -18 -35 -14z" />
<glyph unicode="&#xfc;" horiz-adv-x="448" d="M380 712q-11 -21 -27 -27q-15 -4 -20.5 9.5t-2.5 37.5t6.5 39t6.5 26q8 25 38 64q43 55 46 1q35 55 42 -3q4 -35 -2 -67q-9 -53 -31 -84l-5 -5q5 -28 2 -72q33 92 49 86q17 -8 -20 -174q-31 -145 -67 -250q-18 -54 -31 -88.5t-37.5 -84t-56.5 -83.5t-71 -52 q-70 -33 -128.5 4.5t-72.5 112.5q-19 102 3 216t70 252q17 38 41 61q26 26 28 -18q11 21 19 31t12 8l7 -3q2 0 -15 -96t-36 -200.5t-20 -117.5q-2 -16 -2 -38t2 -55.5t15 -48.5t35 0q11 7 21 17t18 19t17 24.5t14 24t13.5 27t11.5 25t11 26.5t10 24q32 83 73 220q3 11 21 82 t32 106q-16 2 -19 24zM264 842q11 21 27 27q15 4 20.5 -9.5t2.5 -37.5t-6.5 -39t-6.5 -26q-8 -25 -38 -64q-43 -55 -46 -1q-35 -55 -42 3q-4 35 2 67q9 53 31 84q14 18 32.5 19.5t23.5 -23.5z" />
<glyph unicode="&#xfd;" horiz-adv-x="387" d="M371 629q69 69 79 59q12 -13 -107 -195q-77 -125 -149 -196v-1q-28 -128 -45 -191q-2 -8 -9 -37t-11.5 -44.5t-14 -37t-21.5 -35.5q-20 -21 -15 91q-31 -92 -51 -85q-7 9 -6 35.5t9.5 76t17.5 91.5t17.5 83t10.5 50q-17 54 -45 166q-25 102 -26 152q0 16 4.5 28t13.5 15 t22 -16q-5 50 4 51l8 1q6 3 21 -31.5t35.5 -96t28 -86t17.5 -57.5q86 143 164 230q11 16 41.5 48t38.5 21q3 -8 2.5 -15.5t-6 -20t-10 -21t-10.5 -19t-8 -13.5zM109 675q-4 6 7 16.5t36 25.5q-67 -15 -65 5q1 14 37 36q64 39 172 83q108 45 177 59q52 11 48 -9t-51 -47 q54 12 63 -3q6 -12 -29 -34q-50 -32 -143 -66q-2 -1 -15 -6.5t-25.5 -10.5t-32 -13t-36.5 -14t-37 -12.5t-36.5 -10.5t-31 -6t-24.5 -0.5t-14 7.5z" />
<glyph unicode="&#xfe;" horiz-adv-x="485" d="M92 421q-79 -13 -120 -19q-36 -6 -46 4q-7 7 16 21q1 0 2 1q39 24 113 43q-58 22 34 56q26 10 42 13q2 6 9 28.5t12.5 37.5t15.5 32t21 24q9 -10 7 -48.5t-6 -60.5q1 2 4 11t6.5 18.5t8.5 22.5t10.5 24t11 20.5t10.5 14.5t10 4t6.5 -12.5t-1 -28.5t-5 -32t-5.5 -31 l-4 -15q115 -3 185 -75t33 -180q-37 -107 -151 -170q-13 -8 -93 -33.5t-80 -17.5q-2 8 3.5 16.5t15.5 16.5t19.5 14t21 12.5t14.5 8.5q-39 -10 -80 -12q-43 -131 -68 -174q-21 -37 -26 1q-2 17 0 34q-9 -24 -32 -54q-24 -30 -27 -1q-3 30 13 111q31 157 100 375zM141 157 q198 68 216 194q1 25 -12 42.5t-36.5 25t-44 10.5t-46.5 3q-35 -138 -77 -275z" />
<glyph unicode="&#xff;" horiz-adv-x="387" d="M371 629q69 69 79 59q12 -13 -107 -195q-77 -125 -149 -196v-1q-28 -128 -45 -191q-2 -8 -9 -37t-11.5 -44.5t-14 -37t-21.5 -35.5q-20 -21 -15 91q-31 -92 -51 -85q-7 9 -6 35.5t9.5 76t17.5 91.5t17.5 83t10.5 50q-17 54 -45 166q-25 102 -26 152q0 16 4.5 28t13.5 15 t22 -16q-5 50 4 51l8 1q6 3 21 -31.5t35.5 -96t28 -86t17.5 -57.5q86 143 164 230q11 16 41.5 48t38.5 21q3 -8 2.5 -15.5t-6 -20t-10 -21t-10.5 -19t-8 -13.5zM293 712q-11 -21 -27 -27q-15 -4 -20.5 9.5t-2.5 37.5t6.5 39t6.5 26q8 25 38 64q43 55 46 1q35 55 42 -3 q4 -35 -2 -67q-9 -53 -31 -84q-14 -18 -32.5 -19.5t-23.5 23.5zM177 842q11 21 27 27q15 4 20.5 -9.5t2.5 -37.5t-6.5 -39t-6.5 -26q-8 -25 -38 -64q-43 -55 -46 -1q-35 -55 -42 3q-4 35 2 67q9 53 31 84q14 18 32.5 19.5t23.5 -23.5z" />
<glyph unicode="&#x100;" horiz-adv-x="521" d="M624 854q5 -9 -14 -19t-56 -18q36 -2 50.5 -10.5t4 -19t-41.5 -18.5q-63 -14 -133 -19q-2 -15 -16 -47q50 -232 74 -539q12 -139 6 -183q-6 -45 -30 29l-20 77q2 -100 -2 -137q-2 -26 -10 -25q-4 0 -8 9q-12 26 -21.5 62t-13.5 58t-10.5 71t-8.5 60q-85 3 -212 24 q-142 -242 -157 -232l-6 3q-4 1 4.5 24t27.5 64q-28 -39 -54 -57t-17 21q1 3 2 7q15 58 86 192l-4 1l-8 2l-10 2.5t-12 3.5t-12.5 4t-11.5 4t-9 4t-6 4t-1 4q3 6 12 10.5t22.5 5.5t23.5 1.5t25 0t16 -0.5v1q-42 11 -33 19q8 7 49 8q121 219 231 374q0 7 -2 29t-3 35 q-59 -2 -100 2q-28 2 -41.5 8t-4.5 15t44 18q-55 4 -62 20q-4 9 17 18q6 3 13 5q51 16 163 30q4 1 27 4.5t43 6t49 6t53 4t47.5 -1t39 -7.5t21.5 -17zM360 279l-29 240q-51 -100 -117 -218q97 -7 146 -22z" />
<glyph unicode="&#x101;" d="M557 741q5 -9 -14 -19t-56 -18q36 -2 50.5 -10.5t4 -19t-41.5 -18.5q-28 -7 -86 -15q-7 -24 -51 -119q40 -107 82 -286q19 -4 22 -11q-4 -8 -17 -12q0 -2 4.5 -20.5t9 -40.5t10.5 -50.5t9.5 -54.5t6 -48.5t1 -36.5t-7.5 -15q-2 0 -6 6t-7.5 16t-7 19t-6.5 17t-3 9 q12 -58 7 -84q-4 -19 -21 10q-1 1 -2 3q-9 16 -17.5 35.5t-14.5 34.5t-14.5 39.5t-12 36t-12.5 40t-11 36.5q-95 -15 -190 -13q-9 -15 -30 -53.5t-34.5 -61t-35.5 -52t-43 -47.5t8 68q14 40 21 56q-48 -74 -82 -112q-27 -27 -24 -6v3q5 29 18.5 65t24.5 58.5t34.5 65.5 t30.5 56h-1q-89 12 -82 31q1 3 4 5q7 6 17.5 10.5t24 6.5t23 3t25 1.5t19.5 0.5q86 163 171 303q-8 56 0 57l6 1q5 3 16 -23l27 44q-98 -6 -155 0q-28 2 -41.5 8t-4.5 15t44 18q-55 4 -62 20q-4 9 17 18q6 3 13 5q51 16 163 30q4 1 27 4.5t43 6t49 6t53 4t47.5 -1t39 -7.5 t21.5 -17zM292 382q-31 -58 -70 -129q41 0 107 -4q-23 80 -37 133z" />
<glyph unicode="&#x102;" horiz-adv-x="521" d="M450 705q-11 -3 -32 -5q50 -231 74 -536q12 -139 6 -183q-6 -45 -30 29l-20 77q2 -100 -2 -137q-2 -26 -10 -25q-4 0 -8 9q-12 26 -21.5 62t-13.5 58t-10.5 71t-8.5 60q-85 3 -212 24q-142 -242 -157 -232l-6 3q-4 1 4.5 24t27.5 64q-28 -39 -54 -57t-17 21q1 3 2 7 q15 58 86 192l-4 1l-8 2l-10 2.5t-12 3.5t-12.5 4t-11.5 4t-9 4t-6 4t-1 4q3 6 12 10.5t22.5 5.5t23.5 1.5t25 0t16 -0.5v1q-42 11 -33 19q8 7 49 8q121 219 231 374l-3 44q-71 40 -82 104q-9 30 -2.5 67.5t27.5 61.5q13 13 19 -19q4 -15 7 -54q2 -25 3 -29q-2 13 3 42 t18 26q4 -1 7.5 -15.5t6.5 -31t4 -19.5q15 -20 43 -30t54 -7q8 1 39.5 20.5t59.5 37.5t30 17q15 -14 -14.5 -50.5t-51.5 -54.5q27 11 75 59q3 3 17 22.5t26.5 33.5t19.5 14q15 -1 -13.5 -57.5t-40.5 -69.5q-56 -68 -122 -86zM360 279l-29 240q-51 -100 -117 -218 q97 -7 146 -22z" />
<glyph unicode="&#x103;" d="M424 628q-4 -2 -16 -4q-5 -13 -45 -102q40 -107 82 -286q19 -4 22 -11q-4 -8 -17 -12q0 -2 4.5 -20.5t9 -40.5t10.5 -50.5t9.5 -54.5t6 -48.5t1 -36.5t-7.5 -15q-2 0 -6 6t-7.5 16t-7 19t-6.5 17t-3 9q12 -58 7 -84q-4 -19 -21 10q-1 1 -2 3q-9 16 -17.5 35.5t-14.5 34.5 t-14.5 39.5t-12 36t-12.5 40t-11 36.5q-95 -15 -190 -13q-9 -15 -30 -53.5t-34.5 -61t-35.5 -52t-43 -47.5t8 68q14 40 21 56q-48 -74 -82 -112q-27 -27 -24 -6v3q5 29 18.5 65t24.5 58.5t34.5 65.5t30.5 56h-1q-89 12 -82 31q1 3 4 5q7 6 17.5 10.5t24 6.5t23 3t25 1.5 t19.5 0.5q86 163 171 303q-8 56 0 57l6 1q5 3 16 -23q5 8 15.5 25.5t14.5 24.5q-38 16 -64.5 46.5t-32.5 65.5q-9 30 -2.5 67.5t27.5 61.5q13 13 19 -19q4 -15 7 -54q2 -25 3 -29q-2 13 3 42t18 26q4 -1 7.5 -15.5t6.5 -31t4 -19.5q15 -20 43 -30t54 -7q8 1 39.5 20.5 t59.5 37.5t30 17q15 -14 -14.5 -50.5t-51.5 -54.5q27 11 75 59q3 3 17 22.5t26.5 33.5t19.5 14q15 -1 -13.5 -57.5t-40.5 -69.5q-56 -68 -122 -86zM292 382q-31 -58 -70 -129q41 0 107 -4q-23 80 -37 133z" />
<glyph unicode="&#x104;" horiz-adv-x="521" d="M364 -11q-57 -50 -57 -96q-3 -15 6 -34q4 -5 23.5 -18t32.5 -23.5t6 -14.5q-28 -11 -54 -2t-47 29q26 -44 89 -55q10 -1 46.5 7t42.5 4q12 -8 -26 -26q-40 -20 -60 -23q-77 -5 -131 52q-39 38 -43.5 92t19 102.5t64.5 80.5q44 36 107 58l-8 63q-85 3 -212 24 q-142 -242 -157 -232l-6 3q-4 1 4.5 24t27.5 64q-28 -39 -54 -57t-17 21q1 3 2 7q15 58 86 192l-4 1l-8 2l-10 2.5t-12 3.5t-12.5 4t-11.5 4t-9 4t-6 4t-1 4q3 6 12 10.5t22.5 5.5t23.5 1.5t25 0t16 -0.5v1q-42 11 -33 19q8 7 49 8q121 219 231 374q0 7 -2 36.5t-2.5 45 t2.5 38t10 37.5q12 25 32 -31l16 -53q0 47 10 47q3 0 6.5 -4.5t6 -11.5t4.5 -14t3.5 -13.5t1.5 -7.5q21 28 27 21q6 -10 -17 -66q50 -232 74 -539q12 -139 6 -183t-29 28q-7 21 -14 49l-6 -5q0 -69 -3 -103q-2 -26 -10 -25q-4 0 -8 9q-17 34 -28 82q-7 -6 -16 -12.5t-14 -10 t-6 -4.5zM360 279l-29 240q-51 -100 -117 -218q97 -7 146 -22zM448 87v-3v3z" />
<glyph unicode="&#x105;" d="M363 -52q-57 -50 -57 -96q-3 -15 6 -34q4 -5 23.5 -18t32.5 -23.5t6 -14.5q-28 -11 -54 -2t-47 29q26 -44 89 -55q10 -1 46.5 7t42.5 4q12 -8 -26 -26q-40 -20 -60 -23q-77 -5 -131 52q-39 38 -43.5 92t19 102.5t64.5 80.5q44 35 106 58q-9 28 -25 84q-95 -15 -190 -13 q-9 -15 -30 -53.5t-34.5 -61t-35.5 -52t-43 -47.5t8 68q14 40 21 56q-48 -74 -82 -112q-27 -27 -24 -6v3q5 29 18.5 65t24.5 58.5t34.5 65.5t30.5 56h-1q-89 12 -82 31q1 3 4 5q7 6 17.5 10.5t24 6.5t23 3t25 1.5t19.5 0.5q86 163 171 303q-8 56 0 57l6 1q5 3 16 -23 q6 9 23 37.5t28 45.5t29.5 37t35.5 29q26 14 7 -50q-7 -22 -16 -45q31 40 36 28q2 -4 -1 -16q-9 -32 -55 -132q40 -107 82 -286q19 -4 22 -11q-4 -8 -17 -12q0 -4 3.5 -19.5t9.5 -41.5t10 -48q5 -3 2 -9q27 -146 8 -148q-2 0 -6 6t-7.5 16t-7 19t-6.5 17t-3 9q12 -58 7 -84 q-4 -19 -21 10q-1 1 -2 3q-8 14 -22 44q-46 -33 -52 -39zM292 382q-31 -58 -70 -129q41 0 107 -4q-23 80 -37 133z" />
<glyph unicode="&#x106;" horiz-adv-x="471" d="M136 710q-4 6 7 16.5t36 25.5q-67 -15 -65 5q1 14 37 36q64 39 172 83q108 45 177 59q52 11 48 -9t-51 -47q54 12 63 -3q6 -12 -29 -34q-50 -32 -143 -66q-80 -33 -96 -39q96 0 128 -86q21 36 36 40q7 2 9 -10l1 -9q39 54 37 9q-3 -54 -40 -155l-7 -18q-31 -78 -57 -122 q-39 -56 -41 -16q-39 -56 -37 2q1 7 12 91q1 5 1 7q0 1 2.5 41.5t-0.5 65t-14 37.5q-51 61 -115 -43t-83 -179q-7 -25 -13.5 -69.5t-10 -102t12 -97t50.5 -36.5q19 1 37.5 9.5t31.5 17t31 28t25 27.5t25.5 33.5t21.5 28.5q46 64 56 54q18 -17 -21 -90q1 1 8.5 10.5t16.5 20 t18.5 20.5t17.5 15.5t12 2.5q18 -20 -29 -90.5t-81 -105.5q-83 -88 -178 -91q-46 0 -80 24t-51.5 63.5t-26 80t-8.5 83.5q-2 87 16 175t65 173t116 128q-42 -7 -50 6z" />
<glyph unicode="&#x107;" d="M470 457q-12 -32 -22.5 -58.5t-25 -59t-28 -50.5t-22.5 -17q-14 3 -6 59q-27 -35 -27 7l3 27q9 54 37 137q-2 22 -20 40t-49 12q-69 -16 -122.5 -101t-69.5 -166q-6 -30 -7.5 -66t2 -73.5t19 -65.5t41.5 -35q31 -8 67 12.5t62.5 50t51 57t33.5 30.5q19 6 13 -27 q-8 -40 -32 -83q8 8 44.5 52t58.5 56q1 1 -8.5 -23t-21 -51.5t-16.5 -33.5q-81 -115 -190 -145q-86 -23 -150 23.5t-82 137.5q-25 125 14 266t128 229q36 35 86.5 56.5t107 18.5t94.5 -39q22 41 35 34t5 -52q21 22 26.5 3t2.5 -43q-6 -42 -32 -119zM224 693q-4 6 7 16.5 t36 25.5q-67 -15 -65 5q1 14 37 36q64 39 172 83q108 45 177 59q52 11 48 -9t-51 -47q54 12 63 -3q6 -12 -29 -34q-50 -32 -143 -66q-2 -1 -15 -6.5t-25.5 -10.5t-32 -13t-36.5 -14t-37 -12.5t-36.5 -10.5t-31 -6t-24.5 -0.5t-14 7.5z" />
<glyph unicode="&#x108;" horiz-adv-x="471" d="M466 672q39 54 37 9q-3 -54 -40 -155l-7 -18q-31 -78 -57 -122q-39 -56 -41 -16q-39 -56 -37 2q1 7 12 91q1 5 1 7q0 1 2.5 41.5t-0.5 65t-14 37.5q-51 61 -115 -43t-83 -179q-7 -25 -13.5 -69.5t-10 -102t12 -97t50.5 -36.5q19 1 37.5 9.5t31.5 17t31 28t25 27.5 t25.5 33.5t21.5 28.5q46 64 56 54q18 -17 -21 -90q1 1 8.5 10.5t16.5 20t18.5 20.5t17.5 15.5t12 2.5q18 -20 -29 -90.5t-81 -105.5q-83 -88 -178 -91q-46 0 -80 24t-51.5 63.5t-26 80t-8.5 83.5q-1 66 10 135.5t35 138t68 125.5t101 87q40 21 83 23.5t80.5 -19.5t53.5 -67 q21 36 36 40q7 2 9 -10zM137 732q-12 3 10 57t60.5 112t66.5 69q-12 26 5 24q21 -3 43 -24q13 7 17.5 0t3.5 -20q28 -33 29 -35q32 -42 54 -80q17 -29 25 -66q6 -29 -11 -21q-6 3 -15 10q11 -35 -4 -35.5t-36 19.5q-49 45 -90 103q-48 -76 -88 -112q-17 -16 -30.5 -14.5 t-4.5 27.5q-23 -18 -35 -14z" />
<glyph unicode="&#x109;" d="M470 457q-12 -32 -22.5 -58.5t-25 -59t-28 -50.5t-22.5 -17q-14 3 -6 59q-27 -35 -27 7l3 27q9 54 37 137q-2 22 -20 40t-49 12q-69 -16 -122.5 -101t-69.5 -166q-6 -30 -7.5 -66t2 -73.5t19 -65.5t41.5 -35q31 -8 67 12.5t62.5 50t51 57t33.5 30.5q19 6 13 -27 q-8 -40 -32 -83q8 8 44.5 52t58.5 56q1 1 -8.5 -23t-21 -51.5t-16.5 -33.5q-81 -115 -190 -145q-86 -23 -150 23.5t-82 137.5q-25 125 14 266t128 229q36 35 86.5 56.5t107 18.5t94.5 -39q22 41 35 34t5 -52q21 22 26.5 3t2.5 -43q-6 -42 -32 -119zM154 690q-12 3 10 57 t60.5 112t66.5 69q-12 26 5 24q21 -3 43 -24q13 7 17.5 0t3.5 -20q27 -33 29 -35q32 -42 54 -80q17 -29 25 -66q6 -29 -11 -21q-6 3 -15 10q11 -35 -4 -35.5t-36 19.5q-49 45 -90 103q-48 -76 -88 -112q-17 -16 -30.5 -14.5t-4.5 27.5q-23 -18 -35 -14z" />
<glyph unicode="&#x10a;" horiz-adv-x="471" d="M466 672q39 54 37 9q-3 -54 -40 -155l-7 -18q-31 -78 -57 -122q-39 -56 -41 -16q-39 -56 -37 2q1 7 12 91q1 5 1 7q0 1 2.5 41.5t-0.5 65t-14 37.5q-51 61 -115 -43t-83 -179q-7 -25 -13.5 -69.5t-10 -102t12 -97t50.5 -36.5q19 1 37.5 9.5t31.5 17t31 28t25 27.5 t25.5 33.5t21.5 28.5q46 64 56 54q18 -17 -21 -90q1 1 8.5 10.5t16.5 20t18.5 20.5t17.5 15.5t12 2.5q18 -20 -29 -90.5t-81 -105.5q-83 -88 -178 -91q-46 0 -80 24t-51.5 63.5t-26 80t-8.5 83.5q-1 66 10 135.5t35 138t68 125.5t101 87q40 21 83 23.5t80.5 -19.5t53.5 -67 q21 36 36 40q7 2 9 -10zM370 922q11 21 27 27q15 4 20.5 -9.5t2.5 -37.5t-6.5 -39t-6.5 -26q-8 -25 -38 -64q-43 -55 -46 -1q-35 -55 -42 3q-4 35 2 67q9 53 31 84q14 18 32.5 19.5t23.5 -23.5z" />
<glyph unicode="&#x10b;" d="M470 457q-12 -32 -22.5 -58.5t-25 -59t-28 -50.5t-22.5 -17q-14 3 -6 59q-27 -35 -27 7l3 27q9 54 37 137q-2 22 -20 40t-49 12q-69 -16 -122.5 -101t-69.5 -166q-6 -30 -7.5 -66t2 -73.5t19 -65.5t41.5 -35q31 -8 67 12.5t62.5 50t51 57t33.5 30.5q19 6 13 -27 q-8 -40 -32 -83q8 8 44.5 52t58.5 56q1 1 -8.5 -23t-21 -51.5t-16.5 -33.5q-81 -115 -190 -145q-86 -23 -150 23.5t-82 137.5q-25 125 14 266t128 229q36 35 86.5 56.5t107 18.5t94.5 -39q22 41 35 34t5 -52q21 22 26.5 3t2.5 -43q-6 -42 -32 -119zM382 886q11 21 27 27 q15 4 20.5 -9.5t2.5 -37.5t-6.5 -39t-6.5 -26q-8 -25 -38 -64q-43 -55 -46 -1q-35 -55 -42 3q-4 35 2 67q9 53 31 84q14 18 32.5 19.5t23.5 -23.5z" />
<glyph unicode="&#x10c;" horiz-adv-x="471" d="M184 883q12 3 30 -12q-8 23 4 24t26 -12q37 -34 77 -98q36 51 79 89q17 18 30.5 17.5t3.5 -30.5q29 24 23 -9q-5 -27 -21 -59q-21 -36 -48 -69q-1 -1 -5 -6.5t-6 -7.5q28 -22 43 -59q21 36 36 40q7 2 9 -10l1 -9q39 54 37 9q-3 -54 -40 -155l-7 -18q-31 -78 -57 -122 q-39 -56 -41 -16q-39 -56 -37 2q1 7 12 91q1 5 1 7q0 1 2.5 41.5t-0.5 65t-14 37.5q-51 61 -115 -43t-83 -179q-7 -25 -13.5 -69.5t-10 -102t12 -97t50.5 -36.5q19 1 37.5 9.5t31.5 17t31 28t25 27.5t25.5 33.5t21.5 28.5q46 64 56 54q18 -17 -21 -90q1 1 8.5 10.5t16.5 20 t18.5 20.5t17.5 15.5t12 2.5q18 -20 -29 -90.5t-81 -105.5q-83 -88 -178 -91q-46 0 -80 24t-51.5 63.5t-26 80t-8.5 83.5q-1 66 10 135.5t35 138t68 125.5t101 87q21 11 45 17q-20 30 -38 65t-25.5 60t-0.5 27z" />
<glyph unicode="&#x10d;" d="M470 457q-12 -32 -22.5 -58.5t-25 -59t-28 -50.5t-22.5 -17q-14 3 -6 59q-27 -35 -27 7l3 27q9 54 37 137q-2 22 -20 40t-49 12q-69 -16 -122.5 -101t-69.5 -166q-6 -30 -7.5 -66t2 -73.5t19 -65.5t41.5 -35q31 -8 67 12.5t62.5 50t51 57t33.5 30.5q19 6 13 -27 q-8 -40 -32 -83q8 8 44.5 52t58.5 56q1 1 -8.5 -23t-21 -51.5t-16.5 -33.5q-81 -115 -190 -145q-86 -23 -150 23.5t-82 137.5q-25 125 14 266t128 229q36 35 86.5 56.5t107 18.5t94.5 -39q22 41 35 34t5 -52q21 22 26.5 3t2.5 -43q-6 -42 -32 -119zM244 916q12 3 30 -12 q-8 23 4 24t26 -12q37 -34 77 -98q36 51 79 89q17 18 30.5 17.5t3.5 -30.5q29 24 23 -9q-5 -27 -21 -59q-21 -36 -48 -69q-12 -17 -25 -31q1 -12 -3.5 -19t-14.5 1q-21 -20 -38 -21q-14 0 -4 22q-24 10 -57.5 60t-52.5 97t-9 50z" />
<glyph unicode="&#x10e;" horiz-adv-x="529" d="M125 839q12 3 30 -12q-8 23 4 24t26 -12q37 -34 77 -98q36 51 79 89q17 18 30.5 17.5t3.5 -30.5q29 24 23 -9q-5 -27 -21 -59q-21 -35 -40 -59q16 -8 32 -20q114 -87 127 -274q7 -95 -27.5 -186t-95.5 -157.5t-144.5 -108.5t-172.5 -45q-4 0 -16 1t-29 3t-28 6.5t-9 10.5 q5 11 82 26q-1 0 -2.5 0.5t-2.5 1.5q-9 0 -25.5 1.5t-38.5 5.5t-36.5 12t-12.5 19q1 2 7 3.5t15 1.5h17t15.5 -0.5t8.5 -0.5q-9 66 28.5 279.5t76.5 346.5q-9 -2 -20 -4t-30.5 -4.5t-29 1t-3.5 12.5q20 31 89 54q-1 0 -12 -2.5t-21 -4.5t-22 -4t-20 -2t-9 3q-5 9 10.5 18.5 t42 17.5t48 13.5t37.5 8.5q-24 42 -37 77.5t-4 38.5zM196 622q7 -52 -36.5 -271.5t-72.5 -342.5q111 35 194 125.5t95 201.5q6 56 -5 110t-43 100t-81 65q-5 0 -6 3q-21 6 -45 9zM153 597q8 20 8 25h-7q0 -4 -0.5 -12t-0.5 -13zM119 -42q-1 0 -7 -2q6 2 7 2z" />
<glyph unicode="&#x10f;" horiz-adv-x="551" d="M197 624q125 6 204 -90t67 -208q-7 -121 -62 -228.5t-150 -175.5q-104 -73 -199 -68q-78 5 31 51l30 13q-73 -18 -76 0q0 2 40.5 27t85.5 52.5t52 34.5q81 82 112 199q13 50 14 96.5t-12 89t-50.5 68.5t-95.5 27q-25 -224 -69 -394q-14 -54 -43 -109q-34 -62 -33 14v12 q-37 -112 -49 -81q-1 2 -2 5q-8 32 4 130q20 181 75 403q-86 -37 -91 -27t6.5 23t33.5 25.5t37 20t28 13.5q-59 -16 -115 -45q-2 -1 -17.5 -11.5t-29.5 -17.5t-19 -4q-11 7 23 40t54 48q58 39 124 56q18 50 30 47q9 -3 8 -40q2 1 6 1q20 88 39 84q4 -1 7 -8.5t3.5 -19 t0 -21.5t-1 -20.5t-0.5 -11.5zM636 590q-18 -73 -46 -135.5t-47 -65.5t-16 44q-21 -43 -35 -39q-8 2 -9 29q-1 52 16 136q19 89 44 136q10 19 23.5 28t23.5 0t10 -37q39 81 44 10q3 -55 -8 -106z" />
<glyph unicode="&#x110;" horiz-adv-x="529" d="M496 396q7 -95 -27.5 -186t-95.5 -157.5t-144.5 -108.5t-172.5 -45q-4 0 -16 1t-29 3t-28 6.5t-9 10.5q5 11 82 26q-1 0 -2.5 0.5t-2.5 1.5q-9 0 -25.5 1.5t-38.5 5.5t-36.5 12t-12.5 19q1 2 7 3.5t15 1.5h17t15.5 -0.5t8.5 -0.5q-8 69 26 265q-35 0 -53 2q-22 2 -33 7.5 t-3.5 13.5t34.5 16q-45 4 -49 19q-3 8 17 17q3 2 7 3q44 14 98 22q31 163 61 261q-9 -2 -20 -4t-30.5 -4.5t-29 1t-3.5 12.5q20 31 89 54q-1 0 -12 -2.5t-21 -4.5t-22 -4t-20 -2t-9 3q-5 10 14.5 21t48 19t52.5 13.5t31 5.5q110 10 195 -54q114 -87 127 -274zM297 355 q4 -8 -10.5 -16.5t-44.5 -16.5q28 -2 39.5 -10t3.5 -17t-33 -16q-36 -10 -110 -18q-11 -52 -23 -107.5t-21.5 -97.5t-10.5 -48q111 35 194 125.5t95 201.5q7 66 -8.5 127.5t-60 108t-111.5 51.5q6 -48 -32 -248q117 15 133 -19zM153 597q8 20 8 25h-7q0 -4 -0.5 -12 t-0.5 -13zM119 -42q-1 0 -7 -2q6 2 7 2z" />
<glyph unicode="&#x111;" horiz-adv-x="497" d="M276 231q5 -13 -35 -21t-104 -14q-2 -12 -5 -25t-7 -28.5t-6 -24.5q-14 -54 -43 -109q-34 -62 -33 14v12q-37 -112 -49 -81q-1 2 -2 5q-8 32 4 130q9 73 13 103q-56 2 -95 13q-48 14 -7 35q17 9 39 14q-40 7 -45 24q-2 11 19 18q5 2 12 4q48 9 98 9q16 81 41 183 q-86 -37 -91 -27t6.5 23t33.5 25.5t37 20t28 13.5q-59 -16 -115 -45q-2 -1 -17.5 -11.5t-29.5 -17.5t-19 -4q-11 7 23 40t54 48q58 39 124 56q18 50 30 47q9 -3 8 -40q2 1 6 1q20 88 39 84q4 -1 7 -8.5t3.5 -19t0 -21.5t-1 -20.5t-0.5 -11.5q125 6 204 -90t67 -208 q-7 -121 -62 -228.5t-150 -175.5q-104 -73 -199 -68q-78 5 31 51l30 13q-73 -18 -76 0q0 2 40.5 27t85.5 52.5t52 34.5q81 82 112 199q13 50 14 96.5t-12 89t-50.5 68.5t-95.5 27q-14 -121 -29 -207q35 -3 69 -9q24 -5 32.5 -12.5t-0.5 -15.5t-36 -13q45 -8 52 -24z" />
<glyph unicode="&#x112;" horiz-adv-x="478" d="M561 862q5 -9 -14 -19t-56 -18q36 -2 50.5 -10.5t4 -19t-41.5 -18.5q-63 -14 -175 -22q-92 -6 -139 -5q4 -9 -2 -60q114 32 249.5 49t138.5 -3l-1 -7q0 -9 -52 -25q23 -1 35 -6t11 -15q-2 -31 -108.5 -56t-223.5 -32q0 -78 -20 -200q6 1 25 4.5t28 5t27 3.5t29.5 2t26 -1 t26.5 -4q19 -5 -11.5 -22.5t-54.5 -27.5q19 0 25.5 -3.5t1 -9.5t-21.5 -13q-53 -23 -123 -38q-30 -122 -64 -179q185 44 283 53q56 6 64 -8t-52 -36q60 0 65 -12q2 -6 -19 -14l-2 -1q-39 -14 -119 -36q-4 -1 -30.5 -8.5t-32.5 -9t-30.5 -8t-33 -8t-30.5 -7t-33.5 -7t-31 -5 t-33.5 -4.5t-31 -2.5t-33 -1.5q-9 -21 -18.5 -30t-15.5 -1t-5 34q-15 6 -14 16t13 19q-40 0 -40 9l1 7q-2 7 48 24q13 85 48 237q-25 8 -17 21t28 22q33 136 65 242q-29 6 -27 15q1 3 9.5 6.5t17.5 5.5l9 3q1 1 1 4q-45 -1 -41 13q5 16 54 34q2 1 3 1l3 9q4 10 8.5 21.5 t10 24t9.5 17.5q-10 0 -30 2q-28 2 -41.5 8t-4.5 15t44 18q-55 4 -62 20q-4 9 17 18q6 3 13 5q51 16 163 30q4 1 27 4.5t43 6t49 6t53 4t47.5 -1t39 -7.5t21.5 -17z" />
<glyph unicode="&#x113;" d="M528 796q5 -9 -14 -19t-56 -18q36 -2 50.5 -10.5t4 -19t-41.5 -18.5q-63 -14 -175 -22q-22 -2 -66 -4v-20q138 20 237 11q44 -4 43 -14t-43 -22q60 3 55 -14q-4 -17 -56 -33q-91 -28 -252 -49q-14 -90 -35 -194q93 17 137 12q20 -2 21.5 -12t-17.5 -18q51 1 86 -12 q36 -14 -22 -33q-71 -24 -227 -36q-20 -93 -45 -183q145 29 288 44t152 -1v-7q1 -3 -36 -15q-6 -2 -17 -6l-17 -7q2 1 7 2q22 5 36.5 1.5t21 -9.5t6.5 -11q0 -34 -161 -63.5t-313 -34.5q-20 -52 -36 -52q-14 0 -10 51q-84 0 -83 16q0 4 14 8.5t30.5 8.5t17.5 4q-21 -4 -59 1 q-27 4 -19 14q9 9 25 16.5t26.5 10.5t34 8t26.5 6q0 4 2 14q-38 -37 -40 40q-2 66 12 140q-43 0 -41 10q1 5 5 9t11.5 7.5t11.5 5.5t13 5l9 2l3 13q-20 5 4 16q20 84 62 220q-56 -2 -56 10v7q-2 9 50 24q-51 2 -46 20q6 20 64 43q13 6 23 8l10 28q11 -3 19 -21q14 3 42 7 q5 13 10 23q-48 -2 -95 3q-28 2 -41.5 8t-4.5 15t44 18q-55 4 -62 20q-4 9 17 18q6 3 13 5q51 16 163 30q4 1 27 4.5t43 6t49 6t53 4t47.5 -1t39 -7.5t21.5 -17z" />
<glyph unicode="&#x116;" horiz-adv-x="478" d="M372 866q11 21 27 27q15 4 20.5 -9.5t2.5 -37.5t-6.5 -39t-6.5 -26q-8 -18 -29 -50q84 14 138.5 16t57.5 -11l-1 -7q0 -9 -52 -25q23 -1 35 -6t11 -15q-2 -31 -108.5 -56t-223.5 -32q0 -78 -20 -200q6 1 25 4.5t28 5t27 3.5t29.5 2t26 -1t26.5 -4q19 -5 -11.5 -22.5 t-54.5 -27.5q19 0 25.5 -3.5t1 -9.5t-21.5 -13q-53 -23 -123 -38q-30 -122 -64 -179q185 44 283 53q56 6 64 -8t-52 -36q60 0 65 -12q2 -6 -19 -14l-2 -1q-39 -14 -119 -36q-4 -1 -30.5 -8.5t-32.5 -9t-30.5 -8t-33 -8t-30.5 -7t-33.5 -7t-31 -5t-33.5 -4.5t-31 -2.5 t-33 -1.5q-9 -21 -18.5 -30t-15.5 -1t-5 34q-15 6 -14 16t13 19q-40 0 -40 9l1 7q-2 7 48 24q13 85 48 237q-25 8 -17 21t28 22q33 136 65 242q-29 6 -27 15q1 3 9.5 6.5t17.5 5.5l9 3q1 1 1 4q-45 -1 -41 13q5 16 54 34q2 1 3 1q1 3 5.5 14.5t11 27t12.5 26t8 8.5 q4 -3 5 -13t0 -19t-3 -20.5t-2 -12.5q43 12 95 23q-6 34 2 73q9 53 31 84q14 18 32.5 19.5t23.5 -23.5z" />
<glyph unicode="&#x117;" d="M489 78q22 5 36.5 1.5t21 -9.5t6.5 -11q0 -34 -161 -63.5t-313 -34.5q-20 -52 -36 -52q-14 0 -10 51q-84 0 -83 16q0 4 14 8.5t30.5 8.5t17.5 4q-21 -4 -59 1q-27 4 -19 14q9 9 25 16.5t26.5 10.5t34 8t26.5 6q0 4 2 14q-38 -37 -40 40q-2 66 12 140q-43 0 -41 10 q1 5 5 9t11.5 7.5t11.5 5.5t13 5l9 2l3 13q-20 5 4 16q20 84 62 220q-56 -2 -56 10v7q-2 9 50 24q-51 2 -46 20q6 20 64 43q13 6 23 8l10 28q11 -3 19 -21q14 3 42 7q0 1 4 11.5t10 20t9 6.5t3 -34q138 20 237 11q44 -4 43 -14t-43 -22q60 3 55 -14q-4 -17 -56 -33 q-91 -28 -252 -49q-14 -90 -35 -194q93 17 137 12q20 -2 21.5 -12t-17.5 -18q51 1 86 -12q36 -14 -22 -33q-71 -24 -227 -36q-20 -93 -45 -183q145 29 288 44t152 -1v-7q1 -3 -36 -15q-6 -2 -17 -6l-17 -7q2 1 7 2zM358 873q11 21 27 27q15 4 20.5 -9.5t2.5 -37.5t-6.5 -39 t-6.5 -26q-8 -25 -38 -64q-43 -55 -46 -1q-35 -55 -42 3q-4 35 2 67q9 53 31 84q14 18 32.5 19.5t23.5 -23.5z" />
<glyph unicode="&#x118;" horiz-adv-x="478" d="M218 -19q-57 -50 -57 -96q-3 -15 6 -34q4 -5 23.5 -18t32.5 -23.5t6 -14.5q-28 -11 -54 -2t-47 29q26 -44 89 -55q10 -1 46.5 7t42.5 4q12 -8 -26 -26q-42 -21 -60 -23q-77 -5 -131 52q-30 29 -40 68.5t-1.5 77t30.5 72.5q-32 -2 -46 -2q-9 -21 -18.5 -30t-15.5 -1t-5 34 q-15 6 -14 16t13 19q-40 0 -40 9l1 7q-2 7 48 24q13 85 48 237q-25 8 -17 21t28 22q33 136 65 242q-29 6 -27 15q1 3 9.5 6.5t17.5 5.5l9 3q1 1 1 4q-45 -1 -41 13q5 16 54 34q2 1 3 1q1 3 5.5 14.5t11 27t12.5 26t8 8.5q4 -3 5 -13t0 -19t-3 -20.5t-2 -12.5 q114 32 249.5 49t138.5 -3l-1 -7q0 -9 -52 -25q23 -1 35 -6t11 -15q-2 -31 -108.5 -56t-223.5 -32q0 -78 -20 -200q6 1 25 4.5t28 5t27 3.5t29.5 2t26 -1t26.5 -4q19 -5 -11.5 -22.5t-54.5 -27.5q19 0 25.5 -3.5t1 -9.5t-21.5 -13q-53 -23 -123 -38q-30 -122 -64 -179 q185 44 283 53q56 6 64 -8t-52 -36q60 0 65 -12q2 -6 -19 -14l-2 -1q-39 -14 -119 -36l-49 -14q-14 -11 -34 -26t-34 -25t-16 -12z" />
<glyph unicode="&#x119;" d="M258 -58q-57 -50 -57 -96q-3 -15 6 -34q4 -5 23.5 -18t32.5 -23.5t6 -14.5q-28 -11 -54 -2t-47 29q26 -44 89 -55q10 -1 46.5 7t42.5 4q12 -8 -26 -26q-40 -20 -60 -23q-77 -5 -131 52q-46 50 -45.5 108t36.5 113l-41 -2q-20 -52 -36 -52q-14 0 -10 51q-84 0 -83 16 q0 4 14 8.5t30.5 8.5t17.5 4q-21 -4 -59 1q-27 4 -19 14q9 9 25 16.5t26.5 10.5t34 8t26.5 6q0 4 2 14q-38 -37 -40 40q-2 66 12 140q-43 0 -41 10q1 5 5 9t11.5 7.5t11.5 5.5t13 5l9 2l3 13q-20 5 4 16q20 84 62 220q-56 -2 -56 10v7q-2 9 50 24q-51 2 -46 20q6 20 64 43 q13 6 23 8l10 28q11 -3 19 -21q14 3 42 7q0 1 4 11.5t10 20t9 6.5t3 -34q138 20 237 11q44 -4 43 -14t-43 -22q60 3 55 -14q-4 -17 -56 -33q-91 -28 -252 -49q-14 -90 -35 -194q93 17 137 12q20 -2 21.5 -12t-17.5 -18q51 1 86 -12q36 -14 -22 -33q-71 -24 -227 -36 q-20 -93 -45 -183q145 29 288 44t152 -1v-7q1 -3 -36 -15q-6 -2 -17 -6l-17 -7q2 1 7 2q22 5 36.5 1.5t21 -9.5t6.5 -11q0 -42 -241 -76q-9 -7 -23 -17.5t-21.5 -16t-9.5 -7.5z" />
<glyph unicode="&#x11a;" horiz-adv-x="478" d="M205 888q12 3 30 -12q-8 23 4 24t26 -12q37 -34 77 -98q36 51 79 89q17 18 30.5 17.5t3.5 -30.5q29 24 23 -9q-5 -27 -21 -59q-17 -28 -42 -62q35 5 63.5 7.5t51 3t35 -2t11.5 -8.5l-1 -7q0 -9 -52 -25q23 -1 35 -6t11 -15q-2 -31 -108.5 -56t-223.5 -32q0 -78 -20 -200 q6 1 25 4.5t28 5t27 3.5t29.5 2t26 -1t26.5 -4q19 -5 -11.5 -22.5t-54.5 -27.5q19 0 25.5 -3.5t1 -9.5t-21.5 -13q-53 -23 -123 -38q-30 -122 -64 -179q185 44 283 53q56 6 64 -8t-52 -36q60 0 65 -12q2 -6 -19 -14l-2 -1q-39 -14 -119 -36q-4 -1 -30.5 -8.5t-32.5 -9 t-30.5 -8t-33 -8t-30.5 -7t-33.5 -7t-31 -5t-33.5 -4.5t-31 -2.5t-33 -1.5q-9 -21 -18.5 -30t-15.5 -1t-5 34q-15 6 -14 16t13 19q-40 0 -40 9l1 7q-2 7 48 24q13 85 48 237q-25 8 -17 21t28 22q33 136 65 242q-29 6 -27 15q1 3 9.5 6.5t17.5 5.5l9 3q1 1 1 4q-45 -1 -41 13 q5 16 54 34q2 1 3 1q1 3 5.5 14.5t11 27t12.5 26t8 8.5q4 -3 5 -13t0 -19t-3 -20.5t-2 -12.5q45 12 98 23q-23 28 -45.5 69t-33 72.5t-2.5 33.5z" />
<glyph unicode="&#x11b;" d="M167 861q12 3 30 -12q-8 23 4 24t26 -12q37 -34 77 -98q36 51 79 89q17 18 30.5 17.5t3.5 -30.5q29 24 23 -9q-5 -27 -21 -59q-21 -36 -48 -69q-4 -5 -11 -14.5t-8 -10.5q61 3 115 -1q44 -4 43 -14t-43 -22q60 3 55 -14q-4 -17 -56 -33q-91 -28 -252 -49 q-14 -90 -35 -194q93 17 137 12q20 -2 21.5 -12t-17.5 -18q51 1 86 -12q36 -14 -22 -33q-71 -24 -227 -36q-20 -93 -45 -183q145 29 288 44t152 -1v-7q1 -3 -36 -15q-6 -2 -17 -6l-17 -7q2 1 7 2q22 5 36.5 1.5t21 -9.5t6.5 -11q0 -34 -161 -63.5t-313 -34.5 q-20 -52 -36 -52q-14 0 -10 51q-84 0 -83 16q0 4 14 8.5t30.5 8.5t17.5 4q-21 -4 -59 1q-27 4 -19 14q9 9 25 16.5t26.5 10.5t34 8t26.5 6q0 4 2 14q-38 -37 -40 40q-2 66 12 140q-43 0 -41 10q1 5 5 9t11.5 7.5t11.5 5.5t13 5l9 2l3 13q-20 5 4 16q20 84 62 220 q-56 -2 -56 10v7q-2 9 50 24q-51 2 -46 20q6 20 64 43q13 6 23 8l10 28q11 -3 19 -21q14 3 42 7q0 1 4 11.5t10 20t9 6.5t3 -34l34 4q-25 24 -52 69.5t-40.5 83t-4.5 39.5z" />
<glyph unicode="&#x11c;" horiz-adv-x="509" d="M544 729q6 0 6 -14.5t-4.5 -38t-11 -48.5t-14.5 -51t-12.5 -40.5t-6.5 -21.5q-30 -82 -53 -119q-25 -41 -33 -9q-4 18 1 44q-42 -69 -41 11q0 15 3 46q1 17 1 22q2 124 -74 138q-48 10 -88 -28t-63.5 -101.5t-36.5 -118t-17 -95.5q-2 -33 -0.5 -70t13.5 -67t30 -48.5 t49 -15t71 32.5q51 36 65 74q25 65 42 91q33 51 36 -5q1 -25 -3 -51q24 57 40 54q15 -3 7 -58q-11 -71 -50 -197q-39 -121 -70 -184q-30 -60 -34 -17q-3 25 5 66q-21 -52 -40 -70q-13 -13 -14 13q-1 16 0 33t4.5 36.5t6 31.5t8 36t7.5 32q-63 -35 -135 -20.5t-111 76.5 q-84 135 -15 377q68 240 213 294q60 23 123.5 1t97.5 -77q28 58 50 70q17 9 13 -35q-1 -9 -3 -21q23 42 38 42zM139 762q-12 3 10 57t60.5 112t66.5 69q-12 26 5 24q21 -3 43 -24q13 7 17.5 0t3.5 -20q27 -33 29 -35q32 -42 54 -80q17 -29 25 -66q6 -29 -11 -21q-6 3 -15 10 q11 -35 -4 -35.5t-36 19.5q-49 45 -90 103q-48 -76 -88 -112q-17 -16 -30.5 -14.5t-4.5 27.5q-23 -18 -35 -14z" />
<glyph unicode="&#x11d;" horiz-adv-x="466" d="M360 339q-51 -71 -20 118l1 8q9 54 -5.5 78.5t-64.5 11.5q-44 -10 -78.5 -48.5t-54 -91.5t-29.5 -102t-13 -94q-1 -32 0.5 -57.5t9 -54.5t28.5 -41t53 -3q13 4 25 10t20.5 11.5t18.5 17t15 16.5t14 21.5t11 20t12 23t11 21.5q11 22 19.5 27t11.5 -6t1 -34q24 59 40 64 q13 4 10 -41q-4 -66 -34 -192q-30 -124 -62 -197q-18 -40 -38 -54q-16 -11 -18 16q-1 9 0 21q-18 -44 -35 -56q-11 -7 -13 12q-1 5 -1 13q0 18 1.5 36.5t6.5 42.5t7.5 35t11 41.5t9.5 35.5q-76 -31 -125.5 -12t-76.5 67t-35.5 114.5t-4 130.5t19.5 114q29 101 86 179.5 t143 100.5q118 27 175 -38q45 75 49 31q22 32 30.5 24t3.5 -40q-8 -51 -34 -131q-31 -94 -57 -142q-24 -43 -37 -42q-7 1 -8 15zM131 678q-12 3 10 57t60.5 112t66.5 69q-12 26 5 24q21 -3 43 -24q13 7 17.5 0t3.5 -20q27 -33 29 -35q32 -42 54 -80q17 -29 25 -66 q6 -29 -11 -21q-6 3 -15 10q11 -35 -4 -35.5t-36 19.5q-49 45 -90 103q-48 -76 -88 -112q-17 -16 -30.5 -14.5t-4.5 27.5q-23 -18 -35 -14z" />
<glyph unicode="&#x11e;" horiz-adv-x="509" d="M544 729q6 0 6 -14.5t-4.5 -38t-11 -48.5t-14.5 -51t-12.5 -40.5t-6.5 -21.5q-30 -82 -53 -119q-25 -41 -33 -9q-4 18 1 44q-42 -69 -41 11q0 15 3 46q1 17 1 22q2 124 -74 138q-48 10 -88 -28t-63.5 -101.5t-36.5 -118t-17 -95.5q-2 -33 -0.5 -70t13.5 -67t30 -48.5 t49 -15t71 32.5q51 36 65 74q25 65 42 91q33 51 36 -5q1 -25 -3 -51q24 57 40 54q15 -3 7 -58q-11 -71 -50 -197q-39 -121 -70 -184q-30 -60 -34 -17q-3 25 5 66q-21 -52 -40 -70q-13 -13 -14 13q-1 16 0 33t4.5 36.5t6 31.5t8 36t7.5 32q-63 -35 -135 -20.5t-111 76.5 q-84 135 -15 377q68 240 213 294q60 23 123.5 1t97.5 -77q28 58 50 70q17 9 13 -35q-1 -9 -3 -21q23 42 38 42zM408 779q-73 -19 -138.5 21t-76.5 101q-9 30 -2.5 67.5t27.5 61.5q13 13 19 -19q4 -15 7 -54q2 -25 3 -29q-2 13 3 42t18 26q4 -1 7.5 -15.5t6.5 -31t4 -19.5 q15 -20 43 -30t54 -7q8 1 39.5 20.5t59.5 37.5t30 17q15 -14 -14.5 -50.5t-51.5 -54.5q27 11 75 59q3 3 17 22.5t26.5 33.5t19.5 14q15 -1 -13.5 -57.5t-40.5 -69.5q-56 -68 -122 -86z" />
<glyph unicode="&#x11f;" horiz-adv-x="466" d="M382 656q-6 -2 -9 -2q22 -10 40 -30q45 75 49 31q22 32 30.5 24t3.5 -40q-8 -51 -34 -131q-31 -94 -57 -142q-24 -43 -37 -42q-7 1 -8 15q-51 -71 -20 118l1 8q9 54 -5.5 78.5t-64.5 11.5q-44 -10 -78.5 -48.5t-54 -91.5t-29.5 -102t-13 -94q-1 -32 0.5 -57.5t9 -54.5 t28.5 -41t53 -3q13 4 25 10t20.5 11.5t18.5 17t15 16.5t14 21.5t11 20t12 23t11 21.5q11 22 19.5 27t11.5 -6t1 -34q24 59 40 64q13 4 10 -41q-4 -66 -34 -192q-30 -124 -62 -197q-18 -40 -38 -54q-16 -11 -18 16q-1 9 0 21q-18 -44 -35 -56q-11 -7 -13 12q-1 5 -1 13 q0 18 1.5 36.5t6.5 42.5t7.5 35t11 41.5t9.5 35.5q-76 -31 -125.5 -12t-76.5 67t-35.5 114.5t-4 130.5t19.5 114q29 101 86 179.5t143 100.5q9 2 25 4q-38 17 -64 47.5t-32 64.5q-9 30 -2.5 67.5t27.5 61.5q13 13 19 -19q4 -15 7 -54q2 -25 3 -29q-2 13 3 42t18 26 q4 -1 7.5 -15.5t6.5 -31t4 -19.5q15 -20 43 -30t54 -7q8 1 39.5 20.5t59.5 37.5t30 17q15 -14 -14.5 -50.5t-51.5 -54.5q27 11 75 59q3 3 17 22.5t26.5 33.5t19.5 14q15 -1 -13.5 -57.5t-40.5 -69.5q-56 -68 -122 -86z" />
<glyph unicode="&#x120;" horiz-adv-x="509" d="M544 729q6 0 6 -14.5t-4.5 -38t-11 -48.5t-14.5 -51t-12.5 -40.5t-6.5 -21.5q-30 -82 -53 -119q-25 -41 -33 -9q-4 18 1 44q-42 -69 -41 11q0 15 3 46q1 17 1 22q2 124 -74 138q-48 10 -88 -28t-63.5 -101.5t-36.5 -118t-17 -95.5q-2 -33 -0.5 -70t13.5 -67t30 -48.5 t49 -15t71 32.5q51 36 65 74q25 65 42 91q33 51 36 -5q1 -25 -3 -51q24 57 40 54q15 -3 7 -58q-11 -71 -50 -197q-39 -121 -70 -184q-30 -60 -34 -17q-3 25 5 66q-21 -52 -40 -70q-13 -13 -14 13q-1 16 0 33t4.5 36.5t6 31.5t8 36t7.5 32q-63 -35 -135 -20.5t-111 76.5 q-84 135 -15 377q68 240 213 294q60 23 123.5 1t97.5 -77q28 58 50 70q17 9 13 -35q-1 -9 -3 -21q23 42 38 42zM370 948q11 21 27 27q15 4 20.5 -9.5t2.5 -37.5t-6.5 -39t-6.5 -26q-8 -25 -38 -64q-43 -55 -46 -1q-35 -55 -42 3q-4 35 2 67q9 53 31 84q14 18 32.5 19.5 t23.5 -23.5z" />
<glyph unicode="&#x121;" horiz-adv-x="466" d="M360 339q-51 -71 -20 118l1 8q9 54 -5.5 78.5t-64.5 11.5q-44 -10 -78.5 -48.5t-54 -91.5t-29.5 -102t-13 -94q-1 -32 0.5 -57.5t9 -54.5t28.5 -41t53 -3q13 4 25 10t20.5 11.5t18.5 17t15 16.5t14 21.5t11 20t12 23t11 21.5q11 22 19.5 27t11.5 -6t1 -34q24 59 40 64 q13 4 10 -41q-4 -66 -34 -192q-30 -124 -62 -197q-18 -40 -38 -54q-16 -11 -18 16q-1 9 0 21q-18 -44 -35 -56q-11 -7 -13 12q-1 5 -1 13q0 18 1.5 36.5t6.5 42.5t7.5 35t11 41.5t9.5 35.5q-76 -31 -125.5 -12t-76.5 67t-35.5 114.5t-4 130.5t19.5 114q29 101 86 179.5 t143 100.5q118 27 175 -38q45 75 49 31q22 32 30.5 24t3.5 -40q-8 -51 -34 -131q-31 -94 -57 -142q-24 -43 -37 -42q-7 1 -8 15zM380 873q11 21 27 27q15 4 20.5 -9.5t2.5 -37.5t-6.5 -39t-6.5 -26q-8 -25 -38 -64q-43 -55 -46 -1q-35 -55 -42 3q-4 35 2 67q9 53 31 84 q14 18 32.5 19.5t23.5 -23.5z" />
<glyph unicode="&#x122;" horiz-adv-x="509" d="M544 729q6 0 6 -14.5t-4.5 -38t-11 -48.5t-14.5 -51t-12.5 -40.5t-6.5 -21.5q-30 -82 -53 -119q-25 -41 -33 -9q-4 18 1 44q-42 -69 -41 11q0 15 3 46q1 17 1 22q2 124 -74 138q-48 10 -88 -28t-63.5 -101.5t-36.5 -118t-17 -95.5q-2 -33 -0.5 -70t13.5 -67t30 -48.5 t49 -15t71 32.5q51 36 65 74q25 65 42 91q33 51 36 -5q1 -25 -3 -51q24 57 40 54q15 -3 7 -58q-11 -71 -50 -197q-39 -121 -70 -184q-30 -60 -34 -17q-3 25 5 66q-21 -52 -40 -70q-13 -13 -14 13q-1 16 0 33t4.5 36.5t6 31.5t8 36t7.5 32q-63 -35 -135 -20.5t-111 76.5 q-84 135 -15 377q68 240 213 294q60 23 123.5 1t97.5 -77q28 58 50 70q17 9 13 -35q-1 -9 -3 -21q23 42 38 42zM202 -170q-18 -73 -46 -135.5t-47 -65.5t-16 44q-21 -43 -35 -39q-8 4 -9 29q-1 52 16 136q19 89 44 136q10 19 23.5 28t23.5 0t10 -37q39 81 44 10 q3 -55 -8 -106z" />
<glyph unicode="&#x123;" horiz-adv-x="466" d="M360 339q-51 -71 -20 118l1 8q9 54 -5.5 78.5t-64.5 11.5q-44 -10 -78.5 -48.5t-54 -91.5t-29.5 -102t-13 -94q-1 -32 0.5 -57.5t9 -54.5t28.5 -41t53 -3q13 4 25 10t20.5 11.5t18.5 17t15 16.5t14 21.5t11 20t12 23t11 21.5q11 22 19.5 27t11.5 -6t1 -34q24 59 40 64 q13 4 10 -41q-4 -66 -34 -192q-30 -124 -62 -197q-18 -40 -38 -54q-16 -11 -18 16q-1 9 0 21q-18 -44 -35 -56q-11 -7 -13 12q-1 5 -1 13q0 18 1.5 36.5t6.5 42.5t7.5 35t11 41.5t9.5 35.5q-76 -31 -125.5 -12t-76.5 67t-35.5 114.5t-4 130.5t19.5 114q29 101 86 179.5 t143 100.5q118 27 175 -38q45 75 49 31q22 32 30.5 24t3.5 -40q-8 -51 -34 -131q-31 -94 -57 -142q-24 -43 -37 -42q-7 1 -8 15zM269 828q18 73 46 135.5t47 65.5t16 -44q21 43 35 39q8 -2 9 -29q1 -52 -16 -136q-19 -89 -44 -136q-10 -19 -23.5 -28t-23.5 0t-10 37 q-39 -81 -44 -10q-3 55 8 106z" />
<glyph unicode="&#x124;" horiz-adv-x="478" d="M-6 320q2 7 16 13q-54 1 -48 16q6 18 62 36q6 2 11 3q35 198 68 287q23 64 36 26q9 -26 6 -70q21 73 37 86q12 9 12 -33q1 -84 -33 -271q86 14 171 20q34 182 58 256q16 49 34 58q13 6 15 -25q1 -9 1 -22q20 84 36 95q9 -3 10 -42q0 -99 -40 -318l6 -1q7 -1 13.5 -2 t11.5 -4t4 -7q-1 -9 -41 -19l-3 -19q11 -4 -2 -10q-43 -219 -76 -319q-1 -2 -4.5 -13.5t-6.5 -19.5t-8 -16.5t-11 -9.5q-8 -2 -8.5 29.5t1.5 42.5q-6 -16 -19 -43t-18 -21q-6 8 -2 57q7 115 34 280q-87 -18 -175 -27q-39 -198 -73 -288q-26 -67 -35 -22q-6 31 0 76 q-1 -2 -5.5 -20.5t-9.5 -35.5t-12.5 -32t-13.5 -15q-14 0 2.5 140.5t26.5 191.5q-15 2 -22 4.5t-6 7.5zM138 763q-12 3 10 57t60.5 112t66.5 69q-12 26 5 24q21 -3 43 -24q13 7 17.5 0t3.5 -20q28 -33 29 -35q32 -42 54 -80q17 -29 25 -66q6 -29 -11 -21q-6 3 -15 10 q11 -35 -4 -35.5t-36 19.5q-49 45 -90 103q-48 -76 -88 -112q-17 -16 -30.5 -14.5t-4.5 27.5q-23 -18 -35 -14z" />
<glyph unicode="&#x125;" horiz-adv-x="527" d="M156 698q-12 3 10 57t60.5 112t66.5 69q-12 26 5 24q21 -3 43 -24q13 7 17.5 0t3.5 -20q27 -33 29 -35q32 -42 54 -80q11 -20 20.5 -50t-1.5 -39q11 -26 8 -76q15 62 37 91q28 10 -5 -209q-8 -55 -19 -116q41 0 17 -23q-10 -9 -24 -16q-39 -212 -77 -320 q-1 -2 -3.5 -10.5t-5.5 -15.5t-6.5 -14.5t-8 -12.5t-9.5 -6t-7.5 5.5t-3.5 17t-0.5 22.5t1.5 24.5t2 19.5t1 10q-1 -2 -5.5 -20t-9.5 -35t-12.5 -32t-13.5 -15q-14 0 2.5 141t26.5 192q-97 -30 -201 -53q-45 -203 -79 -297l-3 -10l-6 -16.5t-6.5 -14t-9 -13.5t-9.5 -6 t-7.5 5.5t-2.5 17.5v21.5t1 19.5l1 10q-23 -63 -38 -60q-10 3 -7 48q4 92 34 270q-26 -5 -71 -3q-25 2 -18 9q11 10 26.5 17.5t41 15.5t29.5 10v2l-6 -1q-7 -1 -15.5 -2t-17.5 -1.5t-14.5 0t-5.5 2.5q0 5 6 9.5t15 8.5t17 7.5t16.5 6t10.5 3.5q37 192 69 280q19 52 38 58 q18 6 18 -48q18 61 32 85q0 8 4 17q-23 -18 -35 -14zM366 413q2 10 8.5 45t9 49.5t9 44.5t11.5 48.5t13 43t16 45.5q-14 5 -29 19q-49 45 -90 103q-48 -76 -88 -112q-11 -9 -19 -12q0 -3 0.5 -11.5t0.5 -13.5q0 -87 -39 -297q112 31 197 48zM446 715l4 3l-6 6q2 -8 2 -9z " />
<glyph unicode="&#x126;" horiz-adv-x="478" d="M515 589q6 -6 -14 -14l-32 -9q0 -2 -0.5 -5t-0.5 -4q35 -5 33.5 -15t-39.5 -17l-16 -90l6 -1q7 -1 13.5 -2t11.5 -4t4 -7q-1 -9 -41 -19l-3 -19q11 -4 -2 -10q-43 -219 -76 -319q-1 -2 -4.5 -13.5t-6.5 -19.5t-8 -16.5t-11 -9.5q-8 -2 -8.5 29.5t1.5 42.5q-6 -16 -19 -43 t-18 -21q-6 8 -2 57q7 115 34 280q-87 -18 -175 -27q-39 -198 -73 -288q-26 -67 -35 -22q-6 31 0 76q-1 -2 -5.5 -20.5t-9.5 -35.5t-12.5 -32t-13.5 -15q-14 0 2.5 140.5t26.5 191.5q-15 2 -22 4.5t-6 7.5q2 7 16 13q-54 1 -48 16q6 18 62 36q6 2 11 3q2 9 9 51t12 65 q-49 3 -47 13t53 19q-62 2 -69 16q-4 6 16 13l17 5q28 6 47 8q17 62 30 97q23 64 36 26q9 -26 6 -70q21 73 37 86q12 9 12 -33q0 -41 -5 -93l17 2q7 1 35 4t62 6.5t64 4.5q14 54 23 81q16 49 34 58q13 6 15 -25q1 -9 1 -22q20 84 36 95q9 -3 10 -42q0 -58 -11 -148 q30 -5 40 -16zM332 433l14 78q-58 -4 -87 -5q-56 -4 -82 -4l-16 -89q86 14 171 20z" />
<glyph unicode="&#x127;" horiz-adv-x="527" d="M472 636q15 62 37 91q24 8 1 -166q24 -3 33 -11q10 -10 -38 -28l-2 -11q35 -2 33.5 -12t-38.5 -22l-13 -75q41 0 17 -23q-10 -9 -24 -16q-39 -212 -77 -320q-1 -2 -3.5 -10.5t-5.5 -15.5t-6.5 -14.5t-8 -12.5t-9.5 -6t-7.5 5.5t-3.5 17t-0.5 22.5t1.5 24.5t2 19.5t1 10 q-1 -2 -5.5 -20t-9.5 -35t-12.5 -32t-13.5 -15q-14 0 2.5 141t26.5 192q-97 -30 -201 -53q-45 -203 -79 -297l-3 -10l-6 -16.5t-6.5 -14t-9 -13.5t-9.5 -6t-7.5 5.5t-2.5 17.5v21.5t1 19.5l1 10q-23 -63 -38 -60q-10 3 -7 48q4 92 34 270q-26 -5 -71 -3q-25 2 -18 9 q11 10 26.5 17.5t41 15.5t29.5 10v2l-6 -1q-7 -1 -15.5 -2t-17.5 -1.5t-14.5 0t-5.5 2.5q0 5 6 9.5t15 8.5t17 7.5t16.5 6t10.5 3.5q10 56 16 85q-36 0 -35.5 9t40.5 21q1 1 2 1v2q-67 -3 -66 11q1 8 34 20l42 13q15 58 36 118q19 52 38 58q18 6 18 -48q26 91 42 97 q11 4 11 -45q0 -69 -13 -149l15 3q122 28 183 37q16 77 41 138q24 58 34 7q7 -30 4 -62zM281 432q-66 -12 -103 -16l-9 -51q112 31 197 48l6 34z" />
<glyph unicode="&#x128;" horiz-adv-x="407" d="M-37 34q0 1 35 15q-38 -1 -42 11q-3 8 16 18q3 1 5 2q40 18 133 37q25 251 76 476q-2 0 -17.5 -2t-26 -2.5t-24.5 -0.5t-24.5 3t-15.5 9q-6 6 3 13t25.5 12.5t28 8.5t18.5 5q-60 7 -58 21q1 12 116 31q16 50 31 53q13 2 12 -45q115 20 168 11q18 -3 24 -12t-1 -19 t-23 -16q23 -3 23 -11l-1 -6q3 -16 -153 -41q13 -108 -77 -472q100 12 101 -4v-6q0 -7 -37 -20q26 -1 33 -14.5t-18 -27.5q-32 -17 -105 -30l-2 -9q-7 2 -11 7q-26 -5 -50 -6q-11 -30 -17 -28q-4 11 -4 26q-142 -11 -141 13zM80 774q1 24 17.5 50.5t30 40t24.5 22.5 q21 14 40 18.5t39.5 -2t32.5 -12.5t37 -23t34 -22q18 -11 35.5 -11.5t27.5 3.5t31 15.5t30 15.5q12 6 9 -7q-7 -25 -38 -63q-4 -5 -6 -7q54 36 57 33q10 -11 -23 -40.5t-45 -34.5q-45 -25 -94 -7q-16 6 -55 37t-63 33q-4 0 -20 -8.5t-30 -15t-15 -4.5q-11 15 17 39.5 t45 30.5q-36 0 -85 -51q-1 -1 -8 -10t-13.5 -16t-9.5 -7l-2 2v1z" />
<glyph unicode="&#x129;" horiz-adv-x="405" d="M30 727q3 39 28.5 76t45.5 53q21 16 40.5 21.5t40.5 -2t33 -14t38 -26.5t35 -26q18 -12 36 -12.5t28.5 4t31.5 17.5t31 18q13 7 8 -10q-8 -30 -38 -70q-5 -6 -7 -8q2 1 16.5 12t27.5 19.5t15 5.5q10 -12 -22.5 -45t-46.5 -41q-34 -20 -74 -14v-18q122 11 121 -14 q0 -15 -31 -14q-5 -1 -5 -2q59 2 32 -16q-34 -22 -118 -46l-6 -2q-28 -266 -78 -485q2 0 25.5 3t39 4t34 -2t25.5 -11q4 -7 -5 -14t-25 -12t-28 -8.5t-19 -4.5q62 -7 60 -21q-1 -5 -13.5 -10t-31.5 -9t-37 -7t-34.5 -5.5t-18.5 -3.5q-13 -36 -26 -35q-9 1 -11 29 q-104 -17 -153 -9q-19 3 -26 11.5t-0.5 18.5t23.5 17q-23 3 -23 11l1 6q-2 17 144 39q-24 88 71 480q-117 -14 -117 3v5q0 2 4 5.5t12.5 7t20.5 7.5q-26 2 -33.5 14.5t15.5 27.5q38 20 124 33l5 18q9 -1 17 -15q12 2 40 4q4 13 9 24q-2 0 -6 2q-17 7 -56.5 42.5t-64.5 37.5 q-4 0 -20 -9.5t-31 -17t-16 -5.5q-11 18 18.5 46t45.5 34q-36 1 -87 -58q0 -1 -3.5 -5.5t-7 -10t-8 -10.5t-8 -8.5t-5.5 -2.5l-2 2v1z" />
<glyph unicode="&#x12a;" horiz-adv-x="407" d="M503 851q5 -9 -14 -19t-56 -18q36 -2 50.5 -10.5t4 -19t-41.5 -18.5q-63 -14 -175 -22l-25 -2q8 -6 8 -43q115 20 168 11q18 -3 24 -12t-1 -19t-23 -16q23 -3 23 -11l-1 -6q3 -16 -153 -41q13 -108 -77 -472q100 12 101 -4v-6q0 -7 -37 -20q26 -1 33 -14.5t-18 -27.5 q-32 -17 -105 -30l-2 -9q-7 2 -11 7q-26 -5 -50 -6q-11 -30 -17 -28q-4 11 -4 26q-142 -11 -141 13q0 1 35 15q-38 -1 -42 11q-3 8 16 18q3 1 5 2q40 18 133 37q25 251 76 476q-2 0 -17.5 -2t-26 -2.5t-24.5 -0.5t-24.5 3t-15.5 9q-6 6 3 13t25.5 12.5t28 8.5t18.5 5 q-60 7 -58 21q1 12 116 31q13 42 27 51q-82 -5 -144 0q-28 2 -41.5 8t-4.5 15t44 18q-55 4 -62 20q-4 9 17 18q6 3 13 5q51 16 163 30q4 1 27 4.5t43 6t49 6t53 4t47.5 -1t39 -7.5t21.5 -17z" />
<glyph unicode="&#x12b;" horiz-adv-x="405" d="M508 796q5 -9 -14 -19t-56 -18q36 -2 50.5 -10.5t4 -19t-41.5 -18.5q-56 -13 -154 -21v-23q122 11 121 -14q0 -15 -31 -14q-5 -1 -5 -2q59 2 32 -16q-34 -22 -118 -46l-6 -2q-28 -266 -78 -485q2 0 25.5 3t39 4t34 -2t25.5 -11q4 -7 -5 -14t-25 -12t-28 -8.5t-19 -4.5 q62 -7 60 -21q-1 -5 -13.5 -10t-31.5 -9t-37 -7t-34.5 -5.5t-18.5 -3.5q-13 -36 -26 -35q-9 1 -11 29q-104 -17 -153 -9q-19 3 -26 11.5t-0.5 18.5t23.5 17q-23 3 -23 11l1 6q-2 17 144 39q-24 88 71 480q-117 -14 -117 3v5q0 2 4 5.5t12.5 7t20.5 7.5q-26 2 -33.5 14.5 t15.5 27.5q38 20 124 33l5 18q9 -1 17 -15q12 2 40 4q4 13 9 24h-5q-111 -8 -177 -2q-28 2 -41.5 8t-4.5 15t44 18q-55 4 -62 20q-4 9 17 18q6 3 13 5q51 16 163 30q4 1 27 4.5t43 6t49 6t53 4t47.5 -1t39 -7.5t21.5 -17z" />
<glyph unicode="&#x12e;" horiz-adv-x="407" d="M148 -25q-57 -50 -57 -96q-3 -15 6 -34q4 -5 23.5 -18t32.5 -23.5t6 -14.5q-28 -11 -54 -2t-47 29q26 -44 89 -55q10 -1 46.5 7t42.5 4q12 -8 -26 -26q-40 -20 -60 -23q-77 -5 -131 52q-33 33 -41.5 77.5t5 86.5t42.5 78q-62 0 -62 17q0 1 35 15q-38 -1 -42 11 q-3 8 16 18q3 1 5 2q40 18 133 37q25 251 76 476q-2 0 -17.5 -2t-26 -2.5t-24.5 -0.5t-24.5 3t-15.5 9q-6 6 3 13t25.5 12.5t28 8.5t18.5 5q-60 7 -58 21q1 12 116 31q16 50 31 53q13 2 12 -45q115 20 168 11q18 -3 24 -12t-1 -19t-23 -16q23 -3 23 -11l-1 -6 q3 -16 -153 -41q13 -108 -77 -472q100 12 101 -4v-6q0 -7 -37 -20q26 -1 33 -14.5t-18 -27.5q-24 -14 -60 -22q-14 -11 -34 -26t-34.5 -25.5t-16.5 -12.5z" />
<glyph unicode="&#x12f;" horiz-adv-x="405" d="M136 -74q-57 -50 -57 -96q-3 -15 6 -34q4 -5 23.5 -18t32.5 -23.5t6 -14.5q-28 -11 -54 -2t-47 29q26 -44 89 -55q10 -1 46.5 7t42.5 4q12 -8 -26 -26q-40 -20 -60 -23q-77 -5 -131 52q-34 33 -42 78t6 87.5t44 78.5q-7 0 -21 2q-19 3 -26 11.5t-0.5 18.5t23.5 17 q-23 3 -23 11l1 6q-2 17 144 39q-24 88 71 480q-117 -14 -117 3v5q0 2 4 5.5t12.5 7t20.5 7.5q-26 2 -33.5 14.5t15.5 27.5q38 20 124 33l5 18q9 -1 17 -15q12 2 40 4l2.5 7.5t5 13.5t7.5 14t6 3q4 -4 4 -36q122 11 121 -14q0 -15 -31 -14q-5 -1 -5 -2q59 2 32 -16 q-34 -22 -118 -46l-6 -2q-28 -266 -78 -485q2 0 25.5 3t39 4t34 -2t25.5 -11q4 -7 -5 -14t-25 -12t-28 -8.5t-19 -4.5q62 -7 60 -21t-94 -28q-14 -11 -35.5 -27t-36.5 -27.5t-17 -13.5z" />
<glyph unicode="&#x130;" horiz-adv-x="407" d="M-37 34q0 1 35 15q-38 -1 -42 11q-3 8 16 18q3 1 5 2q40 18 133 37q25 251 76 476q-2 0 -17.5 -2t-26 -2.5t-24.5 -0.5t-24.5 3t-15.5 9q-6 6 3 13t25.5 12.5t28 8.5t18.5 5q-60 7 -58 21q1 12 116 31q16 50 31 53q13 2 12 -45q115 20 168 11q18 -3 24 -12t-1 -19 t-23 -16q23 -3 23 -11l-1 -6q3 -16 -153 -41q13 -108 -77 -472q100 12 101 -4v-6q0 -7 -37 -20q26 -1 33 -14.5t-18 -27.5q-32 -17 -105 -30l-2 -9q-7 2 -11 7q-26 -5 -50 -6q-11 -30 -17 -28q-4 11 -4 26q-142 -11 -141 13zM321 935q11 21 27 27q15 4 20.5 -9.5t2.5 -37.5 t-6.5 -39t-6.5 -26q-8 -25 -38 -64q-43 -55 -46 -1q-35 -55 -42 3q-4 35 2 67q9 53 31 84q14 18 32.5 19.5t23.5 -23.5z" />
<glyph unicode="&#x131;" horiz-adv-x="405" d="M418 653q0 -15 -31 -14q-5 -1 -5 -2q59 2 32 -16q-34 -22 -118 -46l-6 -2q-28 -266 -78 -485q2 0 25.5 3t39 4t34 -2t25.5 -11q4 -7 -5 -14t-25 -12t-28 -8.5t-19 -4.5q62 -7 60 -21q-1 -5 -13.5 -10t-31.5 -9t-37 -7t-34.5 -5.5t-18.5 -3.5q-13 -36 -26 -35q-9 1 -11 29 q-104 -17 -153 -9q-19 3 -26 11.5t-0.5 18.5t23.5 17q-23 3 -23 11l1 6q-2 17 144 39q-24 88 71 480q-117 -14 -117 3v5q0 2 4 5.5t12.5 7t20.5 7.5q-26 2 -33.5 14.5t15.5 27.5q38 20 124 33l5 18q9 -1 17 -15q12 2 40 4l2.5 7.5t5 13.5t7.5 14t6 3q4 -4 4 -36 q122 11 121 -14z" />
<glyph unicode="&#x134;" horiz-adv-x="436" d="M16 -3q-34 32 -44.5 81.5t-2 96t28.5 90.5q7 20 32 50q25 32 28 7q2 -16 0 -35t-7 -41.5t-6 -34.5q2 6 6 17.5t10 26t13.5 23.5t13.5 7q5 -9 3 -40t-5.5 -74.5t-2.5 -50.5q7 -33 37.5 -40t55.5 15q26 21 47.5 55.5t34 65.5t23.5 84t15 79.5t11.5 84t8.5 67.5 q-153 -20 -232 -12q-52 6 16 36l45 17q-45 1 -35 13q9 12 53 25q89 26 171 34q7 47 19 44q8 -2 14 -42q14 0 20 -1q1 3 2.5 21.5t4 34t7.5 30t12 16.5q4 1 7 -5.5t5 -17.5t4 -24.5t3 -28.5t1.5 -26.5t1 -21.5t0.5 -12q38 -1 50 -11t-2.5 -23.5t-47.5 -22.5q-6 -269 -84 -436 q-30 -64 -85 -111t-121.5 -57.5t-128.5 47.5zM193 722q-12 3 10 57t60.5 112t66.5 69q-12 26 5 24q21 -3 43 -24q13 7 17.5 0t3.5 -20q28 -33 29 -35q32 -42 54 -80q17 -29 25 -66q6 -29 -11 -21q-6 3 -15 10q11 -35 -4 -35.5t-36 19.5q-49 45 -90 103q-48 -76 -88 -112 q-17 -16 -30.5 -14.5t-4.5 27.5q-23 -18 -35 -14z" />
<glyph unicode="&#x135;" horiz-adv-x="428" d="M418 646h8h14.5h18.5t20 -1t17.5 -2t13 -3.5t3.5 -5.5q-4 -23 -86 -43q45 -1 35 -14q-9 -10 -46 -22q-18 -249 -70 -415q-14 -44 -29 -78t-40 -73t-60.5 -60t-78.5 -19q-52 1 -88.5 31t-52.5 73t-15 94q0 88 34 155q26 49 27 -27q1 -19 -1 -49q5 22 21 54.5t30 26.5 q10 -4 4.5 -28.5t-9.5 -62.5t-6.5 -73.5t13 -60t48.5 -22.5q11 2 21 9.5t18 16.5t16 24.5t13 26.5t11.5 30.5t9 27.5t7.5 27t6 21q27 95 65 326q-89 -17 -130 -11q-13 2 -18 7.5t-1 12.5t16 13q-46 -2 -83 11q-38 13 6 34q1 0 3 1q69 29 230 42q4 11 10 19t12.5 12.5 t13 -0.5t11.5 -20q4 15 7 25.5t6.5 15.5t6.5 5l8 -1q7 0 10 -50zM209 687q-12 3 10 57t60.5 112t66.5 69q-12 26 5 24q21 -3 43 -24q13 7 17.5 0t3.5 -20q28 -33 29 -35q32 -42 54 -80q17 -29 25 -66q6 -29 -11 -21q-6 3 -15 10q11 -35 -4 -35.5t-36 19.5q-49 45 -90 103 q-48 -76 -88 -112q-17 -16 -30.5 -14.5t-4.5 27.5q-23 -18 -35 -14z" />
<glyph unicode="&#x136;" horiz-adv-x="462" d="M219 345q46 -47 167.5 -156.5t164.5 -158.5q-17 -22 -97 23q11 -11 48 -55t32 -45q-22 -8 -84 33.5t-120 93.5t-119.5 109.5t-67.5 62.5q-1 -3 -5 -25.5t-9 -47.5t-12 -58t-15 -62.5t-16 -55t-16.5 -40.5t-16.5 -15q-4 0 -5.5 15.5t0.5 43.5t4 52t6.5 57.5t5.5 42.5t3 24 q-1 -2 -4 -16.5t-7 -30.5t-9.5 -36.5t-11.5 -38.5t-12.5 -33.5t-13.5 -24t-14 -7.5q-14 2 -8 56q4 102 44 293q39 198 76 320q16 58 28 72q7 7 9 -35q3 -52 0 -98q9 42 32 86q22 43 29 6q4 -20 4.5 -41.5t-2 -47t-5.5 -42.5t-8 -47t-7 -41q14 13 68 66t79 76t69 60t83 63 q65 39 55 11q-5 -14 -17 -30.5t-21.5 -26.5t-28.5 -28t-24 -23q38 7 17 -34q-20 -39 -92 -116q-96 -100 -156 -150zM252 -112q-18 -73 -46 -135.5t-47 -65.5t-16 44q-21 -43 -35 -39q-8 2 -9 29q-1 52 16 136q19 89 44 136q10 19 23.5 28t23.5 0t10 -37q39 81 44 10 q3 -55 -8 -106z" />
<glyph unicode="&#x137;" horiz-adv-x="421" d="M207 293q9 -10 31 -32.5t40.5 -40.5t19.5 -19q7 -8 36 -37.5t42 -43t33.5 -37.5t34.5 -45q27 -40 -2 -30q-28 9 -70 41q59 -78 45 -88q-7 -5 -36 15.5t-69 57t-76 71.5t-70 69t-39 38q-36 -168 -65 -240q-21 -49 -30 -22q-7 18 -4 52q-23 -74 -37 -89q-5 -5 -6 3 q-3 22 1 78q9 112 37 287q33 198 63 304q15 56 30 81q19 27 25 -23q3 -34 1 -53q28 90 41 86q6 -2 7 -25q0 -36 1 -47.5t-3.5 -47.5t-6.5 -48t-7.5 -47.5t-7.5 -46.5q148 152 265 252q56 38 79 36q16 -2 2 -32q40 29 46 21l5 -6q11 -8 -139.5 -167.5t-216.5 -224.5z M208 -145q-18 -73 -46 -135.5t-47 -65.5t-16 44q-21 -43 -35 -39q-8 2 -9 29q-1 52 16 136q19 89 44 136q10 19 23.5 28t23.5 0t10 -37q39 81 44 10q3 -55 -8 -106z" />
<glyph unicode="&#x138;" horiz-adv-x="421" d="M207 293q9 -10 31 -32.5t40.5 -40.5t19.5 -19q7 -8 36 -37.5t42 -43t33.5 -37.5t34.5 -45q27 -40 -2 -30q-28 9 -70 41q59 -78 45 -88q-7 -5 -36 15.5t-69 57t-76 71.5t-70 69t-39 38q-36 -168 -65 -240q-21 -49 -30 -22q-7 18 -4 52q-23 -74 -37 -89q-5 -5 -6 3 q-3 22 1 78q9 112 37 287q33 198 63 304q15 56 30 81q19 27 25 -23q3 -34 1 -53q28 90 41 86q6 -2 7 -25q0 -36 1 -47.5t-3.5 -47.5t-6.5 -48t-7.5 -47.5t-7.5 -46.5q148 152 265 252q56 38 79 36q16 -2 2 -32q40 29 46 21l5 -6q11 -8 -139.5 -167.5t-216.5 -224.5z" />
<glyph unicode="&#x139;" horiz-adv-x="342" d="M420 135q1 -4 -20 -10.5t-59 -16.5q51 3 39 -11q-12 -12 -55 -25q-85 -28 -214 -53q0 -1 -2.5 -14.5t-5.5 -25.5t-7 -26.5t-9.5 -23t-11.5 -9.5q-12 -1 -12 90l-19 -3l-1 -4q-1 -4 -2.5 -8t-3.5 -9.5t-4 -9.5t-4.5 -7t-4.5 -3q-9 0 -9 37q-58 -7 -76 6q-13 9 24 24 q7 3 16 6q-16 -4 -52 -1q-20 2 -15 8q1 1 4 3q23 14 101 33q12 217 57 479q21 123 39 172q20 56 24 -16q1 -27 0 -50q31 123 46 89q2 -3 3 -7q5 -17 6.5 -39t1.5 -35t-2 -42.5t-2 -35.5q-13 -231 -61 -490q71 14 135 23t109 11.5t47 -6.5zM259 671q-4 6 7 16.5t36 25.5 q-67 -15 -65 5q1 14 37 36q64 39 172 83q108 45 177 59q52 11 48 -9t-51 -47q54 12 63 -3q6 -12 -29 -34q-50 -32 -143 -66q-2 -1 -15 -6.5t-25.5 -10.5t-32 -13t-36.5 -14t-37 -12.5t-36.5 -10.5t-31 -6t-24.5 -0.5t-14 7.5z" />
<glyph unicode="&#x13a;" horiz-adv-x="340" d="M364 110q74 8 5 -33q-2 -2 -6 -4l-7 -4h1q26 7 64 6q18 -1 14 -7q-6 -6 -15.5 -11t-17 -8t-20.5 -7t-17 -6q-111 -41 -276 -78q0 -1 -2.5 -11.5t-5 -20t-7 -18t-8.5 -8.5q-10 0 -10 51q-6 -2 -10 -2q0 -1 -2.5 -14t-5.5 -24t-7 -24t-9 -21t-10 -9q-13 -1 -13 83 q-1 0 -11.5 -1.5t-20.5 -2.5t-19.5 0t-10.5 6q-2 5 24.5 15t38.5 13v6q-91 -11 -104 -4q-1 1 0 2q8 9 22.5 16.5t27 11.5t31.5 9.5t25 7.5q13 241 55 497q1 5 5 32t6 37t6.5 31t9.5 36.5t11 30.5q18 43 28 -26l5 -71q1 7 4.5 25t5.5 28.5t5.5 25.5t8 27.5t10.5 23.5 q6 9 10 6.5t6 -11.5q6 -41 -5 -157q-19 -251 -65 -503q173 49 256 59zM87 748q-4 6 7 16.5t36 25.5q-67 -15 -65 5q1 14 37 36q64 39 172 83q108 45 177 59q52 11 48 -9q-6 -21 -51 -47q54 12 63 -3q6 -12 -29 -34q-50 -32 -143 -66q-2 -1 -15 -6.5t-25.5 -10.5t-32 -13 t-36.5 -14t-37 -12.5t-36.5 -10.5t-31 -6t-24.5 -0.5t-14 7.5z" />
<glyph unicode="&#x13b;" horiz-adv-x="342" d="M420 135q1 -4 -20 -10.5t-59 -16.5q51 3 39 -11q-12 -12 -55 -25q-85 -28 -214 -53q0 -1 -2.5 -14.5t-5.5 -25.5t-7 -26.5t-9.5 -23t-11.5 -9.5q-12 -1 -12 90l-19 -3l-1 -4q-1 -4 -2.5 -8t-3.5 -9.5t-4 -9.5t-4.5 -7t-4.5 -3q-9 0 -9 37q-58 -7 -76 6q-13 9 24 24 q7 3 16 6q-16 -4 -52 -1q-20 2 -15 8q1 1 4 3q23 14 101 33q12 217 57 479q21 123 39 172q20 56 24 -16q1 -27 0 -50q31 123 46 89q2 -3 3 -7q5 -17 6.5 -39t1.5 -35t-2 -42.5t-2 -35.5q-13 -231 -61 -490q71 14 135 23t109 11.5t47 -6.5zM208 -145q-18 -73 -46 -135.5 t-47 -65.5t-16 44q-21 -43 -35 -39q-8 2 -9 29q-1 52 16 136q19 89 44 136q10 19 23.5 28t23.5 0t10 -37q39 81 44 10q3 -55 -8 -106z" />
<glyph unicode="&#x13c;" horiz-adv-x="340" d="M364 110q74 8 5 -33q-2 -2 -6 -4l-7 -4h1q26 7 64 6q18 -1 14 -7q-6 -6 -15.5 -11t-17 -8t-20.5 -7t-17 -6q-111 -41 -276 -78q0 -1 -2.5 -11.5t-5 -20t-7 -18t-8.5 -8.5q-10 0 -10 51q-6 -2 -10 -2q0 -1 -2.5 -14t-5.5 -24t-7 -24t-9 -21t-10 -9q-13 -1 -13 83 q-1 0 -11.5 -1.5t-20.5 -2.5t-19.5 0t-10.5 6q-2 5 24.5 15t38.5 13v6q-91 -11 -104 -4q-1 1 0 2q8 9 22.5 16.5t27 11.5t31.5 9.5t25 7.5q13 241 55 497q1 5 5 32t6 37t6.5 31t9.5 36.5t11 30.5q18 43 28 -26l5 -71q1 7 4.5 25t5.5 28.5t5.5 25.5t8 27.5t10.5 23.5 q6 9 10 6.5t6 -11.5q6 -41 -5 -157q-19 -251 -65 -503q173 49 256 59zM222 -175q-18 -73 -46 -135.5t-47 -65.5t-16 44q-21 -43 -35 -39q-8 2 -9 29q-1 52 16 136q19 89 44 136q10 19 23.5 28t23.5 0t10 -37q39 81 44 10q3 -55 -8 -106z" />
<glyph unicode="&#x13d;" horiz-adv-x="342" d="M420 135q1 -4 -20 -10.5t-59 -16.5q51 3 39 -11q-12 -12 -55 -25q-85 -28 -214 -53q0 -1 -2.5 -14.5t-5.5 -25.5t-7 -26.5t-9.5 -23t-11.5 -9.5q-12 -1 -12 90l-19 -3l-1 -4q-1 -4 -2.5 -8t-3.5 -9.5t-4 -9.5t-4.5 -7t-4.5 -3q-9 0 -9 37q-58 -7 -76 6q-13 9 24 24 q7 3 16 6q-16 -4 -52 -1q-20 2 -15 8q1 1 4 3q23 14 101 33q12 217 57 479q21 123 39 172q20 56 24 -16q1 -27 0 -50q31 123 46 89q2 -3 3 -7q5 -17 6.5 -39t1.5 -35t-2 -42.5t-2 -35.5q-13 -231 -61 -490q71 14 135 23t109 11.5t47 -6.5zM369 615q-18 -73 -46 -135.5 t-47 -65.5t-16 44q-21 -43 -35 -39q-8 2 -9 29q-1 52 16 136q19 89 44 136q10 19 23.5 28t23.5 0t10 -37q39 81 44 10q3 -55 -8 -106z" />
<glyph unicode="&#x13e;" horiz-adv-x="419" d="M364 110q74 8 5 -33q-2 -2 -6 -4l-7 -4h1q26 7 64 6q18 -1 14 -7q-6 -6 -15.5 -11t-17 -8t-20.5 -7t-17 -6q-111 -41 -276 -78q0 -1 -2.5 -11.5t-5 -20t-7 -18t-8.5 -8.5q-10 0 -10 51q-6 -2 -10 -2q0 -1 -2.5 -14t-5.5 -24t-7 -24t-9 -21t-10 -9q-13 -1 -13 83 q-1 0 -11.5 -1.5t-20.5 -2.5t-19.5 0t-10.5 6q-2 5 24.5 15t38.5 13v6q-91 -11 -104 -4q-1 1 0 2q8 9 22.5 16.5t27 11.5t31.5 9.5t25 7.5q13 241 55 497q1 5 5 32t6 37t6.5 31t9.5 36.5t11 30.5q18 43 28 -26l5 -71q1 7 4.5 25t5.5 28.5t5.5 25.5t8 27.5t10.5 23.5 q6 9 10 6.5t6 -11.5q6 -41 -5 -157q-19 -251 -65 -503q173 49 256 59zM380 590q-18 -73 -46 -135.5t-47 -65.5t-16 44q-21 -43 -35 -39q-8 2 -9 29q-1 52 16 136q19 89 44 136q10 19 23.5 28t23.5 0t10 -37q39 81 44 10q3 -55 -8 -106z" />
<glyph unicode="&#x141;" horiz-adv-x="342" d="M420 135q1 -4 -20 -10.5t-59 -16.5q51 3 39 -11q-12 -12 -55 -25q-85 -28 -214 -53q0 -1 -2.5 -14.5t-5.5 -25.5t-7 -26.5t-9.5 -23t-11.5 -9.5q-12 -1 -12 90l-19 -3l-1 -4q-1 -4 -2.5 -8t-3.5 -9.5t-4 -9.5t-4.5 -7t-4.5 -3q-9 0 -9 37q-58 -7 -76 6q-13 9 24 24 q7 3 16 6q-16 -4 -52 -1q-20 2 -15 8q1 1 4 3q23 14 101 33q4 81 14 178q-26 -6 -39 -7q-36 -4 -29 15q8 20 40 43q-41 -10 -51 5q-8 11 20 31q32 22 75 42q12 85 27 172q21 123 39 172q20 56 24 -16q1 -27 0 -50q31 123 46 89q2 -3 3 -7q5 -17 6.5 -39t1.5 -35t-2 -42.5 t-2 -35.5q-5 -80 -12 -157q29 10 68 19q37 8 41.5 -3.5t-29.5 -35.5q45 10 58 -2q6 -6 -7.5 -19t-41 -29t-52.5 -29.5t-53 -27.5q-10 -73 -33 -206q71 14 135 23t109 11.5t47 -6.5z" />
<glyph unicode="&#x142;" horiz-adv-x="340" d="M364 110q74 8 5 -33q-2 -2 -6 -4l-7 -4h1q26 7 64 6q18 -1 14 -7q-6 -6 -15.5 -11t-17 -8t-20.5 -7t-17 -6q-111 -41 -276 -78q0 -1 -2.5 -11.5t-5 -20t-7 -18t-8.5 -8.5q-10 0 -10 51q-6 -2 -10 -2q0 -1 -2.5 -14t-5.5 -24t-7 -24t-9 -21t-10 -9q-13 -1 -13 83 q-1 0 -11.5 -1.5t-20.5 -2.5t-19.5 0t-10.5 6q-2 5 24.5 15t38.5 13v6q-91 -11 -104 -4q-1 1 0 2q8 9 22.5 16.5t27 11.5t31.5 9.5t25 7.5q5 99 19 239q-21 -4 -29 -5q-36 -4 -29 15q8 20 40 43q-41 -10 -51 5q-8 11 20 31q31 22 65 38q6 43 20 131q1 5 5 32t6 37t6.5 31 t9.5 36.5t11 30.5q18 43 28 -26l5 -71q1 7 4.5 25t5.5 28.5t5.5 25.5t8 27.5t10.5 23.5q6 9 10 6.5t6 -11.5q6 -41 -5 -157q-3 -36 -11 -119q42 15 84 24q37 8 41.5 -3.5t-29.5 -35.5q45 10 58 -2q7 -6 -9.5 -20.5t-48.5 -33t-58 -32.5t-53 -27q-17 -129 -39 -254 q173 49 256 59z" />
<glyph unicode="&#x143;" horiz-adv-x="467" d="M28 -89q-20 0 -7 111l-1 -4q-1 -4 -2.5 -8.5t-3 -10.5t-3.5 -11.5t-4.5 -11.5t-4.5 -11t-4.5 -9t-5.5 -5.5t-5 -1.5q-6 1 -8 19.5t1 49.5t8.5 68t13 80t14.5 80t15 73.5t11.5 55.5t6.5 30q3 12 10 45t11 50.5t11.5 44.5t16 49t19.5 41q15 27 15 -35q0 -60 -5 -87l15 50 q-1 7 -4.5 34.5t-4.5 41.5t-0.5 35t4.5 37q6 21 23 -25q8 -22 11 -35l7 17q0 2 -1.5 20.5t-2 35t1.5 32.5t8 18q14 5 52.5 -202t54.5 -311q38 232 85 396q3 9 7 20t12.5 33t15 32.5t9.5 4.5q6 -12 6.5 -31t-1 -32.5t-5.5 -38t-5 -29.5q35 126 53 162q17 24 19 -20 q-1 -32 -3 -63t-8.5 -74.5t-9 -59.5t-12.5 -74t-11 -62q-38 -206 -74 -338q-2 -8 -9 -33.5t-11 -38t-12.5 -31.5t-18.5 -32q-1 -1 -4.5 -10t-8 -14t-8.5 -2q-14 9 -26 58q-3 -6 -7 -2q0 -36 -7 -38q-5 -1 -11.5 12t-13 37.5t-13 53.5t-13 66t-12.5 69.5t-11.5 69t-8.5 59.5 t-6.5 46t-3.5 24q-24 -145 -60 -283q-1 -3 -7 -30t-12 -49t-15 -49t-20 -42.5t-22 -16.5zM256 759q-4 6 7 16.5t36 25.5q-67 -15 -65 5q1 14 37 36q64 39 172 83q108 45 177 59q52 11 48 -9t-51 -47q54 12 63 -3q6 -12 -29 -34q-50 -32 -143 -66q-2 -1 -15 -6.5t-25.5 -10.5 t-32 -13t-36.5 -14t-37 -12.5t-36.5 -10.5t-31 -6t-24.5 -0.5t-14 7.5z" />
<glyph unicode="&#x144;" horiz-adv-x="493" d="M455 646q21 75 33 74q32 -6 -55 -442q-30 -146 -55 -235q-1 -3 -5 -21.5t-8 -35t-9.5 -32t-8.5 -17.5q-3 -1 -6 -0.5t-7 5.5t-7 9t-6.5 10t-5.5 10t-4 9l-2 5l-9 -33l-3 -3q0 -1 -3 -8t-5.5 -14t-7 -13t-7.5 -6q-5 0 -6.5 12t-1 28.5t1.5 28.5t2 16q-48 101 -128 352 q-30 -201 -69 -316q-34 -95 -25 95q-1 -3 -5.5 -25t-10 -45.5t-12.5 -48.5t-15.5 -41t-16.5 -16q-15 -1 0 154q31 288 90 475q-13 67 -3 68q14 -5 20 -23q7 17 14 23q0 1 -1.5 8.5t-3 14.5t-2 15.5t0 14.5t3.5 8q13 8 93.5 -212.5t99.5 -287.5q42 247 86 406q2 7 8.5 34 t11 43.5t14.5 36.5t23 29q17 12 16 -52zM148 688q-4 6 7 16.5t36 25.5q-67 -15 -65 5q1 14 37 36q64 39 172 83q108 45 177 59q52 11 48 -9t-51 -47q54 12 63 -3q6 -12 -29 -34q-50 -32 -143 -66q-2 -1 -15 -6.5t-25.5 -10.5t-32 -13t-36.5 -14t-37 -12.5t-36.5 -10.5 t-31 -6t-24.5 -0.5t-14 7.5z" />
<glyph unicode="&#x145;" horiz-adv-x="467" d="M28 -89q-20 0 -7 111l-1 -4q-1 -4 -2.5 -8.5t-3 -10.5t-3.5 -11.5t-4.5 -11.5t-4.5 -11t-4.5 -9t-5.5 -5.5t-5 -1.5q-6 1 -8 19.5t1 49.5t8.5 68t13 80t14.5 80t15 73.5t11.5 55.5t6.5 30q3 12 10 45t11 50.5t11.5 44.5t16 49t19.5 41q15 27 15 -35q0 -60 -5 -87l15 50 q-1 7 -4.5 34.5t-4.5 41.5t-0.5 35t4.5 37q6 21 23 -25q8 -22 11 -35l7 17q0 2 -1.5 20.5t-2 35t1.5 32.5t8 18q14 5 52.5 -202t54.5 -311q38 232 85 396q3 9 7 20t12.5 33t15 32.5t9.5 4.5q6 -12 6.5 -31t-1 -32.5t-5.5 -38t-5 -29.5q35 126 53 162q17 24 19 -20 q-1 -32 -3 -63t-8.5 -74.5t-9 -59.5t-12.5 -74t-11 -62q-38 -206 -74 -338q-2 -8 -9 -33.5t-11 -38t-12.5 -31.5t-18.5 -32q-1 -1 -4.5 -10t-8 -14t-8.5 -2q-14 9 -26 58q-3 -6 -7 -2q0 -36 -7 -38q-5 -1 -11.5 12t-13 37.5t-13 53.5t-13 66t-12.5 69.5t-11.5 69t-8.5 59.5 t-6.5 46t-3.5 24q-24 -145 -60 -283q-1 -3 -7 -30t-12 -49t-15 -49t-20 -42.5t-22 -16.5zM208 -145q-18 -73 -46 -135.5t-47 -65.5t-16 44q-21 -43 -35 -39q-8 2 -9 29q-1 52 16 136q19 89 44 136q10 19 23.5 28t23.5 0t10 -37q39 81 44 10q3 -55 -8 -106z" />
<glyph unicode="&#x146;" horiz-adv-x="493" d="M455 646q21 75 33 74q32 -6 -55 -442q-30 -146 -55 -235q-1 -3 -5 -21.5t-8 -35t-9.5 -32t-8.5 -17.5q-3 -1 -6 -0.5t-7 5.5t-7 9t-6.5 10t-5.5 10t-4 9l-2 5l-9 -33l-3 -3q0 -1 -3 -8t-5.5 -14t-7 -13t-7.5 -6q-5 0 -6.5 12t-1 28.5t1.5 28.5t2 16q-48 101 -128 352 q-30 -201 -69 -316q-34 -95 -25 95q-1 -3 -5.5 -25t-10 -45.5t-12.5 -48.5t-15.5 -41t-16.5 -16q-15 -1 0 154q31 288 90 475q-13 67 -3 68q14 -5 20 -23q7 17 14 23q0 1 -1.5 8.5t-3 14.5t-2 15.5t0 14.5t3.5 8q13 8 93.5 -212.5t99.5 -287.5q42 247 86 406q2 7 8.5 34 t11 43.5t14.5 36.5t23 29q17 12 16 -52zM208 -145q-18 -73 -46 -135.5t-47 -65.5t-16 44q-21 -43 -35 -39q-8 2 -9 29q-1 52 16 136q19 89 44 136q10 19 23.5 28t23.5 0t10 -37q39 81 44 10q3 -55 -8 -106z" />
<glyph unicode="&#x147;" horiz-adv-x="467" d="M28 -89q-20 0 -7 111l-1 -4q-1 -4 -2.5 -8.5t-3 -10.5t-3.5 -11.5t-4.5 -11.5t-4.5 -11t-4.5 -9t-5.5 -5.5t-5 -1.5q-6 1 -8 19.5t1 49.5t8.5 68t13 80t14.5 80t15 73.5t11.5 55.5t6.5 30q3 12 10 45t11 50.5t11.5 44.5t16 49t19.5 41q15 27 15 -35q0 -60 -5 -87l15 50 q-1 7 -4.5 34.5t-4.5 41.5t-0.5 35t4.5 37q6 21 23 -25q8 -22 11 -35l7 17q0 2 -1.5 20.5t-2 35t1.5 32.5t8 18q14 5 52.5 -202t54.5 -311q38 232 85 396q3 9 7 20t12.5 33t15 32.5t9.5 4.5q6 -12 6.5 -31t-1 -32.5t-5.5 -38t-5 -29.5q35 126 53 162q17 24 19 -20 q-1 -32 -3 -63t-8.5 -74.5t-9 -59.5t-12.5 -74t-11 -62q-38 -206 -74 -338q-2 -8 -9 -33.5t-11 -38t-12.5 -31.5t-18.5 -32q-1 -1 -4.5 -10t-8 -14t-8.5 -2q-14 9 -26 58q-3 -6 -7 -2q0 -36 -7 -38q-5 -1 -11.5 12t-13 37.5t-13 53.5t-13 66t-12.5 69.5t-11.5 69t-8.5 59.5 t-6.5 46t-3.5 24q-24 -145 -60 -283q-1 -3 -7 -30t-12 -49t-15 -49t-20 -42.5t-22 -16.5zM166 910q12 3 30 -12q-8 23 4 24t26 -12q37 -34 77 -98q36 51 79 89q17 18 30.5 17.5t3.5 -30.5q29 24 23 -9q-5 -27 -21 -59q-21 -36 -48 -69q-12 -17 -25 -31q1 -12 -3.5 -19 t-14.5 1q-21 -20 -38 -21q-14 0 -4 22q-24 10 -57.5 60t-52.5 97t-9 50z" />
<glyph unicode="&#x148;" horiz-adv-x="493" d="M455 646q21 75 33 74q32 -6 -55 -442q-30 -146 -55 -235q-1 -3 -5 -21.5t-8 -35t-9.5 -32t-8.5 -17.5q-3 -1 -6 -0.5t-7 5.5t-7 9t-6.5 10t-5.5 10t-4 9l-2 5l-9 -33l-3 -3q0 -1 -3 -8t-5.5 -14t-7 -13t-7.5 -6q-5 0 -6.5 12t-1 28.5t1.5 28.5t2 16q-48 101 -128 352 q-30 -201 -69 -316q-34 -95 -25 95q-1 -3 -5.5 -25t-10 -45.5t-12.5 -48.5t-15.5 -41t-16.5 -16q-15 -1 0 154q31 288 90 475q-13 67 -3 68q14 -5 20 -23q7 17 14 23q0 1 -1.5 8.5t-3 14.5t-2 15.5t0 14.5t3.5 8q13 8 93.5 -212.5t99.5 -287.5q42 247 86 406q2 7 8.5 34 t11 43.5t14.5 36.5t23 29q17 12 16 -52zM135 839q12 3 30 -12q-8 23 4 24t26 -12q37 -34 77 -98q36 51 79 89q17 18 30.5 17.5t3.5 -30.5q29 24 23 -9q-5 -27 -21 -59q-21 -36 -48 -69q-12 -17 -25 -31q1 -12 -3.5 -19t-14.5 1q-21 -20 -38 -21q-14 0 -4 22q-24 10 -57.5 60 t-52.5 97t-9 50z" />
<glyph unicode="&#x14a;" horiz-adv-x="467" d="M28 -89q-20 0 -7 111l-1 -4q-1 -4 -2.5 -8.5t-3 -10.5t-3.5 -11.5t-4.5 -11.5t-4.5 -11t-4.5 -9t-5.5 -5.5t-5 -1.5q-6 1 -8 19.5t1 49.5t8.5 68t13 80t14.5 80t15 73.5t11.5 55.5t6.5 30q3 12 10 45t11 50.5t11.5 44.5t16 49t19.5 41q15 27 15 -35q0 -60 -5 -87l15 50 q-1 7 -4.5 34.5t-4.5 41.5t-0.5 35t4.5 37q6 21 23 -25q8 -22 11 -35l7 17q0 2 -1.5 20.5t-2 35t1.5 32.5t8 18q14 5 52.5 -202t54.5 -311q38 232 85 396q3 9 7 20t12.5 33t15 32.5t9.5 4.5q6 -12 6.5 -31t-1 -32.5t-5.5 -38t-5 -29.5q35 126 53 162q17 24 19 -20 q-1 -32 -3 -63t-8.5 -74.5t-9 -59.5t-12.5 -74t-11 -62q-38 -206 -74 -338q-2 -7 -5.5 -20t-5.5 -18q-17 -187 -77 -315q-30 -64 -85 -111t-121.5 -57.5t-128.5 47.5q-34 32 -44.5 81.5t-2 96t28.5 90.5q7 20 32 50q25 32 28 7q2 -16 0 -35t-7 -41.5t-6 -34.5q2 6 6 17.5 t10 26t13.5 23.5t13.5 7q5 -9 3 -40t-5.5 -74.5t-2.5 -50.5q7 -33 37.5 -40t55.5 15q90 71 122 298q-19 73 -39 199t-25 173q-24 -145 -60 -283q-1 -3 -7 -30t-12 -49t-15 -49t-20 -42.5t-22 -16.5z" />
<glyph unicode="&#x14b;" horiz-adv-x="493" d="M-34 -387q-34 32 -44.5 81.5t-2 96t28.5 90.5q7 20 32 50q25 32 28 7q2 -16 0 -35t-7 -41.5t-6 -34.5q2 6 6 17.5t10 26t13.5 23.5t13.5 7q5 -9 3 -40t-5.5 -74.5t-2.5 -50.5q7 -33 37.5 -40t55.5 15q93 73 126 322q-42 95 -110 312q-30 -201 -69 -316q-34 -95 -25 95 q-1 -3 -5.5 -25t-10 -45.5t-12.5 -48.5t-15.5 -41t-16.5 -16q-15 -1 0 154q31 288 90 475q-13 67 -3 68q14 -5 20 -23q7 17 14 23q0 1 -1.5 8.5t-3 14.5t-2 15.5t0 14.5t3.5 8q13 8 93.5 -212.5t99.5 -287.5q42 247 86 406q2 7 8.5 34t11 43.5t14.5 36.5t23 29q17 12 16 -52 l-3 -57q21 75 33 74q32 -6 -55 -442q-30 -146 -55 -235q-19 -185 -77 -309q-30 -64 -85 -111t-121.5 -57.5t-128.5 47.5z" />
<glyph unicode="&#x14c;" horiz-adv-x="466" d="M385 114q-59 -108 -164 -129.5t-170 63.5q-61 84 -64 215t44 253t124 189q43 37 92.5 42.5t93.5 -32.5q20 -20 40 -63t-1 -56q-5 -4 -22 13.5t-34.5 39t-21.5 23.5q24 -32 28 -52q0 1 1 2q8 10 36 -31.5t36 -59.5q27 -55 35 -125q20 -162 -53 -292zM351 552 q-19 45 -21 56l-4 -3q-7 -3 -30 21.5t-37 21.5q-19 -4 -38.5 -25t-27.5 -36t-21 -42q-29 -61 -46.5 -127.5t-17.5 -142t26 -132.5q24 -53 58.5 -45.5t63.5 39t45 69.5q40 96 29 207q0 2 -7.5 39.5t-10.5 61.5t1 34q11 3 23 -13t20.5 -41t14 -43t7.5 -28q-9 74 -27 129z M523 884q5 -9 -14 -19t-56 -18q36 -2 50.5 -10.5t4 -19t-41.5 -18.5q-63 -14 -175 -22q-111 -8 -177 -2q-28 2 -41.5 8t-4.5 15t44 18q-55 4 -62 20q-4 9 17 18q6 3 13 5q51 16 163 30q4 1 27 4.5t43 6t49 6t53 4t47.5 -1t39 -7.5t21.5 -17z" />
<glyph unicode="&#x14d;" horiz-adv-x="486" d="M548 824q5 -9 -14 -19t-56 -18q36 -2 50.5 -10.5t4 -19t-41.5 -18.5q-62 -14 -124 -18q7 -13 14 -28.5t12 -27t6 -12.5q22 65 57 -43q10 -29 11 -36q24 -125 -7 -258t-109 -231q-40 -51 -93.5 -79.5t-112.5 -20t-100 64.5q-43 59 -54.5 143t1.5 160.5t42 149.5 q17 45 51 89.5t77 77.5t92.5 29t89.5 -57q-1 3 -11 30t-15 45h-2q-111 -8 -177 -2q-28 2 -41.5 8t-4.5 15t44 18q-55 4 -62 20q-4 9 17 18q6 3 13 5q51 16 163 30q4 1 27 4.5t43 6t49 6t53 4t47.5 -1t39 -7.5t21.5 -17zM359 571q-8 5 -31 22l-8 6q-16 12 -26 17q9 -9 29 -66 q14 -41 4 -39q-12 2 -22 17t-16.5 31t-20 28t-32.5 9q-46 -7 -89 -101q-33 -76 -42.5 -156.5t9.5 -160.5q13 -48 35.5 -64t47.5 -3.5t48.5 37t42.5 57.5q48 81 66.5 177.5t4.5 188.5z" />
<glyph unicode="&#x150;" horiz-adv-x="466" d="M385 114q-59 -108 -164 -129.5t-170 63.5q-61 84 -64 215t44 253t124 189q43 37 92.5 42.5t93.5 -32.5q20 -20 40 -63t-1 -56q-5 -4 -22 13.5t-34.5 39t-21.5 23.5q24 -32 28 -52q0 1 1 2q8 10 36 -31.5t36 -59.5q27 -55 35 -125q20 -162 -53 -292zM351 552 q-19 45 -21 56l-4 -3q-7 -3 -30 21.5t-37 21.5q-19 -4 -38.5 -25t-27.5 -36t-21 -42q-29 -61 -46.5 -127.5t-17.5 -142t26 -132.5q24 -53 58.5 -45.5t63.5 39t45 69.5q40 96 29 207q0 2 -7.5 39.5t-10.5 61.5t1 34q11 3 23 -13t20.5 -41t14 -43t7.5 -28q-9 74 -27 129z M113 781q-4 6 7 16.5t36 25.5q-67 -15 -65 5q1 14 37 36q140 85 269 111q52 11 48 -9q-6 -21 -51 -47q82 24 89 9q5 -12 -53 -45q-1 0 -2 -1q-9 -5 -23.5 -12.5t-43.5 -21.5t-57 -26.5t-60.5 -25t-58 -19t-45.5 -6.5t-27 10zM707 954q7 -10 -65 -54q44 10 40 -7 q-4 -22 -60 -57l-5 -3q-39 -24 -103.5 -52t-108.5 -39q-86 -21 -82 -1q6 21 85 57q-54 -12 -63 3q-6 12 29 34q27 17 94 51t146 61t93 7z" />
<glyph unicode="&#x151;" horiz-adv-x="486" d="M628 888q7 -10 -65 -54q44 10 40 -7q-4 -22 -60 -57l-5 -3q-64 -39 -157 -74l18 -40q22 64 57 -42q5 -14 10 -33l1 -4q24 -125 -7 -258t-109 -231q-40 -51 -93.5 -79.5t-112.5 -20t-100 64.5q-43 59 -54.5 143t1.5 160.5t42 149.5q18 47 52.5 93.5t84 78t94.5 22.5 q12 9 50 29q0 2 -1 3q-39 -6 -47 5t28 35q27 17 94 51t146 61t93 7zM359 571q-8 5 -31 22l-8 6q-16 12 -26 17q9 -9 29 -66q14 -41 4 -39q-12 2 -22 17t-16.5 31t-20 28t-32.5 9q-46 -7 -89 -101q-33 -76 -42.5 -156.5t9.5 -160.5q13 -48 35.5 -64t47.5 -3.5t48.5 37 t42.5 57.5q48 81 66.5 177.5t4.5 188.5zM34 715q-4 6 7 16.5t36 25.5q-67 -15 -65 5q1 14 37 36q140 85 269 111q52 11 48 -9q-6 -21 -51 -47q82 24 89 9q5 -12 -53 -45q-1 0 -2 -1q-9 -5 -23.5 -12.5t-43.5 -21.5t-57 -26.5t-60.5 -25t-58 -19t-45.5 -6.5t-27 10zM344 642 q0 1 -13 35q-1 0 -2.5 -0.5t-2.5 -0.5l-12 -3q12 -10 30 -31z" />
<glyph unicode="&#x152;" horiz-adv-x="745" d="M841 683q-2 -31 -108.5 -56t-223.5 -32q0 -78 -20 -200q6 1 25 4.5t28 5t27 3.5t29.5 2t26 -1t26.5 -4q19 -5 -11.5 -22.5t-54.5 -27.5q19 0 25.5 -3.5t1 -9.5t-21.5 -13q-53 -23 -123 -38q-30 -122 -64 -179q185 44 283 53q56 6 64 -8t-52 -36q60 0 65 -12q2 -6 -19 -14 l-2 -1q-39 -14 -119 -36q-4 -1 -30.5 -8.5t-32.5 -9t-30.5 -8t-33 -8t-30.5 -7t-33.5 -7t-31 -5t-33.5 -4.5t-31 -2.5t-33 -1.5q-9 -21 -18.5 -30t-15.5 -1t-5 33q-56 -27 -115.5 -14.5t-98.5 63.5q-61 84 -64 215t44 253t124 189q43 37 92.5 42.5t93.5 -32.5q18 -18 37 -58 q18 12 45 22q1 3 5.5 14.5t11 27t12.5 26t8 8.5q4 -3 5 -13t0 -19t-3 -20.5t-2 -12.5q114 32 249.5 49t138.5 -3l-1 -7q0 -9 -52 -25q23 -1 35 -6t11 -15zM351 552q-19 45 -21 56l-4 -3q-7 -3 -30 21.5t-37 21.5q-19 -4 -38.5 -25t-27.5 -36t-21 -42q-29 -61 -46.5 -127.5 t-17.5 -142t26 -132.5q16 -35 39 -43.5t46 6t42.5 37.5t32.5 49q14 68 27 120q-25 8 -17 21t28 22q0 39 -2 58q0 2 -7.5 39.5t-10.5 61.5t1 34q13 4 25.5 -17t24.5 -55q2 12 4 16q-4 20 -16 60zM331 622q6 7 21 -12t34 -50q3 13 11 37q-3 0 -13 2l-4 -3q-5 -4 -22 13.5 t-34.5 39t-21.5 23.5q24 -32 28 -52q0 1 1 2zM388 631q1 -3 1 -9q16 4 17 5t1 4h-19z" />
<glyph unicode="&#x153;" horiz-adv-x="787" d="M789 99q22 5 36.5 1.5t21 -9.5t6.5 -11q0 -34 -161 -63.5t-313 -34.5q-20 -52 -36 -52q-14 0 -10 51q-84 0 -83 16q0 4 14 8.5t30.5 8.5t17.5 4q-6 -3 -36 -1q-40 -25 -79.5 -32t-80.5 8.5t-71 56.5q-43 59 -54.5 143t1.5 160.5t42 149.5q17 45 51 89.5t77 77.5t92.5 29 t89.5 -57q-1 4 -9 26t-14.5 41.5t-10.5 40.5t3 23q27 17 85 -118q1 1 2 1q13 33 30 11l1 1h2l10 28q11 -3 19 -21q14 3 42 7q0 1 4 11.5t10 20t9 6.5t3 -34q138 20 237 11q44 -4 43 -14t-43 -22q60 3 55 -14q-4 -17 -56 -33q-91 -28 -252 -49q-14 -90 -35 -194q93 17 137 12 q20 -2 21.5 -12t-17.5 -18q51 1 86 -12q36 -14 -22 -33q-71 -24 -227 -36q-20 -93 -45 -183q145 29 288 44t152 -1v-7q1 -3 -36 -15q-6 -2 -17 -6l-17 -7q2 1 7 2zM362 435q6 64 -1 122q-19 2 -19 9v7q-1 3 4 6q-5 4 -15 11l-11 9q-16 12 -26 17q9 -9 29 -66q14 -41 4 -39 q-12 2 -22 17t-16.5 31t-20 28t-32.5 9q-46 -7 -89 -101q-33 -76 -42.5 -156.5t9.5 -160.5q13 -48 35.5 -64t47.5 -3.5t48.5 37t42.5 57.5q16 27 31 63l-32 3q-8 4 -8 7q1 5 5 9t11.5 7.5t11.5 5.5t13 4l9 3l3 13q-20 5 4 16q19 75 26 99zM346 79l-5 -7q1 1 2 1t1.5 0.5 t1.5 0.5v5z" />
<glyph unicode="&#x154;" horiz-adv-x="496" d="M6 211q1 10 4 28q13 86 20.5 131.5t25.5 121.5t43 157q-13 -2 -45 -10t-54.5 -13t-54 -7.5t-44.5 6.5q-19 8 75 47l55 22q-63 22 55 61q20 7 45 13l2 1q7 1 28 5q7 10 42 33q-67 -15 -65 5q1 14 37 36q64 39 172 83q108 45 177 59q52 11 48 -9t-51 -47q54 12 63 -3 q6 -12 -29 -34q-50 -32 -143 -66q-74 -32 -124 -49q127 -7 190 -74q74 -86 33.5 -171t-129 -148t-169.5 -79q97 -125 156 -222q28 -48 46 -105q17 -53 -11 -40q-4 2 -9 6q20 -41 11 -45l-6 -3q-11 -10 -120 141t-142 204q-28 -140 -54 -204q-21 -51 -30 -7q-5 20 -4 44 q-15 -49 -37 -75q-22 -25 -24 24v4q-1 61 17 179zM203 662q-6 -96 -36 -268q216 73 235 197q0 29 -23 46.5t-55.5 21t-66 5t-54.5 -1.5zM159 658l-15 -2q0 -16 -4 -64q2 7 9 31t10 35z" />
<glyph unicode="&#x155;" horiz-adv-x="448" d="M468 535q5 -46 -22.5 -94t-66.5 -81t-75 -53.5t-50 -20.5q119 -127 200 -239q1 -2 11.5 -14t17 -21t14.5 -21.5t11.5 -23t1.5 -18.5q-4 -5 -13.5 -1.5t-24.5 16l-24 20t-13 11.5q0 -1 3.5 -6.5t7.5 -12t8.5 -15t8.5 -16t6.5 -15t2 -12.5t-3.5 -7q-6 -3 -29.5 17.5t-54 54 t-50 55.5t-31.5 36q-107 117 -156 189l-14 3q-30 -158 -59 -247q-16 -49 -30 -50q-13 0 -13 47q-11 -25 -21 -31.5t-15.5 4t-6.5 33.5q-1 41 12 144q27 190 74 382q-1 0 -9 -2t-17.5 -4t-19 -3.5t-15.5 -1t-7 4.5q-1 5 5.5 11.5t18 13t21.5 11t21.5 9.5t12.5 5q1 1 1 4 q-3 -1 -20 -6t-34.5 -10.5t-38.5 -10.5t-33 -5.5t-18 3.5q-4 5 11 15.5t40 22.5t47.5 22t43.5 18q14 12 22 17l2 4q-50 -10 -55.5 4t37.5 40q64 39 172 83q108 45 177 59q52 11 48 -9q-6 -21 -51 -47q54 12 63 -3q6 -12 -29 -34q-50 -32 -143 -66l-33 -14q74 -7 122.5 -41.5 t51.5 -102.5zM360 520q6 41 -52 52t-125 -1q-1 0 -3 -1q-7 -75 -25 -185q18 -16 36 -34q31 18 52 31.5t49.5 36t46 48t21.5 53.5z" />
<glyph unicode="&#x156;" horiz-adv-x="496" d="M6 211q1 10 4 28q13 86 20.5 131.5t25.5 121.5t43 157q-13 -2 -45 -10t-54.5 -13t-54 -7.5t-44.5 6.5q-19 8 75 47l55 22q-63 22 55 61q20 7 45 13l2 1q245 47 345 -61q74 -86 33.5 -171t-129 -148t-169.5 -79q97 -125 156 -222q28 -48 46 -105q17 -53 -11 -40q-4 2 -9 6 q20 -41 11 -45l-6 -3q-11 -10 -120 141t-142 204q-28 -140 -54 -204q-21 -51 -30 -7q-5 20 -4 44q-15 -49 -37 -75q-22 -25 -24 24v4q-1 61 17 179zM203 662q-6 -96 -36 -268q216 73 235 197q0 29 -23 46.5t-55.5 21t-66 5t-54.5 -1.5zM208 -145q-18 -73 -46 -135.5 t-47 -65.5t-16 44q-21 -43 -35 -39q-8 2 -9 29q-1 52 16 136q19 89 44 136q10 19 23.5 28t23.5 0t10 -37q39 81 44 10q3 -55 -8 -106zM159 658l-15 -2q0 -16 -4 -64q2 7 9 31t10 35z" />
<glyph unicode="&#x157;" horiz-adv-x="448" d="M468 535q5 -46 -22.5 -94t-66.5 -81t-75 -53.5t-50 -20.5q119 -127 200 -239q1 -2 11.5 -14t17 -21t14.5 -21.5t11.5 -23t1.5 -18.5q-4 -5 -13.5 -1.5t-24.5 16l-24 20t-13 11.5q0 -1 3.5 -6.5t7.5 -12t8.5 -15t8.5 -16t6.5 -15t2 -12.5t-3.5 -7q-6 -3 -29.5 17.5t-54 54 t-50 55.5t-31.5 36q-107 117 -156 189l-14 3q-30 -158 -59 -247q-16 -49 -30 -50q-13 0 -13 47q-11 -25 -21 -31.5t-15.5 4t-6.5 33.5q-1 41 12 144q27 190 74 382q-1 0 -9 -2t-17.5 -4t-19 -3.5t-15.5 -1t-7 4.5q-1 5 5.5 11.5t18 13t21.5 11t21.5 9.5t12.5 5q1 1 1 4 q-3 -1 -20 -6t-34.5 -10.5t-38.5 -10.5t-33 -5.5t-18 3.5q-8 11 66 45.5t96 40.5q16 58 29 55q10 -2 10 -43q5 1 20 5q3 11 14 14l6 -10q40 10 89 6.5t92 -15t72.5 -45.5t31.5 -85zM208 -145q-18 -73 -46 -135.5t-47 -65.5t-16 44q-21 -43 -35 -39q-8 2 -9 29q-1 52 16 136 q19 89 44 136q10 19 23.5 28t23.5 0t10 -37q39 81 44 10q3 -55 -8 -106zM360 520q6 41 -52 52t-125 -1q-1 0 -3 -1q-7 -75 -25 -185q18 -16 36 -34q31 18 52 31.5t49.5 36t46 48t21.5 53.5z" />
<glyph unicode="&#x158;" horiz-adv-x="496" d="M192 938q12 3 30 -12q-8 23 4 24t26 -12q37 -34 77 -98q36 51 79 89q17 18 30.5 17.5t3.5 -30.5q29 24 23 -9q-5 -27 -21 -59q-21 -36 -48 -69q-1 -1 -5 -6.5t-6 -7.5q57 -20 93 -57q74 -86 33.5 -171t-129 -148t-169.5 -79q97 -125 156 -222q28 -48 46 -105 q17 -53 -11 -40q-4 2 -9 6q20 -41 11 -45l-6 -3q-11 -10 -120 141t-142 204q-28 -140 -54 -204q-21 -51 -30 -7q-5 20 -4 44q-15 -49 -37 -75q-22 -25 -24 24v4q-1 61 17 179q1 10 4 28q13 86 20.5 131.5t25.5 121.5t43 157q-13 -2 -45 -10t-54.5 -13t-54 -7.5t-44.5 6.5 q-19 8 75 47l55 22q-63 22 55 61q20 7 45 13l2 1q71 13 126 13q-21 30 -39.5 66t-26.5 62t-1 28zM203 662q-6 -96 -36 -268q216 73 235 197q0 29 -23 46.5t-55.5 21t-66 5t-54.5 -1.5zM159 658l-15 -2q0 -16 -4 -64q2 7 9 31t10 35z" />
<glyph unicode="&#x159;" horiz-adv-x="448" d="M129 855q12 3 30 -12q-8 23 4 24t26 -12q37 -34 77 -98q36 51 79 89q17 18 30.5 17.5t3.5 -30.5q29 24 23 -9q-5 -27 -21 -59q-21 -36 -48 -69l-15 -20q64 -10 106 -44.5t44 -96.5q5 -46 -22.5 -94t-66.5 -81t-75 -53.5t-50 -20.5q119 -127 200 -239q1 -2 11.5 -14 t17 -21t14.5 -21.5t11.5 -23t1.5 -18.5q-4 -5 -13.5 -1.5t-24.5 16l-24 20t-13 11.5q0 -1 3.5 -6.5t7.5 -12t8.5 -15t8.5 -16t6.5 -15t2 -12.5t-3.5 -7q-6 -3 -29.5 17.5t-54 54t-50 55.5t-31.5 36q-107 117 -156 189l-14 3q-30 -158 -59 -247q-16 -49 -30 -50q-13 0 -13 47 q-11 -25 -21 -31.5t-15.5 4t-6.5 33.5q-1 41 12 144q27 190 74 382q-1 0 -9 -2t-17.5 -4t-19 -3.5t-15.5 -1t-7 4.5q-1 5 5.5 11.5t18 13t21.5 11t21.5 9.5t12.5 5q1 1 1 4q-3 -1 -20 -6t-34.5 -10.5t-38.5 -10.5t-33 -5.5t-18 3.5q-8 11 66 45.5t96 40.5q16 58 29 55 q10 -2 10 -43q5 1 20 5q3 11 14 14l6 -10l29 4q-23 27 -46 69t-34 74t-3 34zM360 520q6 41 -52 52t-125 -1q-1 0 -3 -1q-7 -75 -25 -185q18 -16 36 -34q31 18 52 31.5t49.5 36t46 48t21.5 53.5z" />
<glyph unicode="&#x15a;" horiz-adv-x="433" d="M314 43q-35 -37 -86.5 -49t-98.5 -1.5t-85.5 39.5t-50.5 68q-8 35 -7.5 80.5t21.5 85t54 40.5q4 0 4.5 -6t-2 -15t-6 -17.5t-7 -16.5t-3.5 -10q-10 -44 0 -81q2 30 5.5 48t7.5 22t8.5 2.5t10 -15.5t10 -26.5t11.5 -34.5q9 -30 47.5 -41t58.5 4q34 23 36.5 56.5 t-19.5 68.5t-48.5 66t-54.5 60t-33 38q-31 54 -31 114.5t26 108t77 75.5t114 21q104 -12 145 -94q27 -55 15 -115q0 -2 -4 -17.5t-9.5 -30.5t-8.5 -14q-10 4 -15.5 22.5t-8.5 43.5t-5 30q-1 -27 -20 -63q-16 -32 -24 -8l-1 2q16 86 -38 111q-39 19 -80 -5q-45 -26 -35 -73 q8 -38 53 -76q53 -45 89.5 -113.5t40.5 -146t-53 -137.5zM134 735q-4 4 6 12t31 19q-59 -12 -56 4q2 11 32 26q49 27 147 62q97 34 151 43q45 8 41 -7q-4 -14 -43 -34q48 9 54 -4q4 -8 -23 -23q-1 0 -2 -1q-47 -25 -122 -48q-197 -71 -216 -49z" />
<glyph unicode="&#x15b;" horiz-adv-x="418" d="M91 584q23 55 73 83q-50 -10 -55.5 3.5t37.5 39.5q64 39 172 83q108 45 177 59q52 11 48 -9t-51 -47q54 12 63 -3q6 -12 -29 -34q-50 -32 -143 -66l-41 -18q73 -26 95 -80q5 -12 5.5 -27.5t-2.5 -41t-3 -28.5q-3 -42 -32 -70q-22 -22 -29 -3q-3 9 -2 25q-6 -9 -18 -18 t-17 -1l-4 6q-5 5 4 59q7 72 -48 73q-53 1 -74 -32.5t0 -83.5t78 -89q48 -33 70.5 -89t14.5 -117q-7 -59 -46 -105t-90.5 -66.5t-110.5 -10.5t-102 54q-42 43 -51 108t21 117q8 14 27 28q13 9 13 1q1 -3 -2 -11q-13 -42 -13 -79q5 17 37 42q33 25 32 4q-1 -3 -2 -8 q-34 -117 37 -142q63 -20 102 10.5t32.5 83.5t-59.5 89q-77 54 -113 139.5t-1 171.5z" />
<glyph unicode="&#x15c;" horiz-adv-x="433" d="M314 43q-35 -37 -86.5 -49t-98.5 -1.5t-85.5 39.5t-50.5 68q-8 35 -7.5 80.5t21.5 85t54 40.5q4 0 4.5 -6t-2 -15t-6 -17.5t-7 -16.5t-3.5 -10q-10 -44 0 -81q2 30 5.5 48t7.5 22t8.5 2.5t10 -15.5t10 -26.5t11.5 -34.5q9 -30 47.5 -41t58.5 4q34 23 36.5 56.5 t-19.5 68.5t-48.5 66t-54.5 60t-33 38q-31 54 -31 114.5t26 108t77 75.5t114 21q104 -12 145 -94q27 -55 15 -115q0 -2 -4 -17.5t-9.5 -30.5t-8.5 -14q-10 4 -15.5 22.5t-8.5 43.5t-5 30q-1 -27 -20 -63q-16 -32 -24 -8l-1 2q16 86 -38 111q-39 19 -80 -5q-45 -26 -35 -73 q8 -38 53 -76q53 -45 89.5 -113.5t40.5 -146t-53 -137.5zM93 723q-12 3 10 57t60.5 112t66.5 69q-12 26 5 24q21 -3 43 -24q13 7 17.5 0t3.5 -20q28 -33 29 -35q32 -42 54 -80q17 -29 25 -66q6 -29 -11 -21q-6 3 -15 10q11 -35 -4 -35.5t-36 19.5q-49 45 -90 103 q-48 -76 -88 -112q-17 -16 -30.5 -14.5t-4.5 27.5q-23 -18 -35 -14z" />
<glyph unicode="&#x15d;" horiz-adv-x="418" d="M129 664q-12 3 10 57t60.5 112t66.5 69q-12 26 5 24q21 -3 43 -24q13 7 17.5 0t3.5 -20q27 -33 29 -35q32 -42 54 -80q17 -29 25 -66q6 -29 -11 -21q-6 3 -15 10q11 -35 -4 -35.5t-36 19.5q-49 45 -90 103q-38 -61 -67 -91q67 12 132 -15t85 -76q5 -12 5.5 -27.5 t-2.5 -41t-3 -28.5q-3 -42 -32 -70q-22 -22 -29 -3q-3 9 -2 25q-6 -9 -18 -18t-17 -1l-4 6q-5 5 4 59q7 72 -48 73q-53 1 -74 -32.5t0 -83.5t78 -89q48 -33 70.5 -89t14.5 -117q-7 -59 -46 -105t-90.5 -66.5t-110.5 -10.5t-102 54q-42 43 -51 108t21 117q8 14 27 28 q13 9 13 1q1 -3 -2 -11q-13 -42 -13 -79q5 17 37 42q33 25 32 4q-1 -3 -2 -8q-34 -117 37 -142q63 -20 102 10.5t32.5 83.5t-59.5 89q-77 54 -113 139.5t-1 171.5q21 52 69 80l4 14q-23 -18 -35 -14z" />
<glyph unicode="&#x15e;" horiz-adv-x="433" d="M277 -97q12 -47 -5 -106.5t-67 -88.5q-54 -31 -123 -16q-16 5 -57 28.5t-28 33.5q4 3 16.5 -0.5t26.5 -9.5t16 -6q45 -10 79 -1q-53 -2 -91 25q-14 9 -33 32.5t-6 33.5q3 2 13.5 -4t23 -14t13.5 -9q37 -16 68 -8q28 8 37 28t0.5 45t-21 49.5t-27 50t-17.5 37.5 q-81 31 -102 97q-8 35 -7.5 80.5t21.5 85t54 40.5q4 0 4.5 -6t-2 -15t-6 -17.5t-7 -16.5t-3.5 -10q-10 -44 0 -81q2 30 5.5 48t7.5 22t8.5 2.5t10 -15.5t10 -26.5t11.5 -34.5q7 -24 36 -38l3 3q10 7 13 -8q35 -7 54 6q34 23 36.5 56.5t-19.5 68.5t-48.5 66t-54.5 60t-33 38 q-31 54 -31 114.5t26 108t77 75.5t114 21q104 -12 145 -94q27 -55 15 -115q0 -2 -4 -17.5t-9.5 -30.5t-8.5 -14q-10 4 -15.5 22.5t-8.5 43.5t-5 30q-1 -27 -20 -63q-16 -32 -24 -8l-1 2q16 86 -38 111q-39 19 -80 -5q-45 -26 -35 -73q8 -38 53 -76q53 -45 89.5 -113.5 t40.5 -146t-53 -137.5q-38 -39 -94 -51q44 -44 57 -89z" />
<glyph unicode="&#x15f;" horiz-adv-x="418" d="M266 -138q12 -47 -5 -106.5t-67 -88.5q-54 -31 -123 -16q-16 5 -57 28.5t-28 33.5q4 3 16.5 -0.5t26.5 -9.5t16 -6q45 -10 79 -1q-53 -2 -91 25q-14 9 -33 32.5t-6 33.5q3 2 13.5 -4t23 -14t13.5 -9q37 -16 68 -8q30 9 38 29.5t-1 46.5t-23 51.5t-28 50.5t-15 37 q-1 8 -1 25q-29 14 -51 38q-42 43 -51 108t21 117q8 14 27 28q13 9 13 1q1 -3 -2 -11q-13 -42 -13 -79q5 17 37 42q33 25 32 4q-1 -3 -2 -8q-34 -117 37 -142q63 -20 102 10.5t32.5 83.5t-59.5 89q-77 54 -113 139.5t-1 171.5q19 45 56.5 72t81 31.5t86.5 -4.5t76 -33 t46 -55q5 -12 5.5 -27.5t-2.5 -41t-3 -28.5q-3 -42 -32 -70q-22 -22 -29 -3q-3 9 -2 25q-6 -9 -18 -18t-17 -1l-4 6q-5 5 4 59q7 72 -48 73q-53 1 -74 -32.5t0 -83.5t78 -89q48 -33 70.5 -89t14.5 -117q-9 -75 -66 -126.5t-130 -57.5q3 -4 10 -9.5t9 -7.5q51 -49 63 -95z " />
<glyph unicode="&#x160;" horiz-adv-x="433" d="M171 871q12 3 30 -12q-8 23 4 24t26 -12q37 -34 77 -98q36 51 79 89q17 18 30.5 17.5t3.5 -30.5q29 24 23 -9q-5 -27 -21 -59q-21 -36 -48 -69l-13 -17q37 -24 56 -62q27 -55 15 -115q0 -2 -4 -17.5t-9.5 -30.5t-8.5 -14q-10 4 -15.5 22.5t-8.5 43.5t-5 30 q-1 -27 -20 -63q-16 -32 -24 -8l-1 2q16 86 -38 111q-39 19 -80 -5q-45 -26 -35 -73q8 -38 53 -76q53 -45 89.5 -113.5t40.5 -146t-53 -137.5q-35 -37 -86.5 -49t-98.5 -1.5t-85.5 39.5t-50.5 68q-8 35 -7.5 80.5t21.5 85t54 40.5q4 0 4.5 -6t-2 -15t-6 -17.5t-7 -16.5 t-3.5 -10q-10 -44 0 -81q2 30 5.5 48t7.5 22t8.5 2.5t10 -15.5t10 -26.5t11.5 -34.5q9 -30 47.5 -41t58.5 4q34 23 36.5 56.5t-19.5 68.5t-48.5 66t-54.5 60t-33 38q-28 49 -30.5 104.5t17 100.5t61 77t94.5 37q-19 29 -35 62.5t-23 56.5t0 25z" />
<glyph unicode="&#x161;" horiz-adv-x="418" d="M160 817q12 3 30 -12q-8 23 4 24t26 -12q37 -34 77 -98q36 51 79 89q17 18 30.5 17.5t3.5 -30.5q29 24 23 -9q-5 -27 -21 -59q-23 -39 -43 -64q50 -26 68 -68q5 -12 5.5 -27.5t-2.5 -41t-3 -28.5q-3 -42 -32 -70q-22 -22 -29 -3q-3 9 -2 25q-6 -9 -18 -18t-17 -1l-4 6 q-5 5 4 59q7 72 -48 73q-53 1 -74 -32.5t0 -83.5t78 -89q48 -33 70.5 -89t14.5 -117q-7 -59 -46 -105t-90.5 -66.5t-110.5 -10.5t-102 54q-42 43 -51 108t21 117q8 14 27 28q13 9 13 1q1 -3 -2 -11q-13 -42 -13 -79q5 17 37 42q33 25 32 4q-1 -3 -2 -8q-34 -117 37 -142 q63 -20 102 10.5t32.5 83.5t-59.5 89q-77 54 -113 139.5t-1 171.5q32 79 121 100q-18 28 -33 59t-19.5 50.5t0.5 23.5z" />
<glyph unicode="&#x162;" horiz-adv-x="384" d="M55 104q26 238 85 470q-141 0 -186 10q-46 11 15 27q26 7 40 8q-81 10 -79 25q1 4 13 7.5t32.5 6t43 4.5t48 3.5t44.5 2.5t36.5 1.5t19.5 0.5q1 3 4.5 16.5t8 26t10 26t12.5 22t15 8.5q19 1 9 -97h3q18 62 29 60q5 -1 6 -15.5t0 -26.5t-2 -17q90 2 151 -8q34 -5 43 -20 q8 -10 -14 -20q-1 0 -2 -1q13 -2 22 -3.5t13.5 -4t4.5 -5.5v-6q1 -6 -29 -11t-79 -9t-73.5 -5.5t-46.5 -2.5q-29 -215 -80 -403q-6 -28 -23.5 -83.5t-28.5 -50.5q-6 3 -8.5 15.5t-1 31.5t3.5 35t5 33t3 19q-3 -9 -12.5 -53.5t-21 -75t-28.5 -46.5q-11 -9 -6 94q1 9 1 11z M109 -224q-18 -73 -46 -135.5t-47 -65.5t-16 44q-21 -43 -35 -39q-8 4 -9 29q-1 52 16 136q19 89 44 136q10 19 23.5 28t23.5 0t10 -37q39 81 44 10q3 -55 -8 -106z" />
<glyph unicode="&#x163;" horiz-adv-x="377" d="M412 652q81 0 81 -14q0 -6 -22.5 -13.5t-58 -15t-67 -13t-62.5 -10.5t-33 -5q-29 -238 -81 -443q-3 -11 -11.5 -46t-14 -54t-16.5 -45t-25 -43q-19 -24 -21 32q-1 42 3 70q-1 -1 -3.5 -10t-5.5 -19.5t-7 -21t-9 -17t-9 -5.5q-29 5 15.5 233t77.5 353q-83 -10 -126 -8 q-36 2 -47 15q-8 10 14 22q-41 0 -41 9v6q-1 4 59.5 21.5t122.5 30.5t66 7l38 6l3 8q3 7 5.5 13.5t7 12t7.5 5.5q6 0 6 -35q142 22 204 16q48 -5 -14 -30q-23 -9 -36 -12zM99 -229q-18 -73 -46 -135.5t-47 -65.5t-16 44q-21 -43 -35 -39q-8 4 -9 29q-1 52 16 136 q19 89 44 136q10 19 23.5 28t23.5 0t10 -37q39 81 44 10q3 -55 -8 -106z" />
<glyph unicode="&#x164;" horiz-adv-x="384" d="M95 860q12 3 30 -12q-8 23 4 24t26 -12q37 -34 77 -98q36 51 79 89q17 18 30.5 17.5t3.5 -30.5q29 24 23 -9q-5 -27 -21 -59q-21 -36 -48 -69q-11 -15 -22 -28q74 2 136 -8q34 -5 43 -20q8 -10 -14 -20q-1 0 -2 -1q13 -2 22 -3.5t13.5 -4t4.5 -5.5v-6q1 -6 -29 -11 t-79 -9t-73.5 -5.5t-46.5 -2.5q-29 -215 -80 -403q-6 -28 -23.5 -83.5t-28.5 -50.5q-6 3 -8.5 15.5t-1 31.5t3.5 35t5 33t3 19q-3 -9 -12.5 -53.5t-21 -75t-28.5 -46.5q-11 -9 -6 94q1 9 1 11q26 238 85 470q-141 0 -186 10q-46 11 15 27q26 7 40 8q-81 10 -79 25 q1 4 13 7.5t32.5 6t43 4.5t48 3.5t44.5 2.5t36.5 1.5t19.5 0.5l5 20q-22 28 -43.5 68t-31.5 70t-2 32z" />
<glyph unicode="&#x165;" horiz-adv-x="507" d="M571 590q-18 -73 -46 -135.5t-47 -65.5t-16 44q-21 -43 -35 -39q-8 2 -9 29q-1 52 16 136l14 59q-22 -6 -56 -13t-61 -11.5t-52.5 -8t-28.5 -4.5q-29 -238 -81 -443q-3 -11 -11.5 -46t-14 -54t-16.5 -45t-25 -43q-19 -24 -21 32q-1 42 3 70q-1 -1 -3.5 -10t-5.5 -19.5 t-7 -21t-9 -17t-9 -5.5q-29 5 15.5 233t77.5 353q-83 -10 -126 -8q-36 2 -47 15q-8 10 14 22q-41 0 -41 9v6q-1 4 59.5 21.5t122.5 30.5t66 7l38 6l3 8q3 7 5.5 13.5t7 12t7.5 5.5q6 0 6 -35q142 22 204 16l14 -3q0 2 2 4q10 19 23.5 28t23.5 0t10 -37q39 81 44 10 q3 -55 -8 -106zM412 652q26 0 46 -2l9 23q-32 -18 -55 -21z" />
</font>
</defs>
</svg>
